<?xml version="1.0" encoding="utf-8"?>
<!-- Generator: Adobe Illustrator 23.0.1, SVG Export Plug-In . SVG Version: 6.00 Build 0)  -->
<svg version="1.1" id="bow" xmlns="http://www.w3.org/2000/svg" xmlns:xlink="http://www.w3.org/1999/xlink" x="0px" y="0px"
	 viewBox="0 0 193.6 206" style="enable-background:new 0 0 193.6 206;" xml:space="preserve">
<style type="text/css">
	.st0{fill:#8C361D;stroke:#000000;stroke-width:3;stroke-miterlimit:10;}
	.st1{stroke:#000000;stroke-width:3;stroke-miterlimit:10;}
	.st2{fill:#8C361D;stroke:#000000;stroke-width:2;stroke-miterlimit:10;}
	.st3{fill:#A3A3A3;stroke:#000000;stroke-width:2;stroke-miterlimit:10;}
</style>
<path id="lowerBow" class="st0" d="M5.4,4.6c0,0,24.1,31.4,54.9,20.1S118,71.6,118,71.6l9.9-6.2c0,0-31.9-70.6-73.8-53.8
	C54.1,11.5,39.2,22.6,5.4,4.6z"/>
<path id="upperBow" class="st0" d="M116.4,199.1c0,0-14.5-36.9,11.1-57.4s-10.3-71.4-10.3-71.4l10.4-7.5c0,0,44,63.8,8,91
	C135.5,153.8,118.4,160.8,116.4,199.1z"/>
<rect id="grip" x="117.9" y="53.6" transform="matrix(0.8576 -0.5143 0.5143 0.8576 -18.8573 74.4573)" class="st1" width="14.2" height="35.3"/>
<line id="bowString" class="st2" x1="8.9" y1="6.2" x2="117.2" y2="193.9"/>
<polygon id="arrowShaft" class="st1" points="60.4,93.9 58.5,90.5 174.4,20.9 176.3,24.2 "/>
<path id="Arrow_Head" class="st3" d="M165.5,21.1c2.8,0.4,9,2.4,6.1,11c-0.1,0.3,0.3,0.4,0.5,0.2l18.2-18.7l-24.7,7.1
	C165.3,20.7,165.2,21.1,165.5,21.1z"/>
<polygon id="featherLower" class="st1" points="60.4,93.9 54.2,103.2 79.3,88.1 82.7,80.5 "/>
<polygon id="featherUpper" class="st1" points="56.9,90.3 45.9,91.3 71,76.2 79.1,76.9 "/>
</svg>
