<?xml version="1.0" encoding="utf-8"?>
<!-- Generator: Adobe Illustrator 23.0.1, SVG Export Plug-In . SVG Version: 6.00 Build 0)  -->
<svg version="1.1" xmlns="http://www.w3.org/2000/svg" xmlns:xlink="http://www.w3.org/1999/xlink" x="0px" y="0px"
	 viewBox="0 0 193.6 206" style="enable-background:new 0 0 193.6 206;" xml:space="preserve">
<style type="text/css">
	.st0{fill:none;}
	.st1{fill:#DF4598;}
	.st2{fill:#FFFFFF;}
	.st3{display:none;}
	.st4{display:inline;fill:none;}
	.st5{display:inline;fill:#DF4598;}
	.st6{display:inline;fill:#FFFFFF;}
	.st7{display:inline;fill:#A3A3A3;stroke:#000000;stroke-width:3;stroke-miterlimit:10;}
	.st8{display:inline;fill:#8C361D;stroke:#000000;stroke-width:3;stroke-miterlimit:10;}
	.st9{display:inline;fill:#FFCD34;stroke:#000000;stroke-width:3;stroke-miterlimit:10;}
	.st10{display:inline;fill:#FFCD34;stroke:#000000;stroke-miterlimit:10;}
	.st11{display:inline;fill:#ED1C24;}
	.st12{display:inline;fill:none;stroke:#000000;stroke-width:2;stroke-miterlimit:10;}
	.st13{display:inline;fill:#A3A3A3;stroke:#000000;stroke-width:2;stroke-miterlimit:10;}
	.st14{display:inline;fill:#636768;stroke:#000000;stroke-width:3;stroke-miterlimit:10;}
	.st15{display:inline;fill:#898989;stroke:#000000;stroke-width:3;stroke-miterlimit:10;}
	.st16{display:inline;fill:url(#Rod_1_);stroke:#000000;stroke-width:3;stroke-miterlimit:10;}
	.st17{display:inline;fill:#F4D80E;stroke:#000000;stroke-width:3;stroke-miterlimit:10;}
	.st18{display:inline;fill:#28BEEF;}
	.st19{display:inline;}
	.st20{fill:#28BEEF;}
	.st21{fill:#92D7EA;}
	.st22{display:inline;fill:none;stroke:#92D7EA;stroke-width:2;stroke-miterlimit:10;}
	.st23{display:inline;fill:#CB2026;stroke:#EB2C24;stroke-width:3;stroke-miterlimit:10;}
	.st24{display:inline;fill:#EB2C24;stroke:#EB2C24;stroke-width:3;stroke-miterlimit:10;}
	.st25{display:inline;fill:#E8E62A;}
	.st26{display:inline;fill:#CB2026;stroke:#000000;stroke-width:2;stroke-miterlimit:10;}
	.st27{display:inline;fill:#F7EC13;}
	.st28{fill:#8C361D;stroke:#000000;stroke-width:3;stroke-miterlimit:10;}
	.st29{stroke:#000000;stroke-width:3;stroke-miterlimit:10;}
	.st30{fill:#8C361D;stroke:#000000;stroke-width:2;stroke-miterlimit:10;}
	.st31{fill:#A3A3A3;stroke:#000000;stroke-width:2;stroke-miterlimit:10;}
	.st32{fill:#ED1C24;stroke:#EF4136;stroke-width:2;stroke-miterlimit:10;}
	.st33{fill:#F9ED32;}
	.st34{fill:#006838;stroke:#8DC63F;stroke-width:2;stroke-miterlimit:10;}
	.st35{fill:#A3A3A3;stroke:#000000;stroke-width:4;stroke-miterlimit:10;}
	.st36{stroke:#000000;stroke-miterlimit:10;}
	.st37{fill:none;stroke:#000000;stroke-miterlimit:10;}
</style>
<pattern  x="-61.3" y="-56.6" width="154" height="120.1" patternUnits="userSpaceOnUse" id="Unnamed_Pattern" viewBox="84.8 -209.8 154 120.1" style="overflow:visible;">
	<g>
		<rect x="84.8" y="-209.8" class="st0" width="154" height="120.1"/>
		<polygon class="st1" points="169.5,-21.4 148.3,0 0,-149.7 21.2,-171 		"/>
		<polygon class="st2" points="186.2,-38.2 165,-16.8 16.7,-166.5 37.8,-187.8 		"/>
		<polygon class="st2" points="223,-75.3 201.8,-54 53.5,-203.7 74.7,-225 		"/>
		<polygon class="st2" points="258.1,-110.7 236.9,-89.4 88.6,-239.1 109.7,-260.4 		"/>
		<polygon class="st2" points="286.5,-139.4 265.3,-118.1 117,-267.7 138.2,-289.1 		"/>
		<polygon class="st1" points="198.7,-60.8 177.5,-39.4 34.1,-184.1 55.3,-205.5 		"/>
		<polygon class="st1" points="237.2,-89.7 216,-68.3 67.7,-218 88.9,-239.4 		"/>
		<polygon class="st1" points="270.9,-123.7 249.7,-102.3 101.4,-252 122.6,-273.4 		"/>
		<polygon class="st1" points="303.7,-156.8 282.6,-135.5 134.2,-285.1 155.4,-306.5 		"/>
	</g>
</pattern>
<g id="Swatch" class="st3">
	<rect x="461.5" y="73.6" class="st4" width="154" height="120.1"/>
	<polygon class="st5" points="546.2,262 525.1,283.4 376.7,133.7 397.9,112.4 	"/>
	<polygon class="st6" points="562.9,245.2 541.7,266.6 393.4,116.9 414.5,95.6 	"/>
	<polygon class="st6" points="599.7,208.1 578.5,229.4 430.2,79.7 451.4,58.4 	"/>
	<polygon class="st6" points="634.8,172.7 613.6,194 465.3,44.3 486.5,23 	"/>
	<polygon class="st6" points="663.2,144 642.1,165.3 493.7,15.7 514.9,-5.7 	"/>
	<polygon class="st5" points="575.4,222.6 554.2,244 410.8,99.3 432,77.9 	"/>
	<polygon class="st5" points="613.9,193.7 592.8,215.1 444.4,65.4 465.6,44 	"/>
	<polygon class="st5" points="647.6,159.7 626.5,181.1 478.1,31.4 499.3,10 	"/>
	<polygon class="st5" points="680.5,126.6 659.3,147.9 511,-1.7 532.1,-23.1 	"/>
</g>
<g id="Sword_Icon" class="st3">
	<polygon id="Blade" class="st7" points="225.8,13.1 183.9,23.3 95.2,121.9 117,143.7 215.6,53.5 	"/>
	<path id="Handle" class="st8" d="M80.5,138.5l19.5,19.5l-36.7,36.7c-2.3,2.3-6,2.3-8.3,0l-11.3-11.3c-2.3-2.3-2.3-6,0-8.3
		L80.5,138.5z"/>
	<path id="Pommel" class="st9" d="M65.4,192.8c0,0-3.6,17.6-17.6,17.6c-11.8,1-20-12.2-20-20c0.8-12.5,18.1-17.1,18.1-17.1
		L65.4,192.8z"/>
	<path id="Hilt" class="st8" d="M78.6,89.5c1.6-2.8,5.8-1.7,5.9,1.5c0.2,9.8,4.3,24.4,21.3,41.4c18.7,18.7,34.9,22,44.7,21.7
		c2.6-0.1,3.6,3.2,1.5,4.6c-13.2,8.3-39.3,18.6-64.8-6.9C63.1,127.8,70.7,103.3,78.6,89.5z"/>
	<circle id="Bezzel" class="st10" cx="96.8" cy="141.3" r="6.5"/>
	<circle id="Gem" class="st11" cx="96.8" cy="141.3" r="3.4"/>
	<polyline id="Sword_Edge" class="st12" points="215.6,53.5 193.8,44.4 183.9,23.3 	"/>
	<line id="Sword_Edge_2" class="st13" x1="193.8" y1="44.4" x2="105.8" y2="132.4"/>
</g>
<g id="Shield_Icon" class="st3">
	<path id="outerRim" class="st14" d="M339,20.4l-68.6,41c0,0-17,99.8,68.6,147.4c0,0,80.5-36.5,68.7-147.4L339,20.4z"/>
	<path id="innerRim" class="st15" d="M339,38.3l-57.3,34.2c0,0-14.2,83.4,57.3,123.1c0,0,67.3-30.5,57.4-123.1L339,38.3z"/>
</g>
<g id="Wand_Icon" class="st3">
	
		<pattern  id="Rod_1_" xlink:href="#Unnamed_Pattern" patternTransform="matrix(0.7071 0.7071 -0.7071 0.7071 -7686.3203 3220.7607)">
	</pattern>
	<path id="Rod" class="st16" d="M457.1,189.4l-4.6-4.6c-2.7-2.7-2.7-7,0.1-9.7L536,97.2l11.6,11.6l-80.8,80.5
		C464.2,192,459.8,192.1,457.1,189.4z"/>
	<polygon id="Star" class="st17" points="587.4,58 572.3,87.9 596,111.5 562.9,106.3 547.8,136.2 542.5,103.1 509.4,98 539.2,82.7 
		533.9,49.7 557.6,73.3 	"/>
</g>
<g id="Dagger_Icon" class="st3">
	<path id="Blade1" class="st7" d="M126.8,308.3l-61,61l-54,54l10.7,10.7L84,372.5C84,372.5,127.7,330.2,126.8,308.3z"/>
	
		<rect id="Hilt1" x="57.4" y="379.1" transform="matrix(0.7071 -0.7071 0.7071 0.7071 -259.4185 158.3762)" class="st14" width="8.2" height="26.4"/>
	
		<rect id="Handle1" x="28.3" y="383.5" transform="matrix(0.7071 0.7071 -0.7071 0.7071 300.4249 94.7507)" class="st14" width="15.2" height="53"/>
	<path id="Blade2" class="st7" d="M134.5,349.2l-52.3,52.3L36,447.7l9.2,9.2l52.7-52.7C97.9,404.1,135.3,367.9,134.5,349.2z"/>
	
		<rect id="Hilt2" x="75.1" y="409.8" transform="matrix(0.7071 -0.7071 0.7071 0.7071 -274.732 178.9164)" class="st14" width="7" height="22.6"/>
	
		<rect id="Handle2" x="50.2" y="413.5" transform="matrix(0.7071 0.7071 -0.7071 0.7071 325.0587 87.7051)" class="st14" width="13" height="45.4"/>
</g>
<g id="Two_Spells_Icon" class="st3">
	<path id="iceInnerColour" class="st18" d="M241.2,346.5c0,0-9.6-22.2,14.4-14.4c13.6,4.4,24.8,6.5,32.1,7.6c5.1,0.7,9.4,4.2,11.2,9
		c2,5.4,5.4,12.5,10.6,17.7c9.8,9.8,11.4,32.6,11.4,32.6s4.3,12.2,15.6,19s1.3,10.9,1.3,10.9s-13.4,0.9-23.2-9.2
		c-9.8-10-26.3-9.8-26.3-9.8s-12.5-4.7-17.8-17.8c-3.3-8.2-11.2-13.5-16.6-16.3c-3.6-1.8-6.3-5.1-7.3-9L241.2,346.5z"/>
	<g id="lineArt" class="st19">
		<g>
			<g>
				<path class="st20" d="M247.3,361.1c7.1,1.4,14.4,2,21.2,4.3c6.8,2.4,13.4,6.9,15.9,13.7c1,2.8,1.3,5.8,2.3,8.5
					c2.6,6.8,9.5,11,16.4,13.6"/>
				<g>
					<path class="st20" d="M246.6,363.5c12.3,2.4,30.8,2.9,35.6,17.2c1.9,5.5,2.4,10.4,6.6,14.8c3.7,3.9,8.6,6.3,13.6,8.3
						c3,1.2,4.3-3.6,1.3-4.8c-6.5-2.6-13-6.4-15.2-13.5c-1.7-5.5-2.5-10.2-6.6-14.5c-8.8-9.2-22.2-9.9-34-12.1
						C244.8,358.1,243.5,362.9,246.6,363.5L246.6,363.5z"/>
				</g>
			</g>
			<g>
				<path class="st20" d="M290.9,380.9c7.1,5.1,14.4,10,21.8,14.6c2.7,1.7,5.5,3.3,7.9,5.5"/>
				<g>
					<path class="st20" d="M289.6,383.1c4.8,3.5,9.7,6.8,14.7,10c4.8,3.1,10.1,5.9,14.5,9.6c2.4,2.1,6-1.5,3.5-3.5
						c-9.2-7.8-20.4-13.4-30.2-20.4C289.5,376.9,287.1,381.2,289.6,383.1L289.6,383.1z"/>
				</g>
			</g>
			<g>
				<path class="st20" d="M306.4,407.5c-0.2,1.8,0.4,3.7,1.5,5.1"/>
				<g>
					<path class="st20" d="M303.9,407.5c-0.2,2.2,0.5,4.5,1.8,6.3c0.8,1.1,2.2,1.6,3.4,0.9c1.1-0.6,1.7-2.3,0.9-3.4
						c-0.9-1.2-1.3-2.3-1.2-3.8c0.1-1.3-1.2-2.5-2.5-2.5C305,405,304,406.2,303.9,407.5L303.9,407.5z"/>
				</g>
			</g>
			<g>
				<path class="st20" d="M254.1,341.9c3.1,2.9,6.2,5.8,9.9,8s7.8,3.7,12.1,3.3c3.7-0.3,7.1-1.9,10.3-3.6"/>
				<g>
					<path class="st20" d="M252.4,343.7c5.1,4.8,10.6,9.8,17.5,11.5c6.4,1.6,12.1-0.3,17.8-3.4c2.8-1.5,0.3-5.8-2.5-4.3
						c-4.9,2.7-9.9,4.4-15.4,2.4c-5.4-1.9-9.7-5.9-13.8-9.8C253.6,338,250,341.5,252.4,343.7L252.4,343.7z"/>
				</g>
			</g>
		</g>
		<g>
			<g>
				<g>
					<path class="st21" d="M246.6,363.5c12.3,2.4,30.8,2.9,35.6,17.2c1.9,5.5,2.4,10.4,6.6,14.8c3.7,3.9,8.6,6.3,13.6,8.3
						c3,1.2,4.3-3.6,1.3-4.8c-6.5-2.6-13-6.4-15.2-13.5c-1.7-5.5-2.5-10.2-6.6-14.5c-8.8-9.2-22.2-9.9-34-12.1
						C244.8,358.1,243.5,362.9,246.6,363.5L246.6,363.5z"/>
				</g>
			</g>
			<g>
				<g>
					<path class="st21" d="M289.6,383.1c4.8,3.5,9.7,6.8,14.7,10c4.8,3.1,10.1,5.9,14.5,9.6c2.4,2.1,6-1.5,3.5-3.5
						c-9.2-7.8-20.4-13.4-30.2-20.4C289.5,376.9,287.1,381.2,289.6,383.1L289.6,383.1z"/>
				</g>
			</g>
			<g>
				<g>
					<path class="st21" d="M303.9,407.5c-0.2,2.2,0.5,4.5,1.8,6.3c0.8,1.1,2.2,1.6,3.4,0.9c1.1-0.6,1.7-2.3,0.9-3.4
						c-0.9-1.2-1.3-2.3-1.2-3.8c0.1-1.3-1.2-2.5-2.5-2.5C305,405,304,406.2,303.9,407.5L303.9,407.5z"/>
				</g>
			</g>
			<g>
				<g>
					<path class="st21" d="M252.4,343.7c5.1,4.8,10.6,9.8,17.5,11.5c6.4,1.6,12.1-0.3,17.8-3.4c2.8-1.5,0.3-5.8-2.5-4.3
						c-4.9,2.7-9.9,4.4-15.4,2.4c-5.4-1.9-9.7-5.9-13.8-9.8C253.6,338,250,341.5,252.4,343.7L252.4,343.7z"/>
				</g>
			</g>
		</g>
	</g>
	<path id="iceLineArt_1_" class="st22" d="M241.2,346.5c0,0-9.6-22.2,14.4-14.4c13.6,4.4,24.8,6.5,32.1,7.6c5.1,0.7,9.4,4.2,11.2,9
		c2,5.4,5.4,12.5,10.6,17.7c9.8,9.8,11.4,32.6,11.4,32.6s4.3,12.2,15.6,19s1.3,10.9,1.3,10.9s-13.4,0.9-23.2-9.2
		c-9.8-10-26.3-9.8-26.3-9.8s-12.5-4.7-17.8-17.8c-3.3-8.2-11.2-13.5-16.6-16.3c-3.6-1.8-6.3-5.1-7.3-9L241.2,346.5z"/>
	<path id="outFlame" class="st23" d="M344.4,422.4c0,0,26.1-3.4,26.1-26.1c0,0,0-11,11.5-22.3c11.4-11.3,6-25.1,6-25.1
		s-6,16.2-12,11.4c-6-4.8,1.8-25.9,9.3-31.9c7.5-6-0.3-27.7-4.5-34.9c0,0-1.8,31.3-19.2,45.1c-17.4,13.8-13.5-21.1,5.3-27.4
		c0,0-55.2,7.3-48.6,85C318.2,396.3,318.2,419.6,344.4,422.4z"/>
	<circle id="fireBall" class="st24" cx="344.1" cy="396.6" r="24"/>
	<circle id="innFlame" class="st25" cx="349.5" cy="405.6" r="17.1"/>
</g>
<g id="Spell__x26__Sword_Icon" class="st3">
	<path id="Handle_1_" class="st8" d="M477.5,379.9l19.5,19.5l-36.7,36.7c-2.3,2.3-6,2.3-8.3,0l-11.3-11.3c-2.3-2.3-2.3-6,0-8.3
		L477.5,379.9z"/>
	<path id="Pommel_1_" class="st9" d="M462.4,434.1c0,0-3.6,17.6-17.6,17.6c-11.8,1-20-12.2-20-20c0.8-12.5,18.1-17.1,18.1-17.1
		L462.4,434.1z"/>
	<path id="mainFlame" class="st26" d="M514.9,394.2c0,0,8.9-9.2,10.3-14.9c1-4.5,11.9-8.9,16.3-10.5c1.4-0.5,2.7-1.3,3.9-2.4
		c3.2-3,9.6-9.6,12.1-17.9c3.4-11.2,27.9-18.9,27.9-18.9s25.7-5.6,30.3-18.8s13-52.9-19-76.6c0,0,12,27.2-0.7,30.1
		c-12.7,2.9-15.1-12.3-15.1-12.3s-6.4,14.6,0,22.5c6.4,7.9-28.1,10.5-23.4-21.2c0,0-23.2,21.1-9.9,43.6
		c13.3,22.5-16.5,12.6-16.5,12.6s-23.8-9.9-5.9-50.2c0,0-38.6,58-2.5,79.9c0,0,9.4,16.4-12,11.5c-2-0.5-4.2-0.1-6,1
		c-3,1.9-7.6,3.5-8.5-4.7c-0.9-8.6-16.4,10.1-8.9,20.6C494.8,378.3,514.9,394.2,514.9,394.2z"/>
	<path id="flameAdditive" class="st27" d="M612.5,289.4c1.3,2.1,1.7,4.6,1.5,7c-0.9,7.7-2.1,27.3-31.4,30
		c-13.1,1.2-26.9,12.3-30.4,22.8c0,0-0.8,13.4-22.4,20.9c0,0-9.9,6.3-11.7,16.2c-1.5,7.9-22.2-13.3-22.2-13.3s35.7-8.3,37-16.8
		s11.6-34.4,37-43.6c25.4-9.2,30.1-19.5,30.1-19.5S607.5,281.5,612.5,289.4z"/>
	<path id="Hilt_1_" class="st8" d="M475.6,330.9c1.6-2.8,5.8-1.7,5.9,1.5c0.2,9.8,4.3,24.4,21.3,41.4c18.7,18.7,34.9,22,44.7,21.7
		c2.6-0.1,3.6,3.2,1.5,4.6c-13.2,8.3-39.3,18.6-64.8-6.9C460.1,369.2,467.7,344.7,475.6,330.9z"/>
	<circle id="Bezzel_1_" class="st10" cx="493.8" cy="382.7" r="6.5"/>
	<circle id="Gem_1_" class="st11" cx="493.8" cy="382.7" r="3.4"/>
</g>
<g id="Bow">
	<path id="lowerBow" class="st28" d="M5.4,4.6c0,0,24.1,31.4,54.9,20.1S118,71.6,118,71.6l9.9-6.2c0,0-31.9-70.6-73.8-53.8
		C54.1,11.5,39.2,22.6,5.4,4.6z"/>
	<path id="upperBow" class="st28" d="M116.4,199.1c0,0-14.5-36.9,11.1-57.4s-10.3-71.4-10.3-71.4l10.4-7.5c0,0,44,63.8,8,91
		C135.5,153.8,118.4,160.8,116.4,199.1z"/>
	
		<rect id="grip" x="117.9" y="53.6" transform="matrix(0.8576 -0.5143 0.5143 0.8576 -18.8573 74.4573)" class="st29" width="14.2" height="35.3"/>
	<line id="bowString" class="st30" x1="8.9" y1="6.2" x2="117.2" y2="193.9"/>
	<polygon id="arrowShaft" class="st29" points="60.4,93.9 58.5,90.5 174.4,20.9 176.3,24.2 	"/>
	<path id="Arrow_Head" class="st31" d="M165.5,21.1c2.8,0.4,9,2.4,6.1,11c-0.1,0.3,0.3,0.4,0.5,0.2l18.2-18.7l-24.7,7.1
		C165.3,20.7,165.2,21.1,165.5,21.1z"/>
	<polygon id="featherLower" class="st29" points="60.4,93.9 54.2,103.2 79.3,88.1 82.7,80.5 	"/>
	<polygon id="featherUpper" class="st29" points="56.9,90.3 45.9,91.3 71,76.2 79.1,76.9 	"/>
</g>
<g id="Spell_Bow">
	<path id="lowerBow_1_" class="st28" d="M225.2,1.1c0,0,24.1,31.4,54.9,20.1s57.7,46.9,57.7,46.9l9.9-6.2c0,0-31.9-70.6-73.8-53.8
		C273.9,8,259.1,19.1,225.2,1.1z"/>
	<path id="upperBow_1_" class="st28" d="M336.2,195.6c0,0-14.5-36.9,11.1-57.4s-10.3-71.4-10.3-71.4l10.4-7.5c0,0,44,63.8,8,91
		C355.4,150.3,338.3,157.3,336.2,195.6z"/>
	
		<rect id="grip_1_" x="337.8" y="50.1" transform="matrix(0.8576 -0.5143 0.5143 0.8576 14.2452 187.0237)" class="st29" width="14.2" height="35.3"/>
	<line id="bowString_1_" class="st30" x1="228.8" y1="2.7" x2="337.1" y2="190.4"/>
	<polygon id="arrowShaft_1_" class="st29" points="280.3,90.4 278.4,87 394.3,17.4 396.2,20.7 	"/>
	<polygon id="featherLower_1_" class="st29" points="280.3,90.4 274,99.7 299.1,84.6 302.5,77 	"/>
	<polygon id="featherUpper_1_" class="st29" points="276.7,86.8 265.7,87.8 290.9,72.7 299,73.4 	"/>
	<circle id="fireOrb" class="st32" cx="399.2" cy="16" r="8.8"/>
	<circle id="orbGlow" class="st33" cx="404.8" cy="17.4" r="3.8"/>
</g>
<g id="Evil_Staff">
	<circle class="st34" cx="566.5" cy="84.8" r="18.2"/>
	<circle class="st34" cx="578" cy="86.7" r="5.2"/>
	<path class="st30" d="M567.6,61.2c0,0-5.9,3.7-10.4,3.6s-15.4,5.8-16.7,16s3.5,11.2-14.2,23.7c-0.9,0.6-1.8,1.3-2.7,2
		c-1.5,1.3-3.1,2.6-4.6,4.1c-15.3,14.7-29.7,39.2-30.4,40c-0.9,0.9-20.4,27.9-45,32.8c0,0,45.7-1.8,66.5-38.3
		c20.8-36.5,37.9-40.1,37.9-40.1s13.1,5,22.9,2.4c1.4-0.4,2.6-1,3.8-1.9c1.4-1,3.9-2.5,6.5-2.4c0,0-11-6.2-15-3.5s-14.1-6.7-5.8-8.2
		s8.6-9.3,8.6-9.3s-5.4,5.3-10.6,2.3c-5.2-3.1-3-9.8,4.2-12S567.6,61.2,567.6,61.2z"/>
</g>
<g id="Palte_Helm">
	<path id="Helm" class="st35" d="M14.3,338.6v58.2c0,0-2.6,36.9,55.5,41.1c0,0,47.8-3.7,54.1-33.7l0.7-65.6c0,0-8.9-39.6-54.8-47.5
		C69.8,291.1,27.9,295.1,14.3,338.6z"/>
	<path id="Visor" class="st36" d="M109.9,351v13c0,0-40.8,38.9-79.7,0v-13C30.2,351,70,381.2,109.9,351z"/>
	<g id="Left">
		<circle id="holeMiddleLeft" cx="51.1" cy="402.3" r="3.9"/>
		<circle id="holeBottomLeft" cx="38.3" cy="411.9" r="3.9"/>
		<circle id="holeTopLeft" cx="38.3" cy="392.8" r="3.9"/>
	</g>
	<g id="Left_1_">
		<circle id="holeMiddleLeft_1_" cx="87.3" cy="402.3" r="3.9"/>
		<circle id="holeBottomLeft_1_" cx="100.1" cy="411.9" r="3.9"/>
		<circle id="holeTopLeft_1_" cx="100.1" cy="392.8" r="3.9"/>
	</g>
	<line id="bottomLineArt" class="st37" x1="69.8" y1="437.9" x2="69.8" y2="407"/>
	<line id="topLineart" class="st37" x1="69.8" y1="291.1" x2="69.8" y2="312.6"/>
</g>
</svg>
