<?xml version="1.0" encoding="utf-8"?>
<!-- Generator: Adobe Illustrator 23.0.1, SVG Export Plug-In . SVG Version: 6.00 Build 0)  -->
<svg version="1.1" id="daggers" xmlns="http://www.w3.org/2000/svg" xmlns:xlink="http://www.w3.org/1999/xlink" x="0px" y="0px"
	 viewBox="0 0 126.5 154.1" style="enable-background:new 0 0 126.5 154.1;" xml:space="preserve">
<style type="text/css">
	.st0{fill:#A3A3A3;stroke:#000000;stroke-width:3;stroke-miterlimit:10;}
	.st1{fill:#636768;stroke:#000000;stroke-width:3;stroke-miterlimit:10;}
</style>
<path id="Blade1" class="st0" d="M117.2,3.5l-61,61l-54,54l10.7,10.7l61.6-61.6C74.4,67.7,118.1,25.3,117.2,3.5z"/>
<rect id="Hilt1" x="47.8" y="74.3" transform="matrix(0.7071 -0.7071 0.7071 0.7071 -46.6602 62.2909)" class="st1" width="8.2" height="26.4"/>
<rect id="Handle1" x="18.7" y="78.6" transform="matrix(0.7071 0.7071 -0.7071 0.7071 82.0394 12.2504)" class="st1" width="15.2" height="53"/>
<path id="Blade2" class="st0" d="M124.9,44.3L72.7,96.6l-46.3,46.3l9.2,9.2l52.7-52.7C88.3,99.3,125.7,63,124.9,44.3z"/>
<rect id="Hilt2" x="65.5" y="104.9" transform="matrix(0.7071 -0.7071 0.7071 0.7071 -61.9737 82.8311)" class="st1" width="7" height="22.6"/>
<rect id="Handle2" x="40.6" y="108.7" transform="matrix(0.7071 0.7071 -0.7071 0.7071 106.6732 5.2048)" class="st1" width="13" height="45.4"/>
</svg>
