<?xml version="1.0" encoding="utf-8"?>
<!-- Generator: Adobe Illustrator 23.0.1, SVG Export Plug-In . SVG Version: 6.00 Build 0)  -->
<svg version="1.1" xmlns="http://www.w3.org/2000/svg" xmlns:xlink="http://www.w3.org/1999/xlink" x="0px" y="0px"
	 viewBox="0 0 126.5 154.1" style="enable-background:new 0 0 126.5 154.1;" xml:space="preserve">
<style type="text/css">
	.st0{fill:none;}
	.st1{fill:#DF4598;}
	.st2{fill:#FFFFFF;}
	.st3{display:none;}
	.st4{display:inline;fill:none;}
	.st5{display:inline;fill:#DF4598;}
	.st6{display:inline;fill:#FFFFFF;}
	.st7{display:inline;fill:#A3A3A3;stroke:#000000;stroke-width:3;stroke-miterlimit:10;}
	.st8{display:inline;fill:#8C361D;stroke:#000000;stroke-width:3;stroke-miterlimit:10;}
	.st9{display:inline;fill:#FFCD34;stroke:#000000;stroke-width:3;stroke-miterlimit:10;}
	.st10{display:inline;fill:#FFCD34;stroke:#000000;stroke-miterlimit:10;}
	.st11{display:inline;fill:#ED1C24;}
	.st12{display:inline;fill:none;stroke:#000000;stroke-width:2;stroke-miterlimit:10;}
	.st13{display:inline;fill:#A3A3A3;stroke:#000000;stroke-width:2;stroke-miterlimit:10;}
	.st14{fill:#636768;stroke:#000000;stroke-width:3;stroke-miterlimit:10;}
	.st15{fill:#898989;stroke:#000000;stroke-width:3;stroke-miterlimit:10;}
	.st16{fill:url(#Rod_1_);stroke:#000000;stroke-width:3;stroke-miterlimit:10;}
	.st17{fill:#F4D80E;stroke:#000000;stroke-width:3;stroke-miterlimit:10;}
	.st18{fill:#A3A3A3;stroke:#000000;stroke-width:3;stroke-miterlimit:10;}
	.st19{fill:#28BEEF;}
	.st20{fill:#92D7EA;}
	.st21{fill:none;stroke:#92D7EA;stroke-width:2;stroke-miterlimit:10;}
	.st22{fill:#CB2026;stroke:#EB2C24;stroke-width:3;stroke-miterlimit:10;}
	.st23{fill:#EB2C24;stroke:#EB2C24;stroke-width:3;stroke-miterlimit:10;}
	.st24{fill:#E8E62A;}
	.st25{fill:#8C361D;stroke:#000000;stroke-width:3;stroke-miterlimit:10;}
	.st26{fill:#FFCD34;stroke:#000000;stroke-width:3;stroke-miterlimit:10;}
	.st27{fill:#CB2026;stroke:#000000;stroke-width:2;stroke-miterlimit:10;}
	.st28{fill:#F7EC13;}
	.st29{fill:#FFCD34;stroke:#000000;stroke-miterlimit:10;}
	.st30{fill:#ED1C24;}
	.st31{display:inline;stroke:#000000;stroke-width:3;stroke-miterlimit:10;}
	.st32{display:inline;fill:#8C361D;stroke:#000000;stroke-width:2;stroke-miterlimit:10;}
	.st33{display:inline;fill:#ED1C24;stroke:#EF4136;stroke-width:2;stroke-miterlimit:10;}
	.st34{display:inline;fill:#F9ED32;}
	.st35{display:inline;fill:#006838;stroke:#8DC63F;stroke-width:2;stroke-miterlimit:10;}
	.st36{display:inline;fill:#A3A3A3;stroke:#000000;stroke-width:4;stroke-miterlimit:10;}
	.st37{display:inline;stroke:#000000;stroke-miterlimit:10;}
	.st38{display:inline;}
	.st39{display:inline;fill:none;stroke:#000000;stroke-miterlimit:10;}
</style>
<pattern  x="-70.9" y="-361.4" width="154" height="120.1" patternUnits="userSpaceOnUse" id="Unnamed_Pattern" viewBox="84.8 -209.8 154 120.1" style="overflow:visible;">
	<g>
		<rect x="84.8" y="-209.8" class="st0" width="154" height="120.1"/>
		<polygon class="st1" points="169.5,-21.4 148.3,0 0,-149.7 21.2,-171 		"/>
		<polygon class="st2" points="186.2,-38.2 165,-16.8 16.7,-166.5 37.8,-187.8 		"/>
		<polygon class="st2" points="223,-75.3 201.8,-54 53.5,-203.7 74.7,-225 		"/>
		<polygon class="st2" points="258.1,-110.7 236.9,-89.4 88.6,-239.1 109.7,-260.4 		"/>
		<polygon class="st2" points="286.5,-139.4 265.3,-118.1 117,-267.7 138.2,-289.1 		"/>
		<polygon class="st1" points="198.7,-60.8 177.5,-39.4 34.1,-184.1 55.3,-205.5 		"/>
		<polygon class="st1" points="237.2,-89.7 216,-68.3 67.7,-218 88.9,-239.4 		"/>
		<polygon class="st1" points="270.9,-123.7 249.7,-102.3 101.4,-252 122.6,-273.4 		"/>
		<polygon class="st1" points="303.7,-156.8 282.6,-135.5 134.2,-285.1 155.4,-306.5 		"/>
	</g>
</pattern>
<g id="Swatch" class="st3">
	<rect x="451.9" y="-231.3" class="st4" width="154" height="120.1"/>
	<polygon class="st5" points="536.6,-42.8 515.5,-21.5 367.1,-171.1 388.3,-192.5 	"/>
	<polygon class="st6" points="553.3,-59.6 532.1,-38.3 383.8,-187.9 404.9,-209.3 	"/>
	<polygon class="st6" points="590.1,-96.8 568.9,-75.4 420.6,-225.1 441.8,-246.5 	"/>
	<polygon class="st6" points="625.2,-132.2 604,-110.8 455.7,-260.5 476.9,-281.9 	"/>
	<polygon class="st6" points="653.6,-160.9 632.5,-139.5 484.1,-289.2 505.3,-310.6 	"/>
	<polygon class="st5" points="565.8,-82.2 544.6,-60.9 401.2,-205.6 422.4,-226.9 	"/>
	<polygon class="st5" points="604.3,-111.1 583.2,-89.8 434.8,-239.5 456,-260.8 	"/>
	<polygon class="st5" points="638,-145.2 616.9,-123.8 468.5,-273.5 489.7,-294.8 	"/>
	<polygon class="st5" points="670.9,-178.3 649.7,-156.9 501.4,-306.6 522.5,-328 	"/>
</g>
<g id="Sword_Icon" class="st3">
	<polygon id="Blade" class="st7" points="216.2,-291.8 174.3,-281.6 85.6,-183 107.4,-161.2 206,-251.3 	"/>
	<path id="Handle" class="st8" d="M70.9-166.3l19.5,19.5l-36.7,36.7c-2.3,2.3-6,2.3-8.3,0l-11.3-11.3c-2.3-2.3-2.3-6,0-8.3
		L70.9-166.3z"/>
	<path id="Pommel" class="st9" d="M55.8-112.1c0,0-3.6,17.6-17.6,17.6c-11.8,1-20-12.2-20-20c0.8-12.5,18.1-17.1,18.1-17.1
		L55.8-112.1z"/>
	<path id="Hilt" class="st8" d="M69-215.4c1.6-2.8,5.8-1.7,5.9,1.5c0.2,9.8,4.3,24.4,21.3,41.4c18.7,18.7,34.9,22,44.7,21.7
		c2.6-0.1,3.6,3.2,1.5,4.6c-13.2,8.3-39.3,18.6-64.8-6.9C53.5-177.1,61.1-201.6,69-215.4z"/>
	<circle id="Bezzel" class="st10" cx="87.2" cy="-163.5" r="6.5"/>
	<circle id="Gem" class="st11" cx="87.2" cy="-163.5" r="3.4"/>
	<polyline id="Sword_Edge" class="st12" points="206,-251.3 184.2,-260.5 174.3,-281.6 	"/>
	<line id="Sword_Edge_2" class="st13" x1="184.2" y1="-260.5" x2="96.2" y2="-172.4"/>
</g>
<g id="Shield_Icon">
	<path id="outerRim" class="st14" d="M329.4-284.4l-68.6,41c0,0-17,99.8,68.6,147.4c0,0,80.5-36.5,68.7-147.4L329.4-284.4z"/>
	<path id="innerRim" class="st15" d="M329.4-266.6l-57.3,34.2c0,0-14.2,83.4,57.3,123.1c0,0,67.3-30.5,57.4-123.1L329.4-266.6z"/>
</g>
<g id="Wand_Icon">
	
		<pattern  id="Rod_1_" xlink:href="#Unnamed_Pattern" patternTransform="matrix(0.7071 0.7071 -0.7071 0.7071 -7504.6387 3288.0579)">
	</pattern>
	<path id="Rod" class="st16" d="M447.5-115.5l-4.6-4.6c-2.7-2.7-2.7-7,0.1-9.7l83.4-77.9l11.6,11.6l-80.8,80.5
		C454.6-112.8,450.2-112.8,447.5-115.5z"/>
	<polygon id="Star" class="st17" points="577.8,-246.8 562.7,-217 586.4,-193.4 553.3,-198.5 538.2,-168.7 532.9,-201.7 
		499.8,-206.9 529.6,-222.1 524.3,-255.2 548,-231.6 	"/>
</g>
<g id="Dagger_Icon">
	<path id="Blade1" class="st18" d="M117.2,3.5l-61,61l-54,54l10.7,10.7l61.6-61.6C74.4,67.7,118.1,25.3,117.2,3.5z"/>
	
		<rect id="Hilt1" x="47.8" y="74.3" transform="matrix(0.7071 -0.7071 0.7071 0.7071 -46.6602 62.2909)" class="st14" width="8.2" height="26.4"/>
	
		<rect id="Handle1" x="18.7" y="78.6" transform="matrix(0.7071 0.7071 -0.7071 0.7071 82.0394 12.2504)" class="st14" width="15.2" height="53"/>
	<path id="Blade2" class="st18" d="M124.9,44.3L72.7,96.6l-46.3,46.3l9.2,9.2l52.7-52.7C88.3,99.3,125.7,63,124.9,44.3z"/>
	
		<rect id="Hilt2" x="65.5" y="104.9" transform="matrix(0.7071 -0.7071 0.7071 0.7071 -61.9737 82.8311)" class="st14" width="7" height="22.6"/>
	
		<rect id="Handle2" x="40.6" y="108.7" transform="matrix(0.7071 0.7071 -0.7071 0.7071 106.6732 5.2048)" class="st14" width="13" height="45.4"/>
</g>
<g id="Two_Spells_Icon">
	<path id="iceInnerColour" class="st19" d="M231.5,41.7c0,0-9.6-22.2,14.4-14.4c13.6,4.4,24.8,6.5,32.1,7.6c5.1,0.7,9.4,4.2,11.2,9
		c2,5.4,5.4,12.5,10.6,17.7c9.8,9.8,11.4,32.6,11.4,32.6s4.3,12.2,15.6,19c11.3,6.8,1.3,10.9,1.3,10.9s-13.4,0.9-23.2-9.2
		c-9.8-10-26.3-9.8-26.3-9.8s-12.5-4.7-17.8-17.8c-3.3-8.2-11.2-13.5-16.6-16.3c-3.6-1.8-6.3-5.1-7.3-9L231.5,41.7z"/>
	<g id="lineArt">
		<g>
			<g>
				<path class="st19" d="M237.7,56.2c7.1,1.4,14.4,2,21.2,4.3c6.8,2.4,13.4,6.9,15.9,13.7c1,2.8,1.3,5.8,2.3,8.5
					c2.6,6.8,9.5,11,16.4,13.6"/>
				<g>
					<path class="st19" d="M237,58.6c12.3,2.4,30.8,2.9,35.6,17.2c1.9,5.5,2.4,10.4,6.6,14.8c3.7,3.9,8.6,6.3,13.6,8.3
						c3,1.2,4.3-3.6,1.3-4.8c-6.5-2.6-13-6.4-15.2-13.5c-1.7-5.5-2.5-10.2-6.6-14.5c-8.8-9.2-22.2-9.9-34-12.1
						C235.2,53.2,233.8,58,237,58.6L237,58.6z"/>
				</g>
			</g>
			<g>
				<path class="st19" d="M281.3,76.1c7.1,5.1,14.4,10,21.8,14.6c2.7,1.7,5.5,3.3,7.9,5.5"/>
				<g>
					<path class="st19" d="M280,78.2c4.8,3.5,9.7,6.8,14.7,10c4.8,3.1,10.1,5.9,14.5,9.6c2.4,2.1,6-1.5,3.5-3.5
						c-9.2-7.8-20.4-13.4-30.2-20.4C279.9,72,277.4,76.4,280,78.2L280,78.2z"/>
				</g>
			</g>
			<g>
				<path class="st19" d="M296.8,102.7c-0.2,1.8,0.4,3.7,1.5,5.1"/>
				<g>
					<path class="st19" d="M294.3,102.7c-0.2,2.2,0.5,4.5,1.8,6.3c0.8,1.1,2.2,1.6,3.4,0.9c1.1-0.6,1.7-2.3,0.9-3.4
						c-0.9-1.2-1.3-2.3-1.2-3.8c0.1-1.3-1.2-2.5-2.5-2.5C295.4,100.2,294.4,101.3,294.3,102.7L294.3,102.7z"/>
				</g>
			</g>
			<g>
				<path class="st19" d="M244.5,37.1c3.1,2.9,6.2,5.8,9.9,8s7.8,3.7,12.1,3.3c3.7-0.3,7.1-1.9,10.3-3.6"/>
				<g>
					<path class="st19" d="M242.8,38.9c5.1,4.8,10.6,9.8,17.5,11.5c6.4,1.6,12.1-0.3,17.8-3.4c2.8-1.5,0.3-5.8-2.5-4.3
						c-4.9,2.7-9.9,4.4-15.4,2.4c-5.4-1.9-9.7-5.9-13.8-9.8C244,33.1,240.4,36.6,242.8,38.9L242.8,38.9z"/>
				</g>
			</g>
		</g>
		<g>
			<g>
				<g>
					<path class="st20" d="M237,58.6c12.3,2.4,30.8,2.9,35.6,17.2c1.9,5.5,2.4,10.4,6.6,14.8c3.7,3.9,8.6,6.3,13.6,8.3
						c3,1.2,4.3-3.6,1.3-4.8c-6.5-2.6-13-6.4-15.2-13.5c-1.7-5.5-2.5-10.2-6.6-14.5c-8.8-9.2-22.2-9.9-34-12.1
						C235.2,53.2,233.8,58,237,58.6L237,58.6z"/>
				</g>
			</g>
			<g>
				<g>
					<path class="st20" d="M280,78.2c4.8,3.5,9.7,6.8,14.7,10c4.8,3.1,10.1,5.9,14.5,9.6c2.4,2.1,6-1.5,3.5-3.5
						c-9.2-7.8-20.4-13.4-30.2-20.4C279.9,72,277.4,76.4,280,78.2L280,78.2z"/>
				</g>
			</g>
			<g>
				<g>
					<path class="st20" d="M294.3,102.7c-0.2,2.2,0.5,4.5,1.8,6.3c0.8,1.1,2.2,1.6,3.4,0.9c1.1-0.6,1.7-2.3,0.9-3.4
						c-0.9-1.2-1.3-2.3-1.2-3.8c0.1-1.3-1.2-2.5-2.5-2.5C295.4,100.2,294.4,101.3,294.3,102.7L294.3,102.7z"/>
				</g>
			</g>
			<g>
				<g>
					<path class="st20" d="M242.8,38.9c5.1,4.8,10.6,9.8,17.5,11.5c6.4,1.6,12.1-0.3,17.8-3.4c2.8-1.5,0.3-5.8-2.5-4.3
						c-4.9,2.7-9.9,4.4-15.4,2.4c-5.4-1.9-9.7-5.9-13.8-9.8C244,33.1,240.4,36.6,242.8,38.9L242.8,38.9z"/>
				</g>
			</g>
		</g>
	</g>
	<path id="iceLineArt_1_" class="st21" d="M231.5,41.7c0,0-9.6-22.2,14.4-14.4c13.6,4.4,24.8,6.5,32.1,7.6c5.1,0.7,9.4,4.2,11.2,9
		c2,5.4,5.4,12.5,10.6,17.7c9.8,9.8,11.4,32.6,11.4,32.6s4.3,12.2,15.6,19c11.3,6.8,1.3,10.9,1.3,10.9s-13.4,0.9-23.2-9.2
		c-9.8-10-26.3-9.8-26.3-9.8s-12.5-4.7-17.8-17.8c-3.3-8.2-11.2-13.5-16.6-16.3c-3.6-1.8-6.3-5.1-7.3-9L231.5,41.7z"/>
	<path id="outFlame" class="st22" d="M334.8,117.5c0,0,26.1-3.4,26.1-26.1c0,0,0-11,11.5-22.3c11.4-11.3,6-25.1,6-25.1
		s-6,16.2-12,11.4c-6-4.8,1.8-25.9,9.3-31.9c7.5-6-0.3-27.7-4.5-34.9c0,0-1.8,31.3-19.2,45.1s-13.5-21.1,5.3-27.4
		c0,0-55.2,7.3-48.6,85C308.6,91.4,308.6,114.7,334.8,117.5z"/>
	<circle id="fireBall" class="st23" cx="334.5" cy="91.8" r="24"/>
	<circle id="innFlame" class="st24" cx="339.9" cy="100.7" r="17.1"/>
</g>
<g id="Spell__x26__Sword_Icon">
	<path id="Handle_1_" class="st25" d="M467.9,75l19.5,19.5l-36.7,36.7c-2.3,2.3-6,2.3-8.3,0L431.2,120c-2.3-2.3-2.3-6,0-8.3
		L467.9,75z"/>
	<path id="Pommel_1_" class="st26" d="M452.8,129.3c0,0-3.6,17.6-17.6,17.6c-11.8,1-20-12.2-20-20c0.8-12.5,18.1-17.1,18.1-17.1
		L452.8,129.3z"/>
	<path id="mainFlame" class="st27" d="M505.3,89.4c0,0,8.9-9.2,10.3-14.9c1-4.5,11.9-8.9,16.3-10.5c1.4-0.5,2.7-1.3,3.9-2.4
		c3.2-3,9.6-9.6,12.1-17.9c3.4-11.2,27.9-18.9,27.9-18.9s25.7-5.6,30.3-18.8s13-52.9-19-76.6c0,0,12,27.2-0.7,30.1
		c-12.7,2.9-15.1-12.3-15.1-12.3s-6.4,14.6,0,22.5s-28.1,10.5-23.4-21.2c0,0-23.2,21.1-9.9,43.6c13.3,22.5-16.5,12.6-16.5,12.6
		s-23.8-9.9-5.9-50.2c0,0-38.6,58-2.5,79.9c0,0,9.4,16.4-12,11.5c-2-0.5-4.2-0.1-6,1c-3,1.9-7.6,3.5-8.5-4.7
		c-0.9-8.6-16.4,10.1-8.9,20.6C485.2,73.5,505.3,89.4,505.3,89.4z"/>
	<path id="flameAdditive" class="st28" d="M602.9-15.4c1.3,2.1,1.7,4.6,1.5,7c-0.9,7.7-2.1,27.3-31.4,30
		c-13.1,1.2-26.9,12.3-30.4,22.8c0,0-0.8,13.4-22.4,20.9c0,0-9.9,6.3-11.7,16.2c-1.5,7.9-22.2-13.3-22.2-13.3s35.7-8.3,37-16.8
		s11.6-34.4,37-43.6s30.1-19.5,30.1-19.5S597.9-23.4,602.9-15.4z"/>
	<path id="Hilt_1_" class="st25" d="M466,26c1.6-2.8,5.8-1.7,5.9,1.5c0.2,9.8,4.3,24.4,21.3,41.4c18.7,18.7,34.9,22,44.7,21.7
		c2.6-0.1,3.6,3.2,1.5,4.6c-13.2,8.3-39.3,18.6-64.8-6.9C450.5,64.3,458.1,39.8,466,26z"/>
	<circle id="Bezzel_1_" class="st29" cx="484.2" cy="77.9" r="6.5"/>
	<circle id="Gem_1_" class="st30" cx="484.2" cy="77.9" r="3.4"/>
</g>
<g id="Bow" class="st3">
	<path id="lowerBow" class="st8" d="M-4.2-300.3c0,0,24.1,31.4,54.9,20.1s57.7,46.9,57.7,46.9l9.9-6.2c0,0-31.9-70.6-73.8-53.8
		C44.5-293.3,29.6-282.3-4.2-300.3z"/>
	<path id="upperBow" class="st8" d="M106.8-105.8c0,0-14.5-36.9,11.1-57.4s-10.3-71.4-10.3-71.4l10.4-7.5c0,0,44,63.8,8,91
		C125.9-151.1,108.8-144.1,106.8-105.8z"/>
	
		<rect id="grip" x="108.3" y="-251.2" transform="matrix(0.8576 -0.5143 0.5143 0.8576 136.56 26.1117)" class="st31" width="14.2" height="35.3"/>
	<line id="bowString" class="st32" x1="-0.7" y1="-298.7" x2="107.6" y2="-111"/>
	<polygon id="arrowShaft" class="st31" points="50.8,-211 48.9,-214.3 164.8,-284 166.7,-280.7 	"/>
	<path id="Arrow_Head" class="st13" d="M155.9-283.8c2.8,0.4,9,2.4,6.1,11c-0.1,0.3,0.3,0.4,0.5,0.2l18.2-18.7l-24.7,7.1
		C155.7-284.2,155.6-283.8,155.9-283.8z"/>
	<polygon id="featherLower" class="st31" points="50.8,-211 44.6,-201.7 69.7,-216.8 73.1,-224.4 	"/>
	<polygon id="featherUpper" class="st31" points="47.3,-214.6 36.3,-213.5 61.4,-228.6 69.5,-227.9 	"/>
</g>
<g id="Spell_Bow" class="st3">
	<path id="lowerBow_1_" class="st8" d="M215.6-303.8c0,0,24.1,31.4,54.9,20.1s57.7,46.9,57.7,46.9l9.9-6.2c0,0-31.9-70.6-73.8-53.8
		C264.3-296.8,249.5-285.8,215.6-303.8z"/>
	<path id="upperBow_1_" class="st8" d="M326.6-109.3c0,0-14.5-36.9,11.1-57.4c25.6-20.5-10.3-71.4-10.3-71.4l10.4-7.5
		c0,0,44,63.8,8,91C345.8-154.6,328.7-147.6,326.6-109.3z"/>
	
		<rect id="grip_1_" x="328.2" y="-254.7" transform="matrix(0.8576 -0.5143 0.5143 0.8576 169.6625 138.6781)" class="st31" width="14.2" height="35.3"/>
	<line id="bowString_1_" class="st32" x1="219.2" y1="-302.2" x2="327.5" y2="-114.5"/>
	<polygon id="arrowShaft_1_" class="st31" points="270.7,-214.5 268.8,-217.8 384.7,-287.5 386.5,-284.2 	"/>
	<polygon id="featherLower_1_" class="st31" points="270.7,-214.5 264.4,-205.2 289.5,-220.3 292.9,-227.9 	"/>
	<polygon id="featherUpper_1_" class="st31" points="267.1,-218.1 256.1,-217.1 281.3,-232.2 289.4,-231.4 	"/>
	<circle id="fireOrb" class="st33" cx="389.6" cy="-288.9" r="8.8"/>
	<circle id="orbGlow" class="st34" cx="395.2" cy="-287.5" r="3.8"/>
</g>
<g id="Evil_Staff" class="st3">
	<circle class="st35" cx="556.9" cy="-220.1" r="18.2"/>
	<circle class="st35" cx="568.4" cy="-218.1" r="5.2"/>
	<path class="st32" d="M558-243.7c0,0-5.9,3.7-10.4,3.6c-4.4-0.1-15.4,5.8-16.7,16c-1.3,10.2,3.5,11.2-14.2,23.7
		c-0.9,0.6-1.8,1.3-2.7,2c-1.5,1.3-3.1,2.6-4.6,4.1c-15.3,14.7-29.7,39.2-30.4,40c-0.9,0.9-20.4,27.9-45,32.8
		c0,0,45.7-1.8,66.5-38.3s37.9-40.1,37.9-40.1s13.1,5,22.9,2.4c1.4-0.4,2.6-1,3.8-1.9c1.4-1,3.9-2.5,6.5-2.4c0,0-11-6.2-15-3.5
		s-14.1-6.7-5.8-8.2c8.3-1.5,8.6-9.3,8.6-9.3s-5.4,5.3-10.6,2.3c-5.2-3.1-3-9.8,4.2-12C560-234.7,558-243.7,558-243.7z"/>
</g>
<g id="Palte_Helm" class="st3">
	<path id="Helm" class="st36" d="M4.7,33.7V92c0,0-2.6,36.9,55.5,41.1c0,0,47.8-3.7,54.1-33.7l0.7-65.6c0,0-8.9-39.6-54.8-47.5
		C60.2-13.7,18.3-9.8,4.7,33.7z"/>
	<path id="Visor" class="st37" d="M100.3,46.1v13c0,0-40.8,38.9-79.7,0v-13C20.6,46.1,60.4,76.4,100.3,46.1z"/>
	<g id="Left" class="st38">
		<circle id="holeMiddleLeft" cx="41.5" cy="97.5" r="3.9"/>
		<circle id="holeBottomLeft" cx="28.7" cy="107" r="3.9"/>
		<circle id="holeTopLeft" cx="28.7" cy="87.9" r="3.9"/>
	</g>
	<g id="Left_1_" class="st38">
		<circle id="holeMiddleLeft_1_" cx="77.7" cy="97.5" r="3.9"/>
		<circle id="holeBottomLeft_1_" cx="90.5" cy="107" r="3.9"/>
		<circle id="holeTopLeft_1_" cx="90.5" cy="87.9" r="3.9"/>
	</g>
	<line id="bottomLineArt" class="st39" x1="60.2" y1="133" x2="60.2" y2="102.2"/>
	<line id="topLineart" class="st39" x1="60.2" y1="-13.7" x2="60.2" y2="7.8"/>
</g>
</svg>
