<?xml version="1.0" encoding="utf-8"?>
<!-- Generator: Adobe Illustrator 23.0.1, SVG Export Plug-In . SVG Version: 6.00 Build 0)  -->
<svg version="1.1" xmlns="http://www.w3.org/2000/svg" xmlns:xlink="http://www.w3.org/1999/xlink" x="0px" y="0px"
	 viewBox="0 0 142.3 124.8" style="enable-background:new 0 0 142.3 124.8;" xml:space="preserve">
<style type="text/css">
	.st0{fill:none;}
	.st1{fill:#DF4598;}
	.st2{fill:#FFFFFF;}
	.st3{display:none;}
	.st4{display:inline;fill:none;}
	.st5{display:inline;fill:#DF4598;}
	.st6{display:inline;fill:#FFFFFF;}
	.st7{display:inline;fill:#A3A3A3;stroke:#000000;stroke-width:3;stroke-miterlimit:10;}
	.st8{display:inline;fill:#8C361D;stroke:#000000;stroke-width:3;stroke-miterlimit:10;}
	.st9{display:inline;fill:#FFCD34;stroke:#000000;stroke-width:3;stroke-miterlimit:10;}
	.st10{display:inline;fill:#FFCD34;stroke:#000000;stroke-miterlimit:10;}
	.st11{display:inline;fill:#ED1C24;}
	.st12{display:inline;fill:none;stroke:#000000;stroke-width:2;stroke-miterlimit:10;}
	.st13{display:inline;fill:#A3A3A3;stroke:#000000;stroke-width:2;stroke-miterlimit:10;}
	.st14{display:inline;fill:#636768;stroke:#000000;stroke-width:3;stroke-miterlimit:10;}
	.st15{display:inline;fill:#898989;stroke:#000000;stroke-width:3;stroke-miterlimit:10;}
	.st16{display:inline;fill:url(#Rod_1_);stroke:#000000;stroke-width:3;stroke-miterlimit:10;}
	.st17{display:inline;fill:#F4D80E;stroke:#000000;stroke-width:3;stroke-miterlimit:10;}
	.st18{display:inline;fill:#28BEEF;}
	.st19{display:inline;}
	.st20{fill:#28BEEF;}
	.st21{fill:#92D7EA;}
	.st22{display:inline;fill:none;stroke:#92D7EA;stroke-width:2;stroke-miterlimit:10;}
	.st23{display:inline;fill:#CB2026;stroke:#EB2C24;stroke-width:3;stroke-miterlimit:10;}
	.st24{display:inline;fill:#EB2C24;stroke:#EB2C24;stroke-width:3;stroke-miterlimit:10;}
	.st25{display:inline;fill:#E8E62A;}
	.st26{display:inline;fill:#CB2026;stroke:#000000;stroke-width:2;stroke-miterlimit:10;}
	.st27{display:inline;fill:#F7EC13;}
	.st28{fill:#8C361D;stroke:#000000;stroke-width:3;stroke-miterlimit:10;}
	.st29{stroke:#000000;stroke-width:3;stroke-miterlimit:10;}
	.st30{fill:#8C361D;stroke:#000000;stroke-width:2;stroke-miterlimit:10;}
	.st31{fill:#A3A3A3;stroke:#000000;stroke-width:2;stroke-miterlimit:10;}
	.st32{fill:#ED1C24;stroke:#EF4136;stroke-width:2;stroke-miterlimit:10;}
	.st33{fill:#F9ED32;}
	.st34{fill:#006838;stroke:#8DC63F;stroke-width:2;stroke-miterlimit:10;}
	.st35{fill:#A3A3A3;stroke:#000000;stroke-width:4;stroke-miterlimit:10;}
	.st36{stroke:#000000;stroke-miterlimit:10;}
	.st37{fill:none;stroke:#000000;stroke-miterlimit:10;}
</style>
<pattern  x="-504.6" y="-116.1" width="154" height="120.1" patternUnits="userSpaceOnUse" id="Unnamed_Pattern" viewBox="84.8 -209.8 154 120.1" style="overflow:visible;">
	<g>
		<rect x="84.8" y="-209.8" class="st0" width="154" height="120.1"/>
		<polygon class="st1" points="169.5,-21.4 148.3,0 0,-149.7 21.2,-171 		"/>
		<polygon class="st2" points="186.2,-38.2 165,-16.8 16.7,-166.5 37.8,-187.8 		"/>
		<polygon class="st2" points="223,-75.3 201.8,-54 53.5,-203.7 74.7,-225 		"/>
		<polygon class="st2" points="258.1,-110.7 236.9,-89.4 88.6,-239.1 109.7,-260.4 		"/>
		<polygon class="st2" points="286.5,-139.4 265.3,-118.1 117,-267.7 138.2,-289.1 		"/>
		<polygon class="st1" points="198.7,-60.8 177.5,-39.4 34.1,-184.1 55.3,-205.5 		"/>
		<polygon class="st1" points="237.2,-89.7 216,-68.3 67.7,-218 88.9,-239.4 		"/>
		<polygon class="st1" points="270.9,-123.7 249.7,-102.3 101.4,-252 122.6,-273.4 		"/>
		<polygon class="st1" points="303.7,-156.8 282.6,-135.5 134.2,-285.1 155.4,-306.5 		"/>
	</g>
</pattern>
<g id="Swatch" class="st3">
	<rect x="18.1" y="14" class="st4" width="154" height="120.1"/>
	<polygon class="st5" points="102.9,202.5 81.7,223.8 -66.7,74.2 -45.5,52.8 	"/>
	<polygon class="st6" points="119.5,185.7 98.3,207 -50,57.4 -28.8,36 	"/>
	<polygon class="st6" points="156.3,148.5 135.2,169.9 -13.2,20.2 8,-1.2 	"/>
	<polygon class="st6" points="191.4,113.1 170.3,134.5 21.9,-15.2 43.1,-36.6 	"/>
	<polygon class="st6" points="219.9,84.4 198.7,105.8 50.4,-43.9 71.5,-65.3 	"/>
	<polygon class="st5" points="132,163.1 110.9,184.4 -32.5,39.7 -11.4,18.4 	"/>
	<polygon class="st5" points="170.6,134.2 149.4,155.5 1.1,5.8 22.2,-15.5 	"/>
	<polygon class="st5" points="204.3,100.2 183.1,121.5 34.8,-28.2 55.9,-49.5 	"/>
	<polygon class="st5" points="237.1,67 215.9,88.4 67.6,-61.3 88.8,-82.7 	"/>
</g>
<g id="Sword_Icon" class="st3">
	<polygon id="Blade" class="st7" points="-217.5,-46.5 -259.4,-36.3 -348.2,62.3 -326.3,84.1 -227.8,-6 	"/>
	<path id="Handle" class="st8" d="M-362.8,79l19.5,19.5l-36.7,36.7c-2.3,2.3-6,2.3-8.3,0l-11.3-11.3c-2.3-2.3-2.3-6,0-8.3L-362.8,79
		z"/>
	<path id="Pommel" class="st9" d="M-378,133.2c0,0-3.6,17.6-17.6,17.6c-11.8,1-20-12.2-20-20c0.8-12.5,18.1-17.1,18.1-17.1
		L-378,133.2z"/>
	<path id="Hilt" class="st8" d="M-364.7,30c1.6-2.8,5.8-1.7,5.9,1.5c0.2,9.8,4.3,24.4,21.3,41.4c18.7,18.7,34.9,22,44.7,21.7
		c2.6-0.1,3.6,3.2,1.5,4.6c-13.2,8.3-39.3,18.6-64.8-6.9C-380.3,68.2-372.6,43.8-364.7,30z"/>
	<circle id="Bezzel" class="st10" cx="-346.5" cy="81.8" r="6.5"/>
	<circle id="Gem" class="st11" cx="-346.5" cy="81.8" r="3.4"/>
	<polyline id="Sword_Edge" class="st12" points="-227.8,-6 -249.6,-15.1 -259.4,-36.3 	"/>
	<line id="Sword_Edge_2" class="st13" x1="-249.6" y1="-15.1" x2="-337.6" y2="72.9"/>
</g>
<g id="Shield_Icon" class="st3">
	<path id="outerRim" class="st14" d="M-104.4-39.1l-68.6,41c0,0-17,99.8,68.6,147.4c0,0,80.5-36.5,68.7-147.4L-104.4-39.1z"/>
	<path id="innerRim" class="st15" d="M-104.4-21.3L-161.7,13c0,0-14.2,83.4,57.3,123.1c0,0,67.3-30.5,57.4-123.1L-104.4-21.3z"/>
</g>
<g id="Wand_Icon" class="st3">
	
		<pattern  id="Rod_1_" xlink:href="#Unnamed_Pattern" patternTransform="matrix(0.7071 0.7071 -0.7071 0.7071 -7571.7593 2900.9136)">
	</pattern>
	<path id="Rod" class="st16" d="M13.7,129.8l-4.6-4.6c-2.7-2.7-2.7-7,0.1-9.7l83.4-77.9l11.6,11.6l-80.8,80.5
		C20.8,132.5,16.4,132.5,13.7,129.8z"/>
	<polygon id="Star" class="st17" points="144.1,-1.5 128.9,28.3 152.7,52 119.6,46.8 104.4,76.6 99.1,43.6 66,38.4 95.8,23.2 
		90.5,-9.9 114.3,13.7 	"/>
</g>
<g id="Dagger_Icon" class="st3">
	<path id="Blade1" class="st7" d="M-316.6,248.8l-61,61l-54,54l10.7,10.7l61.6-61.6C-359.3,313-315.7,270.6-316.6,248.8z"/>
	
		<rect id="Hilt1" x="-386" y="319.6" transform="matrix(0.7071 -0.7071 0.7071 0.7071 -347.1644 -172.5783)" class="st14" width="8.2" height="26.4"/>
	
		<rect id="Handle1" x="-415.1" y="323.9" transform="matrix(0.7071 0.7071 -0.7071 0.7071 128.4504 390.8165)" class="st14" width="15.2" height="53"/>
	<path id="Blade2" class="st7" d="M-308.8,289.6l-52.3,52.3l-46.3,46.3l9.2,9.2l52.7-52.7C-345.4,344.6-308,308.3-308.8,289.6z"/>
	
		<rect id="Hilt2" x="-368.3" y="350.2" transform="matrix(0.7071 -0.7071 0.7071 0.7071 -362.4778 -152.038)" class="st14" width="7" height="22.6"/>
	
		<rect id="Handle2" x="-393.2" y="354" transform="matrix(0.7071 0.7071 -0.7071 0.7071 153.0842 383.7709)" class="st14" width="13" height="45.4"/>
</g>
<g id="Two_Spells_Icon" class="st3">
	<path id="iceInnerColour" class="st18" d="M-202.2,287c0,0-9.6-22.2,14.4-14.4c13.6,4.4,24.8,6.5,32.1,7.6c5.1,0.7,9.4,4.2,11.2,9
		c2,5.4,5.4,12.5,10.6,17.7c9.8,9.8,11.4,32.6,11.4,32.6s4.3,12.2,15.6,19s1.3,10.9,1.3,10.9s-13.4,0.9-23.2-9.2
		c-9.8-10-26.3-9.8-26.3-9.8s-12.5-4.7-17.8-17.8c-3.3-8.2-11.2-13.5-16.6-16.3c-3.6-1.8-6.3-5.1-7.3-9L-202.2,287z"/>
	<g id="lineArt" class="st19">
		<g>
			<g>
				<path class="st20" d="M-196.1,301.5c7.1,1.4,14.4,2,21.2,4.3s13.4,6.9,15.9,13.7c1,2.8,1.3,5.8,2.3,8.5
					c2.6,6.8,9.5,11,16.4,13.6"/>
				<g>
					<path class="st20" d="M-196.8,304c12.3,2.4,30.8,2.9,35.6,17.2c1.9,5.5,2.4,10.4,6.6,14.8c3.7,3.9,8.6,6.3,13.6,8.3
						c3,1.2,4.3-3.6,1.3-4.8c-6.5-2.6-13-6.4-15.2-13.5c-1.7-5.5-2.5-10.2-6.6-14.5c-8.8-9.2-22.2-9.9-34-12.1
						C-198.6,298.5-199.9,303.3-196.8,304L-196.8,304z"/>
				</g>
			</g>
			<g>
				<path class="st20" d="M-152.5,321.4c7.1,5.1,14.4,10,21.8,14.6c2.7,1.7,5.5,3.3,7.9,5.5"/>
				<g>
					<path class="st20" d="M-153.7,323.5c4.8,3.5,9.7,6.8,14.7,10c4.8,3.1,10.1,5.9,14.5,9.6c2.4,2.1,6-1.5,3.5-3.5
						c-9.2-7.8-20.4-13.4-30.2-20.4C-153.8,317.3-156.3,321.7-153.7,323.5L-153.7,323.5z"/>
				</g>
			</g>
			<g>
				<path class="st20" d="M-137,348c-0.2,1.8,0.4,3.7,1.5,5.1"/>
				<g>
					<path class="st20" d="M-139.5,348c-0.2,2.2,0.5,4.5,1.8,6.3c0.8,1.1,2.2,1.6,3.4,0.9c1.1-0.6,1.7-2.3,0.9-3.4
						c-0.9-1.2-1.3-2.3-1.2-3.8c0.1-1.3-1.2-2.5-2.5-2.5C-138.4,345.5-139.4,346.6-139.5,348L-139.5,348z"/>
				</g>
			</g>
			<g>
				<path class="st20" d="M-189.2,282.4c3.1,2.9,6.2,5.8,9.9,8c3.6,2.2,7.8,3.7,12.1,3.3c3.7-0.3,7.1-1.9,10.3-3.6"/>
				<g>
					<path class="st20" d="M-191,284.2c5.1,4.8,10.6,9.8,17.5,11.5c6.4,1.6,12.1-0.3,17.8-3.4c2.8-1.5,0.3-5.8-2.5-4.3
						c-4.9,2.7-9.9,4.4-15.4,2.4c-5.4-1.9-9.7-5.9-13.8-9.8C-189.8,278.4-193.3,282-191,284.2L-191,284.2z"/>
				</g>
			</g>
		</g>
		<g>
			<g>
				<g>
					<path class="st21" d="M-196.8,304c12.3,2.4,30.8,2.9,35.6,17.2c1.9,5.5,2.4,10.4,6.6,14.8c3.7,3.9,8.6,6.3,13.6,8.3
						c3,1.2,4.3-3.6,1.3-4.8c-6.5-2.6-13-6.4-15.2-13.5c-1.7-5.5-2.5-10.2-6.6-14.5c-8.8-9.2-22.2-9.9-34-12.1
						C-198.6,298.5-199.9,303.3-196.8,304L-196.8,304z"/>
				</g>
			</g>
			<g>
				<g>
					<path class="st21" d="M-153.7,323.5c4.8,3.5,9.7,6.8,14.7,10c4.8,3.1,10.1,5.9,14.5,9.6c2.4,2.1,6-1.5,3.5-3.5
						c-9.2-7.8-20.4-13.4-30.2-20.4C-153.8,317.3-156.3,321.7-153.7,323.5L-153.7,323.5z"/>
				</g>
			</g>
			<g>
				<g>
					<path class="st21" d="M-139.5,348c-0.2,2.2,0.5,4.5,1.8,6.3c0.8,1.1,2.2,1.6,3.4,0.9c1.1-0.6,1.7-2.3,0.9-3.4
						c-0.9-1.2-1.3-2.3-1.2-3.8c0.1-1.3-1.2-2.5-2.5-2.5C-138.4,345.5-139.4,346.6-139.5,348L-139.5,348z"/>
				</g>
			</g>
			<g>
				<g>
					<path class="st21" d="M-191,284.2c5.1,4.8,10.6,9.8,17.5,11.5c6.4,1.6,12.1-0.3,17.8-3.4c2.8-1.5,0.3-5.8-2.5-4.3
						c-4.9,2.7-9.9,4.4-15.4,2.4c-5.4-1.9-9.7-5.9-13.8-9.8C-189.8,278.4-193.3,282-191,284.2L-191,284.2z"/>
				</g>
			</g>
		</g>
	</g>
	<path id="iceLineArt_1_" class="st22" d="M-202.2,287c0,0-9.6-22.2,14.4-14.4c13.6,4.4,24.8,6.5,32.1,7.6c5.1,0.7,9.4,4.2,11.2,9
		c2,5.4,5.4,12.5,10.6,17.7c9.8,9.8,11.4,32.6,11.4,32.6s4.3,12.2,15.6,19s1.3,10.9,1.3,10.9s-13.4,0.9-23.2-9.2
		c-9.8-10-26.3-9.8-26.3-9.8s-12.5-4.7-17.8-17.8c-3.3-8.2-11.2-13.5-16.6-16.3c-3.6-1.8-6.3-5.1-7.3-9L-202.2,287z"/>
	<path id="outFlame" class="st23" d="M-99,362.8c0,0,26.1-3.4,26.1-26.1c0,0,0-11,11.5-22.3s6-25.1,6-25.1s-6,16.2-12,11.4
		s1.8-25.9,9.3-31.9c7.5-6-0.3-27.7-4.5-34.9c0,0-1.8,31.3-19.2,45.1c-17.4,13.8-13.5-21.1,5.3-27.4c0,0-55.2,7.3-48.6,85
		C-125.1,336.7-125.2,360-99,362.8z"/>
	<circle id="fireBall" class="st24" cx="-99.2" cy="337.1" r="24"/>
	<circle id="innFlame" class="st25" cx="-93.9" cy="346" r="17.1"/>
</g>
<g id="Spell__x26__Sword_Icon" class="st3">
	<path id="Handle_1_" class="st8" d="M34.1,320.3l19.5,19.5L17,376.6c-2.3,2.3-6,2.3-8.3,0l-11.3-11.3c-2.3-2.3-2.3-6,0-8.3
		L34.1,320.3z"/>
	<path id="Pommel_1_" class="st9" d="M19,374.6c0,0-3.6,17.6-17.6,17.6c-11.8,1-20-12.2-20-20C-17.8,359.5-0.5,355-0.5,355L19,374.6
		z"/>
	<path id="mainFlame" class="st26" d="M71.6,334.7c0,0,8.9-9.2,10.3-14.9c1-4.5,11.9-8.9,16.3-10.5c1.4-0.5,2.7-1.3,3.9-2.4
		c3.2-3,9.6-9.6,12.1-17.9c3.4-11.2,27.9-18.9,27.9-18.9s25.7-5.6,30.3-18.8c4.6-13.2,13-52.9-19-76.6c0,0,12,27.2-0.7,30.1
		c-12.7,2.9-15.1-12.3-15.1-12.3s-6.4,14.6,0,22.5c6.4,7.9-28.1,10.5-23.4-21.2c0,0-23.2,21.1-9.9,43.6s-16.5,12.6-16.5,12.6
		s-23.8-9.9-5.9-50.2c0,0-38.6,58-2.5,79.9c0,0,9.4,16.4-12,11.5c-2-0.5-4.2-0.1-6,1c-3,1.9-7.6,3.5-8.5-4.7
		c-0.9-8.6-16.4,10.1-8.9,20.6S71.6,334.7,71.6,334.7z"/>
	<path id="flameAdditive" class="st27" d="M169.1,229.9c1.3,2.1,1.7,4.6,1.5,7c-0.9,7.7-2.1,27.3-31.4,30
		c-13.1,1.2-26.9,12.3-30.4,22.8c0,0-0.8,13.4-22.4,20.9c0,0-9.9,6.3-11.7,16.2c-1.5,7.9-22.2-13.3-22.2-13.3s35.7-8.3,37-16.8
		c1.3-8.6,11.6-34.4,37-43.6s30.1-19.5,30.1-19.5S164.1,221.9,169.1,229.9z"/>
	<path id="Hilt_1_" class="st8" d="M32.2,271.3c1.6-2.8,5.8-1.7,5.9,1.5c0.2,9.8,4.3,24.4,21.3,41.4c18.7,18.7,34.9,22,44.7,21.7
		c2.6-0.1,3.6,3.2,1.5,4.6c-13.2,8.3-39.3,18.6-64.8-6.9C16.7,309.6,24.3,285.1,32.2,271.3z"/>
	<circle id="Bezzel_1_" class="st10" cx="50.4" cy="323.2" r="6.5"/>
	<circle id="Gem_1_" class="st11" cx="50.4" cy="323.2" r="3.4"/>
</g>
<g id="Bow">
	<path id="lowerBow" class="st28" d="M-438-55c0,0,24.1,31.4,54.9,20.1s57.7,46.9,57.7,46.9l9.9-6.2c0,0-31.9-70.6-73.8-53.8
		C-389.3-48-404.2-37-438-55z"/>
	<path id="upperBow" class="st28" d="M-327,139.5c0,0-14.5-36.9,11.1-57.4s-10.3-71.4-10.3-71.4l10.4-7.5c0,0,44,63.8,8,91
		C-307.8,94.2-325,101.2-327,139.5z"/>
	
		<rect id="grip" x="-325.4" y="-5.9" transform="matrix(0.8576 -0.5143 0.5143 0.8576 -51.353 -162.0377)" class="st29" width="14.2" height="35.3"/>
	<line id="bowString" class="st30" x1="-434.4" y1="-53.4" x2="-326.2" y2="134.3"/>
	<polygon id="arrowShaft" class="st29" points="-383,34.3 -384.8,31 -269,-38.7 -267.1,-35.4 	"/>
	<path id="Arrow_Head" class="st31" d="M-277.8-38.4c2.8,0.4,9,2.4,6.1,11c-0.1,0.3,0.3,0.4,0.5,0.2l18.2-18.7l-24.7,7.1
		C-278.1-38.9-278.1-38.5-277.8-38.4z"/>
	<polygon id="featherLower" class="st29" points="-383,34.3 -389.2,43.6 -364.1,28.5 -360.7,20.9 	"/>
	<polygon id="featherUpper" class="st29" points="-386.5,30.7 -397.5,31.8 -372.4,16.7 -364.3,17.4 	"/>
</g>
<g id="Spell_Bow">
	<path id="lowerBow_1_" class="st28" d="M-218.1-58.5c0,0,24.1,31.4,54.9,20.1s57.7,46.9,57.7,46.9l9.9-6.2c0,0-31.9-70.6-73.8-53.8
		C-169.4-51.5-184.3-40.5-218.1-58.5z"/>
	<path id="upperBow_1_" class="st28" d="M-107.1,136c0,0-14.5-36.9,11.1-57.4s-10.3-71.4-10.3-71.4L-96-0.3c0,0,44,63.8,8,91
		C-88,90.7-105.1,97.7-107.1,136z"/>
	
		<rect id="grip_1_" x="-105.6" y="-9.4" transform="matrix(0.8576 -0.5143 0.5143 0.8576 -18.2505 -49.4713)" class="st29" width="14.2" height="35.3"/>
	<line id="bowString_1_" class="st30" x1="-214.6" y1="-56.9" x2="-106.3" y2="130.8"/>
	<polygon id="arrowShaft_1_" class="st29" points="-163.1,30.8 -165,27.5 -49.1,-42.2 -47.2,-38.9 	"/>
	<polygon id="featherLower_1_" class="st29" points="-163.1,30.8 -169.4,40.1 -144.2,25 -140.9,17.4 	"/>
	<polygon id="featherUpper_1_" class="st29" points="-166.6,27.2 -177.6,28.3 -152.5,13.2 -144.4,13.9 	"/>
	<circle id="fireOrb" class="st32" cx="-44.2" cy="-43.6" r="8.8"/>
	<circle id="orbGlow" class="st33" cx="-38.6" cy="-42.2" r="3.8"/>
</g>
<g id="Evil_Staff">
	<circle class="st34" cx="123.1" cy="25.2" r="18.2"/>
	<circle class="st34" cx="134.7" cy="27.2" r="5.2"/>
	<path class="st30" d="M124.2,1.6c0,0-5.9,3.7-10.4,3.6c-4.4-0.1-15.4,5.8-16.7,16c-1.3,10.2,3.5,11.2-14.2,23.7
		c-0.9,0.6-1.8,1.3-2.7,2c-1.5,1.3-3.1,2.6-4.6,4.1C60.3,65.7,45.9,90.2,45.2,91c-0.9,0.9-20.4,27.9-45,32.8c0,0,45.7-1.8,66.5-38.3
		s37.9-40.1,37.9-40.1s13.1,5,22.9,2.4c1.4-0.4,2.6-1,3.8-1.9c1.4-1,3.9-2.5,6.5-2.4c0,0-11-6.2-15-3.5c-4,2.7-14.1-6.7-5.8-8.2
		c8.3-1.5,8.6-9.3,8.6-9.3s-5.4,5.3-10.6,2.3s-3-9.8,4.2-12S124.2,1.6,124.2,1.6z"/>
</g>
<g id="Palte_Helm">
	<path id="Helm" class="st35" d="M-429,279.1v58.2c0,0-2.6,36.9,55.5,41.1c0,0,47.8-3.7,54.1-33.7l0.7-65.6c0,0-8.9-39.6-54.8-47.5
		C-373.5,231.6-415.5,235.5-429,279.1z"/>
	<path id="Visor" class="st36" d="M-333.5,291.4v13c0,0-40.8,38.9-79.7,0v-13C-413.2,291.4-373.4,321.7-333.5,291.4z"/>
	<g id="Left">
		<circle id="holeMiddleLeft" cx="-392.3" cy="342.8" r="3.9"/>
		<circle id="holeBottomLeft" cx="-405.1" cy="352.3" r="3.9"/>
		<circle id="holeTopLeft" cx="-405.1" cy="333.2" r="3.9"/>
	</g>
	<g id="Left_1_">
		<circle id="holeMiddleLeft_1_" cx="-356.1" cy="342.8" r="3.9"/>
		<circle id="holeBottomLeft_1_" cx="-343.3" cy="352.3" r="3.9"/>
		<circle id="holeTopLeft_1_" cx="-343.3" cy="333.2" r="3.9"/>
	</g>
	<line id="bottomLineArt" class="st37" x1="-373.5" y1="378.3" x2="-373.5" y2="347.5"/>
	<line id="topLineart" class="st37" x1="-373.5" y1="231.6" x2="-373.5" y2="253.1"/>
</g>
</svg>
