<?xml version="1.0" encoding="utf-8"?>
<!-- Generator: Adobe Illustrator 23.0.1, SVG Export Plug-In . SVG Version: 6.00 Build 0)  -->
<svg version="1.1" xmlns="http://www.w3.org/2000/svg" xmlns:xlink="http://www.w3.org/1999/xlink" x="0px" y="0px"
	 viewBox="0 0 114.4 150.8" style="enable-background:new 0 0 114.4 150.8;" xml:space="preserve">
<style type="text/css">
	.st0{fill:none;}
	.st1{fill:#DF4598;}
	.st2{fill:#FFFFFF;}
	.st3{display:none;}
	.st4{display:inline;fill:none;}
	.st5{display:inline;fill:#DF4598;}
	.st6{display:inline;fill:#FFFFFF;}
	.st7{display:inline;fill:#A3A3A3;stroke:#000000;stroke-width:3;stroke-miterlimit:10;}
	.st8{display:inline;fill:#8C361D;stroke:#000000;stroke-width:3;stroke-miterlimit:10;}
	.st9{display:inline;fill:#FFCD34;stroke:#000000;stroke-width:3;stroke-miterlimit:10;}
	.st10{display:inline;fill:#FFCD34;stroke:#000000;stroke-miterlimit:10;}
	.st11{display:inline;fill:#ED1C24;}
	.st12{display:inline;fill:none;stroke:#000000;stroke-width:2;stroke-miterlimit:10;}
	.st13{display:inline;fill:#A3A3A3;stroke:#000000;stroke-width:2;stroke-miterlimit:10;}
	.st14{display:inline;fill:#636768;stroke:#000000;stroke-width:3;stroke-miterlimit:10;}
	.st15{display:inline;fill:#898989;stroke:#000000;stroke-width:3;stroke-miterlimit:10;}
	.st16{display:inline;fill:url(#Rod_1_);stroke:#000000;stroke-width:3;stroke-miterlimit:10;}
	.st17{display:inline;fill:#F4D80E;stroke:#000000;stroke-width:3;stroke-miterlimit:10;}
	.st18{display:inline;fill:#28BEEF;}
	.st19{display:inline;}
	.st20{fill:#28BEEF;}
	.st21{fill:#92D7EA;}
	.st22{display:inline;fill:none;stroke:#92D7EA;stroke-width:2;stroke-miterlimit:10;}
	.st23{display:inline;fill:#CB2026;stroke:#EB2C24;stroke-width:3;stroke-miterlimit:10;}
	.st24{display:inline;fill:#EB2C24;stroke:#EB2C24;stroke-width:3;stroke-miterlimit:10;}
	.st25{display:inline;fill:#E8E62A;}
	.st26{display:inline;fill:#CB2026;stroke:#000000;stroke-width:2;stroke-miterlimit:10;}
	.st27{display:inline;fill:#F7EC13;}
	.st28{fill:#8C361D;stroke:#000000;stroke-width:3;stroke-miterlimit:10;}
	.st29{stroke:#000000;stroke-width:3;stroke-miterlimit:10;}
	.st30{fill:#8C361D;stroke:#000000;stroke-width:2;stroke-miterlimit:10;}
	.st31{fill:#A3A3A3;stroke:#000000;stroke-width:2;stroke-miterlimit:10;}
	.st32{fill:#ED1C24;stroke:#EF4136;stroke-width:2;stroke-miterlimit:10;}
	.st33{fill:#F9ED32;}
	.st34{fill:#006838;stroke:#8DC63F;stroke-width:2;stroke-miterlimit:10;}
	.st35{fill:#A3A3A3;stroke:#000000;stroke-width:4;stroke-miterlimit:10;}
	.st36{stroke:#000000;stroke-miterlimit:10;}
	.st37{fill:none;stroke:#000000;stroke-miterlimit:10;}
</style>
<pattern  x="-73.6" y="-345.7" width="154" height="120.1" patternUnits="userSpaceOnUse" id="Unnamed_Pattern" viewBox="84.8 -209.8 154 120.1" style="overflow:visible;">
	<g>
		<rect x="84.8" y="-209.8" class="st0" width="154" height="120.1"/>
		<polygon class="st1" points="169.5,-21.4 148.3,0 0,-149.7 21.2,-171 		"/>
		<polygon class="st2" points="186.2,-38.2 165,-16.8 16.7,-166.5 37.8,-187.8 		"/>
		<polygon class="st2" points="223,-75.3 201.8,-54 53.5,-203.7 74.7,-225 		"/>
		<polygon class="st2" points="258.1,-110.7 236.9,-89.4 88.6,-239.1 109.7,-260.4 		"/>
		<polygon class="st2" points="286.5,-139.4 265.3,-118.1 117,-267.7 138.2,-289.1 		"/>
		<polygon class="st1" points="198.7,-60.8 177.5,-39.4 34.1,-184.1 55.3,-205.5 		"/>
		<polygon class="st1" points="237.2,-89.7 216,-68.3 67.7,-218 88.9,-239.4 		"/>
		<polygon class="st1" points="270.9,-123.7 249.7,-102.3 101.4,-252 122.6,-273.4 		"/>
		<polygon class="st1" points="303.7,-156.8 282.6,-135.5 134.2,-285.1 155.4,-306.5 		"/>
	</g>
</pattern>
<g id="Swatch" class="st3">
	<rect x="449.2" y="-215.6" class="st4" width="154" height="120.1"/>
	<polygon class="st5" points="533.9,-27.1 512.7,-5.7 364.4,-155.4 385.6,-176.8 	"/>
	<polygon class="st6" points="550.6,-43.9 529.4,-22.5 381,-172.2 402.2,-193.6 	"/>
	<polygon class="st6" points="587.4,-81 566.2,-59.7 417.9,-209.4 439.1,-230.7 	"/>
	<polygon class="st6" points="622.5,-116.5 601.3,-95.1 453,-244.8 474.1,-266.1 	"/>
	<polygon class="st6" points="650.9,-145.1 629.7,-123.8 481.4,-273.5 502.6,-294.8 	"/>
	<polygon class="st5" points="563.1,-66.5 541.9,-45.1 398.5,-189.8 419.7,-211.2 	"/>
	<polygon class="st5" points="601.6,-95.4 580.4,-74 432.1,-223.7 453.3,-245.1 	"/>
	<polygon class="st5" points="635.3,-129.4 614.1,-108 465.8,-257.7 487,-279.1 	"/>
	<polygon class="st5" points="668.1,-162.5 647,-141.2 498.6,-290.9 519.8,-312.2 	"/>
</g>
<g id="Sword_Icon" class="st3">
	<polygon id="Blade" class="st7" points="213.5,-276.1 171.6,-265.8 82.9,-167.3 104.7,-145.4 203.3,-235.6 	"/>
	<path id="Handle" class="st8" d="M68.2-150.6l19.5,19.5L51-94.3c-2.3,2.3-6,2.3-8.3,0l-11.3-11.3c-2.3-2.3-2.3-6,0-8.3L68.2-150.6z
		"/>
	<path id="Pommel" class="st9" d="M53.1-96.4c0,0-3.6,17.6-17.6,17.6c-11.8,1-20-12.2-20-20c0.8-12.5,18.1-17.1,18.1-17.1L53.1-96.4
		z"/>
	<path id="Hilt" class="st8" d="M66.3-199.6c1.6-2.8,5.8-1.7,5.9,1.5c0.2,9.8,4.3,24.4,21.3,41.4c18.7,18.7,34.9,22,44.7,21.7
		c2.6-0.1,3.6,3.2,1.5,4.6c-13.2,8.3-39.3,18.6-64.8-6.9C50.8-161.3,58.4-185.8,66.3-199.6z"/>
	<circle id="Bezzel" class="st10" cx="84.5" cy="-147.8" r="6.5"/>
	<circle id="Gem" class="st11" cx="84.5" cy="-147.8" r="3.4"/>
	<polyline id="Sword_Edge" class="st12" points="203.3,-235.6 181.4,-244.7 171.6,-265.8 	"/>
	<line id="Sword_Edge_2" class="st13" x1="181.4" y1="-244.7" x2="93.4" y2="-156.7"/>
</g>
<g id="Shield_Icon" class="st3">
	<path id="outerRim" class="st14" d="M326.7-268.7l-68.6,41c0,0-17,99.8,68.6,147.4c0,0,80.5-36.5,68.7-147.4L326.7-268.7z"/>
	<path id="innerRim" class="st15" d="M326.7-250.8l-57.3,34.2c0,0-14.2,83.4,57.3,123.1c0,0,67.3-30.5,57.4-123.1L326.7-250.8z"/>
</g>
<g id="Wand_Icon" class="st3">
	
		<pattern  id="Rod_1_" xlink:href="#Unnamed_Pattern" patternTransform="matrix(0.7071 0.7071 -0.7071 0.7071 -7517.3579 3280.5398)">
	</pattern>
	<path id="Rod" class="st16" d="M444.8-99.7l-4.6-4.6c-2.7-2.7-2.7-7,0.1-9.7l83.4-77.9l11.6,11.6l-80.8,80.5
		C451.8-97.1,447.5-97.1,444.8-99.7z"/>
	<polygon id="Star" class="st17" points="575.1,-231.1 560,-201.2 583.7,-177.6 550.6,-182.8 535.5,-152.9 530.2,-186 497.1,-191.1 
		526.9,-206.4 521.6,-239.5 545.3,-215.8 	"/>
</g>
<g id="Dagger_Icon" class="st3">
	<path id="Blade1" class="st7" d="M114.5,19.2l-61,61l-54,54L10.1,145l61.6-61.6C71.7,83.4,115.4,41.1,114.5,19.2z"/>
	
		<rect id="Hilt1" x="45" y="90" transform="matrix(0.7071 -0.7071 0.7071 0.7071 -58.5916 64.9834)" class="st14" width="8.2" height="26.4"/>
	
		<rect id="Handle1" x="15.9" y="94.4" transform="matrix(0.7071 0.7071 -0.7071 0.7071 92.3801 18.7833)" class="st14" width="15.2" height="53"/>
	<path id="Blade2" class="st7" d="M122.2,60.1L70,112.3l-46.3,46.3l9.2,9.2L85.6,115C85.6,115,123,78.7,122.2,60.1z"/>
	
		<rect id="Hilt2" x="62.8" y="120.7" transform="matrix(0.7071 -0.7071 0.7071 0.7071 -73.9051 85.5236)" class="st14" width="7" height="22.6"/>
	
		<rect id="Handle2" x="37.8" y="124.4" transform="matrix(0.7071 0.7071 -0.7071 0.7071 117.0139 11.7377)" class="st14" width="13" height="45.4"/>
</g>
<g id="Two_Spells_Icon" class="st3">
	<path id="iceInnerColour" class="st18" d="M228.8,57.4c0,0-9.6-22.2,14.4-14.4c13.6,4.4,24.8,6.5,32.1,7.6c5.1,0.7,9.4,4.2,11.2,9
		c2,5.4,5.4,12.5,10.6,17.7c9.8,9.8,11.4,32.6,11.4,32.6s4.3,12.2,15.6,19c11.3,6.8,1.3,10.9,1.3,10.9s-13.4,0.9-23.2-9.2
		c-9.8-10-26.3-9.8-26.3-9.8s-12.5-4.7-17.8-17.8c-3.3-8.2-11.2-13.5-16.6-16.3c-3.6-1.8-6.3-5.1-7.3-9L228.8,57.4z"/>
	<g id="lineArt" class="st19">
		<g>
			<g>
				<path class="st20" d="M235,72c7.1,1.4,14.4,2,21.2,4.3c6.8,2.4,13.4,6.9,15.9,13.7c1,2.8,1.3,5.8,2.3,8.5
					c2.6,6.8,9.5,11,16.4,13.6"/>
				<g>
					<path class="st20" d="M234.3,74.4c12.3,2.4,30.8,2.9,35.6,17.2c1.9,5.5,2.4,10.4,6.6,14.8c3.7,3.9,8.6,6.3,13.6,8.3
						c3,1.2,4.3-3.6,1.3-4.8c-6.5-2.6-13-6.4-15.2-13.5c-1.7-5.5-2.5-10.2-6.6-14.5c-8.8-9.2-22.2-9.9-34-12.1
						C232.5,69,231.1,73.8,234.3,74.4L234.3,74.4z"/>
				</g>
			</g>
			<g>
				<path class="st20" d="M278.6,91.8c7.1,5.1,14.4,10,21.8,14.6c2.7,1.7,5.5,3.3,7.9,5.5"/>
				<g>
					<path class="st20" d="M277.3,94c4.8,3.5,9.7,6.8,14.7,10c4.8,3.1,10.1,5.9,14.5,9.6c2.4,2.1,6-1.5,3.5-3.5
						c-9.2-7.8-20.4-13.4-30.2-20.4C277.2,87.8,274.7,92.1,277.3,94L277.3,94z"/>
				</g>
			</g>
			<g>
				<path class="st20" d="M294.1,118.4c-0.2,1.8,0.4,3.7,1.5,5.1"/>
				<g>
					<path class="st20" d="M291.6,118.4c-0.2,2.2,0.5,4.5,1.8,6.3c0.8,1.1,2.2,1.6,3.4,0.9c1.1-0.6,1.7-2.3,0.9-3.4
						c-0.9-1.2-1.3-2.3-1.2-3.8c0.1-1.3-1.2-2.5-2.5-2.5C292.6,115.9,291.7,117.1,291.6,118.4L291.6,118.4z"/>
				</g>
			</g>
			<g>
				<path class="st20" d="M241.8,52.8c3.1,2.9,6.2,5.8,9.9,8c3.6,2.2,7.8,3.7,12.1,3.3c3.7-0.3,7.1-1.9,10.3-3.6"/>
				<g>
					<path class="st20" d="M240.1,54.6c5.1,4.8,10.6,9.8,17.5,11.5c6.4,1.6,12.1-0.3,17.8-3.4c2.8-1.5,0.3-5.8-2.5-4.3
						c-4.9,2.7-9.9,4.4-15.4,2.4c-5.4-1.9-9.7-5.9-13.8-9.8C241.2,48.9,237.7,52.4,240.1,54.6L240.1,54.6z"/>
				</g>
			</g>
		</g>
		<g>
			<g>
				<g>
					<path class="st21" d="M234.3,74.4c12.3,2.4,30.8,2.9,35.6,17.2c1.9,5.5,2.4,10.4,6.6,14.8c3.7,3.9,8.6,6.3,13.6,8.3
						c3,1.2,4.3-3.6,1.3-4.8c-6.5-2.6-13-6.4-15.2-13.5c-1.7-5.5-2.5-10.2-6.6-14.5c-8.8-9.2-22.2-9.9-34-12.1
						C232.5,69,231.1,73.8,234.3,74.4L234.3,74.4z"/>
				</g>
			</g>
			<g>
				<g>
					<path class="st21" d="M277.3,94c4.8,3.5,9.7,6.8,14.7,10c4.8,3.1,10.1,5.9,14.5,9.6c2.4,2.1,6-1.5,3.5-3.5
						c-9.2-7.8-20.4-13.4-30.2-20.4C277.2,87.8,274.7,92.1,277.3,94L277.3,94z"/>
				</g>
			</g>
			<g>
				<g>
					<path class="st21" d="M291.6,118.4c-0.2,2.2,0.5,4.5,1.8,6.3c0.8,1.1,2.2,1.6,3.4,0.9c1.1-0.6,1.7-2.3,0.9-3.4
						c-0.9-1.2-1.3-2.3-1.2-3.8c0.1-1.3-1.2-2.5-2.5-2.5C292.6,115.9,291.7,117.1,291.6,118.4L291.6,118.4z"/>
				</g>
			</g>
			<g>
				<g>
					<path class="st21" d="M240.1,54.6c5.1,4.8,10.6,9.8,17.5,11.5c6.4,1.6,12.1-0.3,17.8-3.4c2.8-1.5,0.3-5.8-2.5-4.3
						c-4.9,2.7-9.9,4.4-15.4,2.4c-5.4-1.9-9.7-5.9-13.8-9.8C241.2,48.9,237.7,52.4,240.1,54.6L240.1,54.6z"/>
				</g>
			</g>
		</g>
	</g>
	<path id="iceLineArt_1_" class="st22" d="M228.8,57.4c0,0-9.6-22.2,14.4-14.4c13.6,4.4,24.8,6.5,32.1,7.6c5.1,0.7,9.4,4.2,11.2,9
		c2,5.4,5.4,12.5,10.6,17.7c9.8,9.8,11.4,32.6,11.4,32.6s4.3,12.2,15.6,19c11.3,6.8,1.3,10.9,1.3,10.9s-13.4,0.9-23.2-9.2
		c-9.8-10-26.3-9.8-26.3-9.8s-12.5-4.7-17.8-17.8c-3.3-8.2-11.2-13.5-16.6-16.3c-3.6-1.8-6.3-5.1-7.3-9L228.8,57.4z"/>
	<path id="outFlame" class="st23" d="M332,133.3c0,0,26.1-3.4,26.1-26.1c0,0,0-11,11.5-22.3c11.4-11.3,6-25.1,6-25.1
		s-6,16.2-12,11.4c-6-4.8,1.8-25.9,9.3-31.9s-0.3-27.7-4.5-34.9c0,0-1.8,31.3-19.2,45.1s-13.5-21.1,5.3-27.4c0,0-55.2,7.3-48.6,85
		C305.9,107.2,305.9,130.4,332,133.3z"/>
	<circle id="fireBall" class="st24" cx="331.8" cy="107.5" r="24"/>
	<circle id="innFlame" class="st25" cx="337.2" cy="116.5" r="17.1"/>
</g>
<g id="Spell__x26__Sword_Icon" class="st3">
	<path id="Handle_1_" class="st8" d="M465.2,90.8l19.5,19.5L448,147.1c-2.3,2.3-6,2.3-8.3,0l-11.3-11.3c-2.3-2.3-2.3-6,0-8.3
		L465.2,90.8z"/>
	<path id="Pommel_1_" class="st9" d="M450,145c0,0-3.6,17.6-17.6,17.6c-11.8,1-20-12.2-20-20c0.8-12.5,18.1-17.1,18.1-17.1L450,145z
		"/>
	<path id="mainFlame" class="st26" d="M502.6,105.1c0,0,8.9-9.2,10.3-14.9c1-4.5,11.9-8.9,16.3-10.5c1.4-0.5,2.7-1.3,3.9-2.4
		c3.2-3,9.6-9.6,12.1-17.9c3.4-11.2,27.9-18.9,27.9-18.9s25.7-5.6,30.3-18.8s13-52.9-19-76.6c0,0,12,27.2-0.7,30.1
		S568.6-37,568.6-37s-6.4,14.6,0,22.5s-28.1,10.5-23.4-21.2c0,0-23.2,21.1-9.9,43.6c13.3,22.5-16.5,12.6-16.5,12.6
		s-23.8-9.9-5.9-50.2c0,0-38.6,58-2.5,79.9c0,0,9.4,16.4-12,11.5c-2-0.5-4.2-0.1-6,1c-3,1.9-7.6,3.5-8.5-4.7
		c-0.9-8.6-16.4,10.1-8.9,20.6C482.5,89.2,502.6,105.1,502.6,105.1z"/>
	<path id="flameAdditive" class="st27" d="M600.1,0.3c1.3,2.1,1.7,4.6,1.5,7c-0.9,7.7-2.1,27.3-31.4,30
		c-13.1,1.2-26.9,12.3-30.4,22.8c0,0-0.8,13.4-22.4,20.9c0,0-9.9,6.3-11.7,16.2c-1.5,7.9-22.2-13.3-22.2-13.3s35.7-8.3,37-16.8
		c1.3-8.6,11.6-34.4,37-43.6c25.4-9.2,30.1-19.5,30.1-19.5S595.1-7.6,600.1,0.3z"/>
	<path id="Hilt_1_" class="st8" d="M463.3,41.8c1.6-2.8,5.8-1.7,5.9,1.5c0.2,9.8,4.3,24.4,21.3,41.4c18.7,18.7,34.9,22,44.7,21.7
		c2.6-0.1,3.6,3.2,1.5,4.6c-13.2,8.3-39.3,18.6-64.8-6.9C447.7,80,455.4,55.6,463.3,41.8z"/>
	<circle id="Bezzel_1_" class="st10" cx="481.5" cy="93.6" r="6.5"/>
	<circle id="Gem_1_" class="st11" cx="481.5" cy="93.6" r="3.4"/>
</g>
<g id="Bow">
	<path id="lowerBow" class="st28" d="M-6.9-284.5c0,0,24.1,31.4,54.9,20.1s57.7,46.9,57.7,46.9l9.9-6.2c0,0-31.9-70.6-73.8-53.8
		C41.8-277.6,26.9-266.5-6.9-284.5z"/>
	<path id="upperBow" class="st28" d="M104-90.1c0,0-14.5-36.9,11.1-57.4s-10.3-71.4-10.3-71.4l10.4-7.5c0,0,44,63.8,8,91
		C123.2-135.4,106.1-128.3,104-90.1z"/>
	
		<rect id="grip" x="105.6" y="-235.5" transform="matrix(0.8576 -0.5143 0.5143 0.8576 128.0742 26.9574)" class="st29" width="14.2" height="35.3"/>
	<line id="bowString" class="st30" x1="-3.4" y1="-282.9" x2="104.9" y2="-95.2"/>
	<polygon id="arrowShaft" class="st29" points="48.1,-195.3 46.2,-198.6 162.1,-268.3 164,-264.9 	"/>
	<path id="Arrow_Head" class="st31" d="M153.2-268c2.8,0.4,9,2.4,6.1,11c-0.1,0.3,0.3,0.4,0.5,0.2l18.2-18.7l-24.7,7.1
		C153-268.4,152.9-268.1,153.2-268z"/>
	<polygon id="featherLower" class="st29" points="48.1,-195.3 41.8,-185.9 67,-201 70.3,-208.6 	"/>
	<polygon id="featherUpper" class="st29" points="44.5,-198.8 33.6,-197.8 58.7,-212.9 66.8,-212.2 	"/>
</g>
<g id="Spell_Bow">
	<path id="lowerBow_1_" class="st28" d="M212.9-288c0,0,24.1,31.4,54.9,20.1s57.7,46.9,57.7,46.9l9.9-6.2c0,0-31.9-70.6-73.8-53.8
		C261.6-281.1,246.7-270,212.9-288z"/>
	<path id="upperBow_1_" class="st28" d="M323.9-93.6c0,0-14.5-36.9,11.1-57.4s-10.3-71.4-10.3-71.4l10.4-7.5c0,0,44,63.8,8,91
		C343.1-138.9,325.9-131.8,323.9-93.6z"/>
	
		<rect id="grip_1_" x="325.5" y="-239" transform="matrix(0.8576 -0.5143 0.5143 0.8576 161.1766 139.5237)" class="st29" width="14.2" height="35.3"/>
	<line id="bowString_1_" class="st30" x1="216.5" y1="-286.4" x2="324.8" y2="-98.7"/>
	<polygon id="arrowShaft_1_" class="st29" points="267.9,-198.8 266.1,-202.1 381.9,-271.8 383.8,-268.4 	"/>
	<polygon id="featherLower_1_" class="st29" points="267.9,-198.8 261.7,-189.4 286.8,-204.5 290.2,-212.1 	"/>
	<polygon id="featherUpper_1_" class="st29" points="264.4,-202.3 253.4,-201.3 278.5,-216.4 286.6,-215.7 	"/>
	<circle id="fireOrb" class="st32" cx="386.9" cy="-273.1" r="8.8"/>
	<circle id="orbGlow" class="st33" cx="392.5" cy="-271.8" r="3.8"/>
</g>
<g id="Evil_Staff">
	<circle class="st34" cx="554.2" cy="-204.3" r="18.2"/>
	<circle class="st34" cx="565.7" cy="-202.4" r="5.2"/>
	<path class="st30" d="M555.2-228c0,0-5.9,3.7-10.4,3.6c-4.4-0.1-15.4,5.8-16.7,16c-1.3,10.2,3.5,11.2-14.2,23.7
		c-0.9,0.6-1.8,1.3-2.7,2c-1.5,1.3-3.1,2.6-4.6,4.1c-15.3,14.7-29.7,39.2-30.4,40c-0.9,0.9-20.4,27.9-45,32.8
		c0,0,45.7-1.8,66.5-38.3s37.9-40.1,37.9-40.1s13.1,5,22.9,2.4c1.4-0.4,2.6-1,3.8-1.9c1.4-1,3.9-2.5,6.5-2.4c0,0-11-6.2-15-3.5
		s-14.1-6.7-5.8-8.2s8.6-9.3,8.6-9.3s-5.4,5.3-10.6,2.3s-3-9.8,4.2-12C557.2-218.9,555.2-228,555.2-228z"/>
</g>
<g id="Palte_Helm">
	<path id="Helm" class="st35" d="M2,49.5v58.2c0,0-2.6,36.9,55.5,41.1c0,0,47.8-3.7,54.1-33.7l0.7-65.6c0,0-8.9-39.6-54.8-47.5
		C57.5,2,15.6,6,2,49.5z"/>
	<path id="Visor" class="st36" d="M97.5,61.8v13c0,0-40.8,38.9-79.7,0v-13C17.8,61.8,57.7,92.1,97.5,61.8z"/>
	<g id="Left">
		<circle id="holeMiddleLeft" cx="38.7" cy="113.2" r="3.9"/>
		<circle id="holeBottomLeft" cx="26" cy="122.8" r="3.9"/>
		<circle id="holeTopLeft" cx="26" cy="103.6" r="3.9"/>
	</g>
	<g id="Left_1_">
		<circle id="holeMiddleLeft_1_" cx="75" cy="113.2" r="3.9"/>
		<circle id="holeBottomLeft_1_" cx="87.7" cy="122.8" r="3.9"/>
		<circle id="holeTopLeft_1_" cx="87.7" cy="103.6" r="3.9"/>
	</g>
	<line id="bottomLineArt" class="st37" x1="57.5" y1="148.8" x2="57.5" y2="117.9"/>
	<line id="topLineart" class="st37" x1="57.5" y1="2" x2="57.5" y2="23.5"/>
</g>
</svg>
