<?xml version="1.0" encoding="utf-8"?>
<!-- Generator: Adobe Illustrator 23.0.1, SVG Export Plug-In . SVG Version: 6.00 Build 0)  -->
<svg version="1.1" id="helmet" xmlns="http://www.w3.org/2000/svg" xmlns:xlink="http://www.w3.org/1999/xlink" x="0px" y="0px"
	 viewBox="0 0 114.4 150.8" style="enable-background:new 0 0 114.4 150.8;" xml:space="preserve">
<style type="text/css">
	.st0{fill:#A3A3A3;stroke:#000000;stroke-width:4;stroke-miterlimit:10;}
	.st1{stroke:#000000;stroke-miterlimit:10;}
	.st2{fill:none;stroke:#000000;stroke-miterlimit:10;}
</style>
<path id="Helm" class="st0" d="M2,49.5v58.2c0,0-2.6,36.9,55.5,41.1c0,0,47.8-3.7,54.1-33.7l0.7-65.6c0,0-8.9-39.6-54.8-47.5
	C57.5,2,15.6,6,2,49.5z"/>
<path id="Visor" class="st1" d="M97.5,61.8v13c0,0-40.8,38.9-79.7,0v-13C17.8,61.8,57.7,92.1,97.5,61.8z"/>
<g id="Left">
	<circle id="holeMiddleLeft" cx="38.7" cy="113.2" r="3.9"/>
	<circle id="holeBottomLeft" cx="26" cy="122.8" r="3.9"/>
	<circle id="holeTopLeft" cx="26" cy="103.6" r="3.9"/>
</g>
<g id="Left_1_">
	<circle id="holeMiddleLeft_1_" cx="75" cy="113.2" r="3.9"/>
	<circle id="holeBottomLeft_1_" cx="87.7" cy="122.8" r="3.9"/>
	<circle id="holeTopLeft_1_" cx="87.7" cy="103.6" r="3.9"/>
</g>
<line id="bottomLineArt" class="st2" x1="57.5" y1="148.8" x2="57.5" y2="117.9"/>
<line id="topLineart" class="st2" x1="57.5" y1="2" x2="57.5" y2="23.5"/>
</svg>
