<?xml version="1.0" encoding="utf-8"?>
<!-- Generator: Adobe Illustrator 23.0.1, SVG Export Plug-In . SVG Version: 6.00 Build 0)  -->
<svg version="1.1" xmlns="http://www.w3.org/2000/svg" xmlns:xlink="http://www.w3.org/1999/xlink" x="0px" y="0px"
	 viewBox="0 0 142.8 191.8" style="enable-background:new 0 0 142.8 191.8;" xml:space="preserve">
<style type="text/css">
	.st0{fill:none;}
	.st1{fill:#DF4598;}
	.st2{fill:#FFFFFF;}
	.st3{display:none;}
	.st4{display:inline;fill:none;}
	.st5{display:inline;fill:#DF4598;}
	.st6{display:inline;fill:#FFFFFF;}
	.st7{display:inline;fill:#A3A3A3;stroke:#000000;stroke-width:3;stroke-miterlimit:10;}
	.st8{display:inline;fill:#8C361D;stroke:#000000;stroke-width:3;stroke-miterlimit:10;}
	.st9{display:inline;fill:#FFCD34;stroke:#000000;stroke-width:3;stroke-miterlimit:10;}
	.st10{display:inline;fill:#FFCD34;stroke:#000000;stroke-miterlimit:10;}
	.st11{display:inline;fill:#ED1C24;}
	.st12{display:inline;fill:none;stroke:#000000;stroke-width:2;stroke-miterlimit:10;}
	.st13{display:inline;fill:#A3A3A3;stroke:#000000;stroke-width:2;stroke-miterlimit:10;}
	.st14{fill:#636768;stroke:#000000;stroke-width:3;stroke-miterlimit:10;}
	.st15{fill:#898989;stroke:#000000;stroke-width:3;stroke-miterlimit:10;}
	.st16{fill:url(#Rod_1_);stroke:#000000;stroke-width:3;stroke-miterlimit:10;}
	.st17{fill:#F4D80E;stroke:#000000;stroke-width:3;stroke-miterlimit:10;}
	.st18{fill:#A3A3A3;stroke:#000000;stroke-width:3;stroke-miterlimit:10;}
	.st19{fill:#28BEEF;}
	.st20{fill:#92D7EA;}
	.st21{fill:none;stroke:#92D7EA;stroke-width:2;stroke-miterlimit:10;}
	.st22{fill:#CB2026;stroke:#EB2C24;stroke-width:3;stroke-miterlimit:10;}
	.st23{fill:#EB2C24;stroke:#EB2C24;stroke-width:3;stroke-miterlimit:10;}
	.st24{fill:#E8E62A;}
	.st25{fill:#8C361D;stroke:#000000;stroke-width:3;stroke-miterlimit:10;}
	.st26{fill:#FFCD34;stroke:#000000;stroke-width:3;stroke-miterlimit:10;}
	.st27{fill:#CB2026;stroke:#000000;stroke-width:2;stroke-miterlimit:10;}
	.st28{fill:#F7EC13;}
	.st29{fill:#FFCD34;stroke:#000000;stroke-miterlimit:10;}
	.st30{fill:#ED1C24;}
	.st31{display:inline;stroke:#000000;stroke-width:3;stroke-miterlimit:10;}
	.st32{display:inline;fill:#8C361D;stroke:#000000;stroke-width:2;stroke-miterlimit:10;}
	.st33{display:inline;fill:#ED1C24;stroke:#EF4136;stroke-width:2;stroke-miterlimit:10;}
	.st34{display:inline;fill:#F9ED32;}
	.st35{display:inline;fill:#006838;stroke:#8DC63F;stroke-width:2;stroke-miterlimit:10;}
	.st36{display:inline;fill:#A3A3A3;stroke:#000000;stroke-width:4;stroke-miterlimit:10;}
	.st37{display:inline;stroke:#000000;stroke-miterlimit:10;}
	.st38{display:inline;}
	.st39{display:inline;fill:none;stroke:#000000;stroke-miterlimit:10;}
</style>
<pattern  x="-328.8" y="-75.2" width="154" height="120.1" patternUnits="userSpaceOnUse" id="Unnamed_Pattern" viewBox="84.8 -209.8 154 120.1" style="overflow:visible;">
	<g>
		<rect x="84.8" y="-209.8" class="st0" width="154" height="120.1"/>
		<polygon class="st1" points="169.5,-21.4 148.3,0 0,-149.7 21.2,-171 		"/>
		<polygon class="st2" points="186.2,-38.2 165,-16.8 16.7,-166.5 37.8,-187.8 		"/>
		<polygon class="st2" points="223,-75.3 201.8,-54 53.5,-203.7 74.7,-225 		"/>
		<polygon class="st2" points="258.1,-110.7 236.9,-89.4 88.6,-239.1 109.7,-260.4 		"/>
		<polygon class="st2" points="286.5,-139.4 265.3,-118.1 117,-267.7 138.2,-289.1 		"/>
		<polygon class="st1" points="198.7,-60.8 177.5,-39.4 34.1,-184.1 55.3,-205.5 		"/>
		<polygon class="st1" points="237.2,-89.7 216,-68.3 67.7,-218 88.9,-239.4 		"/>
		<polygon class="st1" points="270.9,-123.7 249.7,-102.3 101.4,-252 122.6,-273.4 		"/>
		<polygon class="st1" points="303.7,-156.8 282.6,-135.5 134.2,-285.1 155.4,-306.5 		"/>
	</g>
</pattern>
<g id="Swatch" class="st3">
	<rect x="193.9" y="54.9" class="st4" width="154" height="120.1"/>
	<polygon class="st5" points="278.7,243.4 257.5,264.7 109.2,115 130.3,93.7 	"/>
	<polygon class="st6" points="295.3,226.6 274.2,247.9 125.8,98.2 147,76.9 	"/>
	<polygon class="st6" points="332.2,189.4 311,210.8 162.7,61.1 183.8,39.7 	"/>
	<polygon class="st6" points="367.3,154 346.1,175.3 197.8,25.7 218.9,4.3 	"/>
	<polygon class="st6" points="395.7,125.3 374.5,146.7 226.2,-3 247.3,-24.4 	"/>
	<polygon class="st5" points="307.9,204 286.7,225.3 143.3,80.6 164.5,59.3 	"/>
	<polygon class="st5" points="346.4,175 325.2,196.4 176.9,46.7 198.1,25.4 	"/>
	<polygon class="st5" points="380.1,141 358.9,162.4 210.6,12.7 231.8,-8.6 	"/>
	<polygon class="st5" points="412.9,107.9 391.8,129.3 243.4,-20.4 264.6,-41.8 	"/>
</g>
<g id="Sword_Icon" class="st3">
	<polygon id="Blade" class="st7" points="-41.7,-5.6 -83.6,4.6 -172.3,103.2 -150.5,125 -51.9,34.9 	"/>
	<path id="Handle" class="st8" d="M-187,119.8l19.5,19.5l-36.7,36.7c-2.3,2.3-6,2.3-8.3,0l-11.3-11.3c-2.3-2.3-2.3-6,0-8.3
		L-187,119.8z"/>
	<path id="Pommel" class="st9" d="M-202.1,174.1c0,0-3.6,17.6-17.6,17.6c-11.8,1-20-12.2-20-20c0.8-12.5,18.1-17.1,18.1-17.1
		L-202.1,174.1z"/>
	<path id="Hilt" class="st8" d="M-188.9,70.8c1.6-2.8,5.8-1.7,5.9,1.5c0.2,9.8,4.3,24.4,21.3,41.4c18.7,18.7,34.9,22,44.7,21.7
		c2.6-0.1,3.6,3.2,1.5,4.6c-13.2,8.3-39.3,18.6-64.8-6.9C-204.4,109.1-196.8,84.6-188.9,70.8z"/>
	<circle id="Bezzel" class="st10" cx="-170.7" cy="122.7" r="6.5"/>
	<circle id="Gem" class="st11" cx="-170.7" cy="122.7" r="3.4"/>
	<polyline id="Sword_Edge" class="st12" points="-51.9,34.9 -73.8,25.7 -83.6,4.6 	"/>
	<line id="Sword_Edge_2" class="st13" x1="-73.8" y1="25.7" x2="-161.8" y2="113.8"/>
</g>
<g id="Shield_Icon">
	<path id="outerRim" class="st14" d="M71.4,1.7l-68.6,41c0,0-17,99.8,68.6,147.4c0,0,80.5-36.5,68.7-147.4L71.4,1.7z"/>
	<path id="innerRim" class="st15" d="M71.4,19.6L14.2,53.8c0,0-14.2,83.4,57.3,123.1c0,0,67.3-30.5,57.4-123.1L71.4,19.6z"/>
</g>
<g id="Wand_Icon">
	
		<pattern  id="Rod_1_" xlink:href="#Unnamed_Pattern" patternTransform="matrix(0.7071 0.7071 -0.7071 0.7071 -7604.834 3032.8743)">
	</pattern>
	<path id="Rod" class="st16" d="M189.6,170.7l-4.6-4.6c-2.7-2.7-2.7-7,0.1-9.7l83.4-77.9l11.6,11.6l-80.8,80.5
		C196.6,173.3,192.3,173.4,189.6,170.7z"/>
	<polygon id="Star" class="st17" points="319.9,39.4 304.8,69.2 328.5,92.8 295.4,87.7 280.3,117.5 275,84.5 241.9,79.3 271.7,64 
		266.4,31 290.1,54.6 	"/>
</g>
<g id="Dagger_Icon">
	<path id="Blade1" class="st18" d="M-140.7,289.7l-61,61l-54,54l10.7,10.7l61.6-61.6C-183.5,353.9-139.8,311.5-140.7,289.7z"/>
	
		<rect id="Hilt1" x="-210.2" y="360.5" transform="matrix(0.7071 -0.7071 0.7071 0.7071 -324.5772 -36.2735)" class="st14" width="8.2" height="26.4"/>
	
		<rect id="Handle1" x="-239.3" y="364.8" transform="matrix(0.7071 0.7071 -0.7071 0.7071 208.8609 278.463)" class="st14" width="15.2" height="53"/>
	<path id="Blade2" class="st18" d="M-133,330.5l-52.3,52.3l-46.3,46.3l9.2,9.2l52.7-52.7C-169.6,385.5-132.2,349.2-133,330.5z"/>
	
		<rect id="Hilt2" x="-192.5" y="391.1" transform="matrix(0.7071 -0.7071 0.7071 0.7071 -339.8907 -15.7332)" class="st14" width="7" height="22.6"/>
	
		<rect id="Handle2" x="-217.4" y="394.9" transform="matrix(0.7071 0.7071 -0.7071 0.7071 233.4947 271.4173)" class="st14" width="13" height="45.4"/>
</g>
<g id="Two_Spells_Icon">
	<path id="iceInnerColour" class="st19" d="M-26.4,327.9c0,0-9.6-22.2,14.4-14.4c13.6,4.4,24.8,6.5,32.1,7.6c5.1,0.7,9.4,4.2,11.2,9
		c2,5.4,5.4,12.5,10.6,17.7c9.8,9.8,11.4,32.6,11.4,32.6s4.3,12.2,15.6,19s1.3,10.9,1.3,10.9s-13.4,0.9-23.2-9.2
		c-9.8-10-26.3-9.8-26.3-9.8s-12.5-4.7-17.8-17.8c-3.3-8.2-11.2-13.5-16.6-16.3c-3.6-1.8-6.3-5.1-7.3-9L-26.4,327.9z"/>
	<g id="lineArt">
		<g>
			<g>
				<path class="st19" d="M-20.3,342.4c7.1,1.4,14.4,2,21.2,4.3c6.8,2.4,13.4,6.9,15.9,13.7c1,2.8,1.3,5.8,2.3,8.5
					c2.6,6.8,9.5,11,16.4,13.6"/>
				<g>
					<path class="st19" d="M-20.9,344.8c12.3,2.4,30.8,2.9,35.6,17.2c1.9,5.5,2.4,10.4,6.6,14.8c3.7,3.9,8.6,6.3,13.6,8.3
						c3,1.2,4.3-3.6,1.3-4.8c-6.5-2.6-13-6.4-15.2-13.5c-1.7-5.5-2.5-10.2-6.6-14.5c-8.8-9.2-22.2-9.9-34-12.1
						C-22.7,339.4-24.1,344.2-20.9,344.8L-20.9,344.8z"/>
				</g>
			</g>
			<g>
				<path class="st19" d="M23.4,362.3c7.1,5.1,14.4,10,21.8,14.6c2.7,1.7,5.5,3.3,7.9,5.5"/>
				<g>
					<path class="st19" d="M22.1,364.4c4.8,3.5,9.7,6.8,14.7,10c4.8,3.1,10.1,5.9,14.5,9.6c2.4,2.1,6-1.5,3.5-3.5
						c-9.2-7.8-20.4-13.4-30.2-20.4C22,358.2,19.5,362.6,22.1,364.4L22.1,364.4z"/>
				</g>
			</g>
			<g>
				<path class="st19" d="M38.8,388.9c-0.2,1.8,0.4,3.7,1.5,5.1"/>
				<g>
					<path class="st19" d="M36.3,388.9c-0.2,2.2,0.5,4.5,1.8,6.3c0.8,1.1,2.2,1.6,3.4,0.9c1.1-0.6,1.7-2.3,0.9-3.4
						c-0.9-1.2-1.3-2.3-1.2-3.8c0.1-1.3-1.2-2.5-2.5-2.5C37.4,386.4,36.4,387.5,36.3,388.9L36.3,388.9z"/>
				</g>
			</g>
			<g>
				<path class="st19" d="M-13.4,323.3c3.1,2.9,6.2,5.8,9.9,8s7.8,3.7,12.1,3.3c3.7-0.3,7.1-1.9,10.3-3.6"/>
				<g>
					<path class="st19" d="M-15.2,325c5.1,4.8,10.6,9.8,17.5,11.5c6.4,1.6,12.1-0.3,17.8-3.4c2.8-1.5,0.3-5.8-2.5-4.3
						c-4.9,2.7-9.9,4.4-15.4,2.4c-5.4-1.9-9.7-5.9-13.8-9.8C-14,319.3-17.5,322.8-15.2,325L-15.2,325z"/>
				</g>
			</g>
		</g>
		<g>
			<g>
				<g>
					<path class="st20" d="M-20.9,344.8c12.3,2.4,30.8,2.9,35.6,17.2c1.9,5.5,2.4,10.4,6.6,14.8c3.7,3.9,8.6,6.3,13.6,8.3
						c3,1.2,4.3-3.6,1.3-4.8c-6.5-2.6-13-6.4-15.2-13.5c-1.7-5.5-2.5-10.2-6.6-14.5c-8.8-9.2-22.2-9.9-34-12.1
						C-22.7,339.4-24.1,344.2-20.9,344.8L-20.9,344.8z"/>
				</g>
			</g>
			<g>
				<g>
					<path class="st20" d="M22.1,364.4c4.8,3.5,9.7,6.8,14.7,10c4.8,3.1,10.1,5.9,14.5,9.6c2.4,2.1,6-1.5,3.5-3.5
						c-9.2-7.8-20.4-13.4-30.2-20.4C22,358.2,19.5,362.6,22.1,364.4L22.1,364.4z"/>
				</g>
			</g>
			<g>
				<g>
					<path class="st20" d="M36.3,388.9c-0.2,2.2,0.5,4.5,1.8,6.3c0.8,1.1,2.2,1.6,3.4,0.9c1.1-0.6,1.7-2.3,0.9-3.4
						c-0.9-1.2-1.3-2.3-1.2-3.8c0.1-1.3-1.2-2.5-2.5-2.5C37.4,386.4,36.4,387.5,36.3,388.9L36.3,388.9z"/>
				</g>
			</g>
			<g>
				<g>
					<path class="st20" d="M-15.2,325c5.1,4.8,10.6,9.8,17.5,11.5c6.4,1.6,12.1-0.3,17.8-3.4c2.8-1.5,0.3-5.8-2.5-4.3
						c-4.9,2.7-9.9,4.4-15.4,2.4c-5.4-1.9-9.7-5.9-13.8-9.8C-14,319.3-17.5,322.8-15.2,325L-15.2,325z"/>
				</g>
			</g>
		</g>
	</g>
	<path id="iceLineArt_1_" class="st21" d="M-26.4,327.9c0,0-9.6-22.2,14.4-14.4c13.6,4.4,24.8,6.5,32.1,7.6c5.1,0.7,9.4,4.2,11.2,9
		c2,5.4,5.4,12.5,10.6,17.7c9.8,9.8,11.4,32.6,11.4,32.6s4.3,12.2,15.6,19s1.3,10.9,1.3,10.9s-13.4,0.9-23.2-9.2
		c-9.8-10-26.3-9.8-26.3-9.8s-12.5-4.7-17.8-17.8c-3.3-8.2-11.2-13.5-16.6-16.3c-3.6-1.8-6.3-5.1-7.3-9L-26.4,327.9z"/>
	<path id="outFlame" class="st22" d="M76.8,403.7c0,0,26.1-3.4,26.1-26.1c0,0,0-11,11.5-22.3s6-25.1,6-25.1s-6,16.2-12,11.4
		c-6-4.8,1.8-25.9,9.3-31.9c7.5-6-0.3-27.7-4.5-34.9c0,0-1.8,31.3-19.2,45.1c-17.4,13.8-13.5-21.1,5.3-27.4c0,0-55.2,7.3-48.6,85
		C50.7,377.6,50.7,400.9,76.8,403.7z"/>
	<circle id="fireBall" class="st23" cx="76.6" cy="378" r="24"/>
	<circle id="innFlame" class="st24" cx="82" cy="386.9" r="17.1"/>
</g>
<g id="Spell__x26__Sword_Icon">
	<path id="Handle_1_" class="st25" d="M210,361.2l19.5,19.5l-36.7,36.7c-2.3,2.3-6,2.3-8.3,0l-11.3-11.3c-2.3-2.3-2.3-6,0-8.3
		L210,361.2z"/>
	<path id="Pommel_1_" class="st26" d="M194.8,415.5c0,0-3.6,17.6-17.6,17.6c-11.8,1-20-12.2-20-20c0.8-12.5,18.1-17.1,18.1-17.1
		L194.8,415.5z"/>
	<path id="mainFlame" class="st27" d="M247.4,375.6c0,0,8.9-9.2,10.3-14.9c1-4.5,11.9-8.9,16.3-10.5c1.4-0.5,2.7-1.3,3.9-2.4
		c3.2-3,9.6-9.6,12.1-17.9c3.4-11.2,27.9-18.9,27.9-18.9s25.7-5.6,30.3-18.8c4.6-13.2,13-52.9-19-76.6c0,0,12,27.2-0.7,30.1
		c-12.7,2.9-15.1-12.3-15.1-12.3s-6.4,14.6,0,22.5c6.4,7.9-28.1,10.5-23.4-21.2c0,0-23.2,21.1-9.9,43.6
		c13.3,22.5-16.5,12.6-16.5,12.6s-23.8-9.9-5.9-50.2c0,0-38.6,58-2.5,79.9c0,0,9.4,16.4-12,11.5c-2-0.5-4.2-0.1-6,1
		c-3,1.9-7.6,3.5-8.5-4.7c-0.9-8.6-16.4,10.1-8.9,20.6C227.3,359.7,247.4,375.6,247.4,375.6z"/>
	<path id="flameAdditive" class="st28" d="M344.9,270.7c1.3,2.1,1.7,4.6,1.5,7c-0.9,7.7-2.1,27.3-31.4,30
		c-13.1,1.2-26.9,12.3-30.4,22.8c0,0-0.8,13.4-22.4,20.9c0,0-9.9,6.3-11.7,16.2c-1.5,7.9-22.2-13.3-22.2-13.3s35.7-8.3,37-16.8
		s11.6-34.4,37-43.6c25.4-9.2,30.1-19.5,30.1-19.5S339.9,262.8,344.9,270.7z"/>
	<path id="Hilt_1_" class="st25" d="M208.1,312.2c1.6-2.8,5.8-1.7,5.9,1.5c0.2,9.8,4.3,24.4,21.3,41.4c18.7,18.7,34.9,22,44.7,21.7
		c2.6-0.1,3.6,3.2,1.5,4.6c-13.2,8.3-39.3,18.6-64.8-6.9C192.5,350.5,200.2,326,208.1,312.2z"/>
	<circle id="Bezzel_1_" class="st29" cx="226.3" cy="364" r="6.5"/>
	<circle id="Gem_1_" class="st30" cx="226.3" cy="364" r="3.4"/>
</g>
<g id="Bow" class="st3">
	<path id="lowerBow" class="st8" d="M-262.1-14.1c0,0,24.1,31.4,54.9,20.1S-149.6,53-149.6,53l9.9-6.2c0,0-31.9-70.6-73.8-53.8
		C-213.5-7.1-228.3,3.9-262.1-14.1z"/>
	<path id="upperBow" class="st8" d="M-151.2,180.4c0,0-14.5-36.9,11.1-57.4s-10.3-71.4-10.3-71.4l10.4-7.5c0,0,44,63.8,8,91
		C-132,135.1-149.1,142.1-151.2,180.4z"/>
	
		<rect id="grip" x="-149.6" y="35" transform="matrix(0.8576 -0.5143 0.5143 0.8576 -47.3467 -65.792)" class="st31" width="14.2" height="35.3"/>
	<line id="bowString" class="st32" x1="-258.6" y1="-12.5" x2="-150.3" y2="175.2"/>
	<polygon id="arrowShaft" class="st31" points="-207.1,75.2 -209,71.9 -93.1,2.2 -91.2,5.5 	"/>
	<path id="Arrow_Head" class="st13" d="M-102,2.4c2.8,0.4,9,2.4,6.1,11c-0.1,0.3,0.3,0.4,0.5,0.2l18.2-18.7l-24.7,7.1
		C-102.2,2-102.3,2.4-102,2.4z"/>
	<polygon id="featherLower" class="st31" points="-207.1,75.2 -213.4,84.5 -188.3,69.4 -184.9,61.8 	"/>
	<polygon id="featherUpper" class="st31" points="-210.7,71.6 -221.6,72.6 -196.5,57.5 -188.4,58.2 	"/>
</g>
<g id="Spell_Bow" class="st3">
	<path id="lowerBow_1_" class="st8" d="M-42.3-17.6c0,0,24.1,31.4,54.9,20.1s57.7,46.9,57.7,46.9l9.9-6.2c0,0-31.9-70.6-73.8-53.8
		C6.4-10.6-8.5,0.4-42.3-17.6z"/>
	<path id="upperBow_1_" class="st8" d="M68.7,176.9c0,0-14.5-36.9,11.1-57.4S69.4,48.1,69.4,48.1l10.4-7.5c0,0,44,63.8,8,91
		C87.8,131.6,70.7,138.6,68.7,176.9z"/>
	
		<rect id="grip_1_" x="70.3" y="31.5" transform="matrix(0.8576 -0.5143 0.5143 0.8576 -14.2442 46.7744)" class="st31" width="14.2" height="35.3"/>
	<line id="bowString_1_" class="st32" x1="-38.8" y1="-16" x2="69.5" y2="171.7"/>
	<polygon id="arrowShaft_1_" class="st31" points="12.7,71.7 10.8,68.4 126.7,-1.3 128.6,2 	"/>
	<polygon id="featherLower_1_" class="st31" points="12.7,71.7 6.5,81 31.6,65.9 35,58.3 	"/>
	<polygon id="featherUpper_1_" class="st31" points="9.2,68.1 -1.8,69.1 23.3,54 31.4,54.7 	"/>
	<circle id="fireOrb" class="st33" cx="131.7" cy="-2.7" r="8.8"/>
	<circle id="orbGlow" class="st34" cx="137.3" cy="-1.3" r="3.8"/>
</g>
<g id="Evil_Staff" class="st3">
	<circle class="st35" cx="298.9" cy="66.1" r="18.2"/>
	<circle class="st35" cx="310.5" cy="68.1" r="5.2"/>
	<path class="st32" d="M300,42.5c0,0-5.9,3.7-10.4,3.6c-4.4-0.1-15.4,5.8-16.7,16c-1.3,10.2,3.5,11.2-14.2,23.7
		c-0.9,0.6-1.8,1.3-2.7,2c-1.5,1.3-3.1,2.6-4.6,4.1c-15.3,14.7-29.7,39.2-30.4,40c-0.9,0.9-20.4,27.9-45,32.8
		c0,0,45.7-1.8,66.5-38.3s37.9-40.1,37.9-40.1s13.1,5,22.9,2.4c1.4-0.4,2.6-1,3.8-1.9c1.4-1,3.9-2.5,6.5-2.4c0,0-11-6.2-15-3.5
		s-14.1-6.7-5.8-8.2c8.3-1.5,8.6-9.3,8.6-9.3s-5.4,5.3-10.6,2.3c-5.2-3.1-3-9.8,4.2-12C302,51.5,300,42.5,300,42.5z"/>
</g>
<g id="Palte_Helm" class="st3">
	<path id="Helm" class="st36" d="M-253.2,319.9v58.2c0,0-2.6,36.9,55.5,41.1c0,0,47.8-3.7,54.1-33.7l0.7-65.6
		c0,0-8.9-39.6-54.8-47.5C-197.7,272.5-239.6,276.4-253.2,319.9z"/>
	<path id="Visor" class="st37" d="M-157.7,332.3v13c0,0-40.8,38.9-79.7,0v-13C-237.4,332.3-197.5,362.5-157.7,332.3z"/>
	<g id="Left" class="st38">
		<circle id="holeMiddleLeft" cx="-216.5" cy="383.6" r="3.9"/>
		<circle id="holeBottomLeft" cx="-229.2" cy="393.2" r="3.9"/>
		<circle id="holeTopLeft" cx="-229.2" cy="374.1" r="3.9"/>
	</g>
	<g id="Left_1_" class="st38">
		<circle id="holeMiddleLeft_1_" cx="-180.2" cy="383.6" r="3.9"/>
		<circle id="holeBottomLeft_1_" cx="-167.5" cy="393.2" r="3.9"/>
		<circle id="holeTopLeft_1_" cx="-167.5" cy="374.1" r="3.9"/>
	</g>
	<line id="bottomLineArt" class="st39" x1="-197.7" y1="419.2" x2="-197.7" y2="388.4"/>
	<line id="topLineart" class="st39" x1="-197.7" y1="272.5" x2="-197.7" y2="294"/>
</g>
</svg>
