<?xml version="1.0" encoding="utf-8"?>
<!-- Generator: Adobe Illustrator 23.0.1, SVG Export Plug-In . SVG Version: 6.00 Build 0)  -->
<svg version="1.1" xmlns="http://www.w3.org/2000/svg" xmlns:xlink="http://www.w3.org/1999/xlink" x="0px" y="0px"
	 viewBox="0 0 198 222" style="enable-background:new 0 0 198 222;" xml:space="preserve">
<style type="text/css">
	.st0{fill:none;}
	.st1{fill:#DF4598;}
	.st2{fill:#FFFFFF;}
	.st3{display:none;}
	.st4{display:inline;fill:none;}
	.st5{display:inline;fill:#DF4598;}
	.st6{display:inline;fill:#FFFFFF;}
	.st7{display:inline;fill:#A3A3A3;stroke:#000000;stroke-width:3;stroke-miterlimit:10;}
	.st8{display:inline;fill:#8C361D;stroke:#000000;stroke-width:3;stroke-miterlimit:10;}
	.st9{display:inline;fill:#FFCD34;stroke:#000000;stroke-width:3;stroke-miterlimit:10;}
	.st10{display:inline;fill:#FFCD34;stroke:#000000;stroke-miterlimit:10;}
	.st11{display:inline;fill:#ED1C24;}
	.st12{display:inline;fill:none;stroke:#000000;stroke-width:2;stroke-miterlimit:10;}
	.st13{display:inline;fill:#A3A3A3;stroke:#000000;stroke-width:2;stroke-miterlimit:10;}
	.st14{fill:#636768;stroke:#000000;stroke-width:3;stroke-miterlimit:10;}
	.st15{fill:#898989;stroke:#000000;stroke-width:3;stroke-miterlimit:10;}
	.st16{fill:url(#Rod_1_);stroke:#000000;stroke-width:3;stroke-miterlimit:10;}
	.st17{fill:#F4D80E;stroke:#000000;stroke-width:3;stroke-miterlimit:10;}
	.st18{fill:#A3A3A3;stroke:#000000;stroke-width:3;stroke-miterlimit:10;}
	.st19{fill:#28BEEF;}
	.st20{fill:#92D7EA;}
	.st21{fill:none;stroke:#92D7EA;stroke-width:2;stroke-miterlimit:10;}
	.st22{fill:#CB2026;stroke:#EB2C24;stroke-width:3;stroke-miterlimit:10;}
	.st23{fill:#EB2C24;stroke:#EB2C24;stroke-width:3;stroke-miterlimit:10;}
	.st24{fill:#E8E62A;}
	.st25{fill:#8C361D;stroke:#000000;stroke-width:3;stroke-miterlimit:10;}
	.st26{fill:#FFCD34;stroke:#000000;stroke-width:3;stroke-miterlimit:10;}
	.st27{fill:#CB2026;stroke:#000000;stroke-width:2;stroke-miterlimit:10;}
	.st28{fill:#F7EC13;}
	.st29{fill:#FFCD34;stroke:#000000;stroke-miterlimit:10;}
	.st30{fill:#ED1C24;}
	.st31{display:inline;stroke:#000000;stroke-width:3;stroke-miterlimit:10;}
	.st32{display:inline;fill:#8C361D;stroke:#000000;stroke-width:2;stroke-miterlimit:10;}
	.st33{display:inline;fill:#ED1C24;stroke:#EF4136;stroke-width:2;stroke-miterlimit:10;}
	.st34{display:inline;fill:#F9ED32;}
	.st35{display:inline;fill:#006838;stroke:#8DC63F;stroke-width:2;stroke-miterlimit:10;}
	.st36{display:inline;fill:#A3A3A3;stroke:#000000;stroke-width:4;stroke-miterlimit:10;}
	.st37{display:inline;stroke:#000000;stroke-miterlimit:10;}
	.st38{display:inline;}
	.st39{display:inline;fill:none;stroke:#000000;stroke-miterlimit:10;}
</style>
<pattern  x="-484.5" y="-287.8" width="154" height="120.1" patternUnits="userSpaceOnUse" id="Unnamed_Pattern" viewBox="84.8 -209.8 154 120.1" style="overflow:visible;">
	<g>
		<rect x="84.8" y="-209.8" class="st0" width="154" height="120.1"/>
		<polygon class="st1" points="169.5,-21.4 148.3,0 0,-149.7 21.2,-171 		"/>
		<polygon class="st2" points="186.2,-38.2 165,-16.8 16.7,-166.5 37.8,-187.8 		"/>
		<polygon class="st2" points="223,-75.3 201.8,-54 53.5,-203.7 74.7,-225 		"/>
		<polygon class="st2" points="258.1,-110.7 236.9,-89.4 88.6,-239.1 109.7,-260.4 		"/>
		<polygon class="st2" points="286.5,-139.4 265.3,-118.1 117,-267.7 138.2,-289.1 		"/>
		<polygon class="st1" points="198.7,-60.8 177.5,-39.4 34.1,-184.1 55.3,-205.5 		"/>
		<polygon class="st1" points="237.2,-89.7 216,-68.3 67.7,-218 88.9,-239.4 		"/>
		<polygon class="st1" points="270.9,-123.7 249.7,-102.3 101.4,-252 122.6,-273.4 		"/>
		<polygon class="st1" points="303.7,-156.8 282.6,-135.5 134.2,-285.1 155.4,-306.5 		"/>
	</g>
</pattern>
<g id="Swatch" class="st3">
	<rect x="38.2" y="-157.7" class="st4" width="154" height="120.1"/>
	<polygon class="st5" points="123,30.8 101.8,52.2 -46.5,-97.5 -25.4,-118.9 	"/>
	<polygon class="st6" points="139.6,14 118.4,35.4 -29.9,-114.3 -8.7,-135.7 	"/>
	<polygon class="st6" points="176.4,-23.2 155.3,-1.8 6.9,-151.5 28.1,-172.9 	"/>
	<polygon class="st6" points="211.5,-58.6 190.4,-37.2 42,-186.9 63.2,-208.3 	"/>
	<polygon class="st6" points="240,-87.3 218.8,-65.9 70.5,-215.6 91.6,-237 	"/>
	<polygon class="st5" points="152.1,-8.6 131,12.7 -12.4,-132 8.7,-153.3 	"/>
	<polygon class="st5" points="190.7,-37.5 169.5,-16.2 21.2,-165.8 42.3,-187.2 	"/>
	<polygon class="st5" points="224.4,-71.5 203.2,-50.2 54.9,-199.9 76,-221.2 	"/>
	<polygon class="st5" points="257.2,-104.7 236,-83.3 87.7,-233 108.9,-254.3 	"/>
</g>
<g id="Sword_Icon" class="st3">
	<polygon id="Blade" class="st7" points="-197.4,-218.2 -239.3,-208 -328.1,-109.4 -306.2,-87.5 -207.7,-177.7 	"/>
	<path id="Handle" class="st8" d="M-342.7-92.7l19.5,19.5l-36.7,36.7c-2.3,2.3-6,2.3-8.3,0l-11.3-11.3c-2.3-2.3-2.3-6,0-8.3
		L-342.7-92.7z"/>
	<path id="Pommel" class="st9" d="M-357.9-38.5c0,0-3.6,17.6-17.6,17.6c-11.8,1-20-12.2-20-20c0.8-12.5,18.1-17.1,18.1-17.1
		L-357.9-38.5z"/>
	<path id="Hilt" class="st8" d="M-344.6-141.7c1.6-2.8,5.8-1.7,5.9,1.5c0.2,9.8,4.3,24.4,21.3,41.4c18.7,18.7,34.9,22,44.7,21.7
		c2.6-0.1,3.6,3.2,1.5,4.6c-13.2,8.3-39.3,18.6-64.8-6.9C-360.2-103.5-352.5-127.9-344.6-141.7z"/>
	<circle id="Bezzel" class="st10" cx="-326.4" cy="-89.9" r="6.5"/>
	<circle id="Gem" class="st11" cx="-326.4" cy="-89.9" r="3.4"/>
	<polyline id="Sword_Edge" class="st12" points="-207.7,-177.7 -229.5,-186.8 -239.3,-208 	"/>
	<line id="Sword_Edge_2" class="st13" x1="-229.5" y1="-186.8" x2="-317.5" y2="-98.8"/>
</g>
<g id="Shield_Icon">
	<path id="outerRim" class="st14" d="M-84.3-210.8l-68.6,41c0,0-17,99.8,68.6,147.4c0,0,80.5-36.5,68.7-147.4L-84.3-210.8z"/>
	<path id="innerRim" class="st15" d="M-84.3-193l-57.3,34.2c0,0-14.2,83.4,57.3,123.1c0,0,67.3-30.5,57.4-123.1L-84.3-193z"/>
</g>
<g id="Wand_Icon">
	
		<pattern  id="Rod_1_" xlink:href="#Unnamed_Pattern" patternTransform="matrix(0.7071 0.7071 -0.7071 0.7071 -7387.5566 2993.8684)">
	</pattern>
	<path id="Rod" class="st16" d="M33.9-41.9l-4.6-4.6c-2.7-2.7-2.7-7,0.1-9.7l83.4-77.9l11.6,11.6L43.5-42
		C40.9-39.2,36.5-39.2,33.9-41.9z"/>
	<polygon id="Star" class="st17" points="164.2,-173.2 149,-143.4 172.8,-119.7 139.7,-124.9 124.5,-95 119.2,-128.1 86.2,-133.3 
		116,-148.5 110.6,-181.6 134.4,-158 	"/>
</g>
<g id="Dagger_Icon">
	<path id="Blade1" class="st18" d="M-296.5,77.1l-61,61l-54,54l10.7,10.7l61.6-61.6C-339.2,141.3-295.6,98.9-296.5,77.1z"/>
	
		<rect id="Hilt1" x="-365.9" y="147.9" transform="matrix(0.7071 -0.7071 0.7071 0.7071 -219.8741 -208.6479)" class="st14" width="8.2" height="26.4"/>
	
		<rect id="Handle1" x="-395" y="152.3" transform="matrix(0.7071 0.7071 -0.7071 0.7071 12.9375 326.3138)" class="st14" width="15.2" height="53"/>
	<path id="Blade2" class="st18" d="M-288.7,117.9l-52.3,52.3l-46.3,46.3l9.2,9.2l52.7-52.7C-325.3,172.9-287.9,136.6-288.7,117.9z"
		/>
	
		<rect id="Hilt2" x="-348.2" y="178.5" transform="matrix(0.7071 -0.7071 0.7071 0.7071 -235.1875 -188.1076)" class="st14" width="7" height="22.6"/>
	
		<rect id="Handle2" x="-373.1" y="182.3" transform="matrix(0.7071 0.7071 -0.7071 0.7071 37.5713 319.2681)" class="st14" width="13" height="45.4"/>
</g>
<g id="Two_Spells_Icon">
	<path id="iceInnerColour" class="st19" d="M-182.1,115.3c0,0-9.6-22.2,14.4-14.4c13.6,4.4,24.8,6.5,32.1,7.6
		c5.1,0.7,9.4,4.2,11.2,9c2,5.4,5.4,12.5,10.6,17.7c9.8,9.8,11.4,32.6,11.4,32.6s4.3,12.2,15.6,19s1.3,10.9,1.3,10.9
		s-13.4,0.9-23.2-9.2c-9.8-10-26.3-9.8-26.3-9.8s-12.5-4.7-17.8-17.8c-3.3-8.2-11.2-13.5-16.6-16.3c-3.6-1.8-6.3-5.1-7.3-9
		L-182.1,115.3z"/>
	<g id="lineArt">
		<g>
			<g>
				<path class="st19" d="M-176,129.9c7.1,1.4,14.4,2,21.2,4.3c6.8,2.4,13.4,6.9,15.9,13.7c1,2.8,1.3,5.8,2.3,8.5
					c2.6,6.8,9.5,11,16.4,13.6"/>
				<g>
					<path class="st19" d="M-176.7,132.3c12.3,2.4,30.8,2.9,35.6,17.2c1.9,5.5,2.4,10.4,6.6,14.8c3.7,3.9,8.6,6.3,13.6,8.3
						c3,1.2,4.3-3.6,1.3-4.8c-6.5-2.6-13-6.4-15.2-13.5c-1.7-5.5-2.5-10.2-6.6-14.5c-8.8-9.2-22.2-9.9-34-12.1
						C-178.5,126.8-179.8,131.7-176.7,132.3L-176.7,132.3z"/>
				</g>
			</g>
			<g>
				<path class="st19" d="M-132.4,149.7c7.1,5.1,14.4,10,21.8,14.6c2.7,1.7,5.5,3.3,7.9,5.5"/>
				<g>
					<path class="st19" d="M-133.6,151.9c4.8,3.5,9.7,6.8,14.7,10c4.8,3.1,10.1,5.9,14.5,9.6c2.4,2.1,6-1.5,3.5-3.5
						c-9.2-7.8-20.4-13.4-30.2-20.4C-133.7,145.7-136.2,150-133.6,151.9L-133.6,151.9z"/>
				</g>
			</g>
			<g>
				<path class="st19" d="M-116.9,176.3c-0.2,1.8,0.4,3.7,1.5,5.1"/>
				<g>
					<path class="st19" d="M-119.4,176.3c-0.2,2.2,0.5,4.5,1.8,6.3c0.8,1.1,2.2,1.6,3.4,0.9c1.1-0.6,1.7-2.3,0.9-3.4
						c-0.9-1.2-1.3-2.3-1.2-3.8c0.1-1.3-1.2-2.5-2.5-2.5C-118.3,173.8-119.3,174.9-119.4,176.3L-119.4,176.3z"/>
				</g>
			</g>
			<g>
				<path class="st19" d="M-169.1,110.7c3.1,2.9,6.2,5.8,9.9,8c3.6,2.2,7.8,3.7,12.1,3.3c3.7-0.3,7.1-1.9,10.3-3.6"/>
				<g>
					<path class="st19" d="M-170.9,112.5c5.1,4.8,10.6,9.8,17.5,11.5c6.4,1.6,12.1-0.3,17.8-3.4c2.8-1.5,0.3-5.8-2.5-4.3
						c-4.9,2.7-9.9,4.4-15.4,2.4c-5.4-1.9-9.7-5.9-13.8-9.8C-169.7,106.7-173.2,110.3-170.9,112.5L-170.9,112.5z"/>
				</g>
			</g>
		</g>
		<g>
			<g>
				<g>
					<path class="st20" d="M-176.7,132.3c12.3,2.4,30.8,2.9,35.6,17.2c1.9,5.5,2.4,10.4,6.6,14.8c3.7,3.9,8.6,6.3,13.6,8.3
						c3,1.2,4.3-3.6,1.3-4.8c-6.5-2.6-13-6.4-15.2-13.5c-1.7-5.5-2.5-10.2-6.6-14.5c-8.8-9.2-22.2-9.9-34-12.1
						C-178.5,126.8-179.8,131.7-176.7,132.3L-176.7,132.3z"/>
				</g>
			</g>
			<g>
				<g>
					<path class="st20" d="M-133.6,151.9c4.8,3.5,9.7,6.8,14.7,10c4.8,3.1,10.1,5.9,14.5,9.6c2.4,2.1,6-1.5,3.5-3.5
						c-9.2-7.8-20.4-13.4-30.2-20.4C-133.7,145.7-136.2,150-133.6,151.9L-133.6,151.9z"/>
				</g>
			</g>
			<g>
				<g>
					<path class="st20" d="M-119.4,176.3c-0.2,2.2,0.5,4.5,1.8,6.3c0.8,1.1,2.2,1.6,3.4,0.9c1.1-0.6,1.7-2.3,0.9-3.4
						c-0.9-1.2-1.3-2.3-1.2-3.8c0.1-1.3-1.2-2.5-2.5-2.5C-118.3,173.8-119.3,174.9-119.4,176.3L-119.4,176.3z"/>
				</g>
			</g>
			<g>
				<g>
					<path class="st20" d="M-170.9,112.5c5.1,4.8,10.6,9.8,17.5,11.5c6.4,1.6,12.1-0.3,17.8-3.4c2.8-1.5,0.3-5.8-2.5-4.3
						c-4.9,2.7-9.9,4.4-15.4,2.4c-5.4-1.9-9.7-5.9-13.8-9.8C-169.7,106.7-173.2,110.3-170.9,112.5L-170.9,112.5z"/>
				</g>
			</g>
		</g>
	</g>
	<path id="iceLineArt_1_" class="st21" d="M-182.1,115.3c0,0-9.6-22.2,14.4-14.4c13.6,4.4,24.8,6.5,32.1,7.6c5.1,0.7,9.4,4.2,11.2,9
		c2,5.4,5.4,12.5,10.6,17.7c9.8,9.8,11.4,32.6,11.4,32.6s4.3,12.2,15.6,19s1.3,10.9,1.3,10.9s-13.4,0.9-23.2-9.2
		c-9.8-10-26.3-9.8-26.3-9.8s-12.5-4.7-17.8-17.8c-3.3-8.2-11.2-13.5-16.6-16.3c-3.6-1.8-6.3-5.1-7.3-9L-182.1,115.3z"/>
	<path id="outFlame" class="st22" d="M-78.9,191.2c0,0,26.1-3.4,26.1-26.1c0,0,0-11,11.5-22.3c11.4-11.3,6-25.1,6-25.1
		s-6,16.2-12,11.4c-6-4.8,1.8-25.9,9.3-31.9c7.5-6-0.3-27.7-4.5-34.9c0,0-1.8,31.3-19.2,45.1S-75.3,86.3-56.5,80
		c0,0-55.2,7.3-48.6,85C-105,165-105.1,188.3-78.9,191.2z"/>
	<circle id="fireBall" class="st23" cx="-79.1" cy="165.4" r="24"/>
	<circle id="innFlame" class="st24" cx="-73.8" cy="174.3" r="17.1"/>
</g>
<g id="Spell__x26__Sword_Icon">
	<path id="Handle_1_" class="st25" d="M54.2,148.6l19.5,19.5l-36.7,36.7c-2.3,2.3-6,2.3-8.3,0l-11.3-11.3c-2.3-2.3-2.3-6,0-8.3
		L54.2,148.6z"/>
	<path id="Pommel_1_" class="st26" d="M39.1,202.9c0,0-3.6,17.6-17.6,17.6c-11.8,1-20-12.2-20-20c0.8-12.5,18.1-17.1,18.1-17.1
		L39.1,202.9z"/>
	<path id="mainFlame" class="st27" d="M91.7,163c0,0,8.9-9.2,10.3-14.9c1-4.5,11.9-8.9,16.3-10.5c1.4-0.5,2.7-1.3,3.9-2.4
		c3.2-3,9.6-9.6,12.1-17.9c3.4-11.2,27.9-18.9,27.9-18.9s25.7-5.6,30.3-18.8c4.6-13.2,13-52.9-19-76.6c0,0,12,27.2-0.7,30.1
		c-12.7,2.9-15.1-12.3-15.1-12.3s-6.4,14.6,0,22.5s-28.1,10.5-23.4-21.2c0,0-23.2,21.1-9.9,43.6c13.3,22.5-16.5,12.6-16.5,12.6
		s-23.8-9.9-5.9-50.2c0,0-38.6,58-2.5,79.9c0,0,9.4,16.4-12,11.5c-2-0.5-4.2-0.1-6,1c-3,1.9-7.6,3.5-8.5-4.7
		c-0.9-8.6-16.4,10.1-8.9,20.6C71.5,147.1,91.7,163,91.7,163z"/>
	<path id="flameAdditive" class="st28" d="M189.2,58.2c1.3,2.1,1.7,4.6,1.5,7c-0.9,7.7-2.1,27.3-31.4,30
		c-13.1,1.2-26.9,12.3-30.4,22.8c0,0-0.8,13.4-22.4,20.9c0,0-9.9,6.3-11.7,16.2c-1.5,7.9-22.2-13.3-22.2-13.3s35.7-8.3,37-16.8
		s11.6-34.4,37-43.6s30.1-19.5,30.1-19.5S184.2,50.2,189.2,58.2z"/>
	<path id="Hilt_1_" class="st25" d="M52.3,99.6c1.6-2.8,5.8-1.7,5.9,1.5c0.2,9.8,4.3,24.4,21.3,41.4c18.7,18.7,34.9,22,44.7,21.7
		c2.6-0.1,3.6,3.2,1.5,4.6c-13.2,8.3-39.3,18.6-64.8-6.9C36.8,137.9,44.4,113.4,52.3,99.6z"/>
	<circle id="Bezzel_1_" class="st29" cx="70.5" cy="151.5" r="6.5"/>
	<circle id="Gem_1_" class="st30" cx="70.5" cy="151.5" r="3.4"/>
</g>
<g id="Bow" class="st3">
	<path id="lowerBow" class="st8" d="M-417.9-226.7c0,0,24.1,31.4,54.9,20.1c30.8-11.3,57.7,46.9,57.7,46.9l9.9-6.2
		c0,0-31.9-70.6-73.8-53.8C-369.2-219.7-384-208.7-417.9-226.7z"/>
	<path id="upperBow" class="st8" d="M-306.9-32.2c0,0-14.5-36.9,11.1-57.4s-10.3-71.4-10.3-71.4l10.4-7.5c0,0,44,63.8,8,91
		C-287.7-77.5-304.9-70.4-306.9-32.2z"/>
	
		<rect id="grip" x="-305.3" y="-177.6" transform="matrix(0.8576 -0.5143 0.5143 0.8576 39.8047 -176.1422)" class="st31" width="14.2" height="35.3"/>
	<line id="bowString" class="st32" x1="-414.3" y1="-225.1" x2="-306" y2="-37.4"/>
	<polygon id="arrowShaft" class="st31" points="-362.9,-137.4 -364.7,-140.7 -248.9,-210.4 -247,-207.1 	"/>
	<path id="Arrow_Head" class="st13" d="M-257.7-210.1c2.8,0.4,9,2.4,6.1,11c-0.1,0.3,0.3,0.4,0.5,0.2l18.2-18.7l-24.7,7.1
		C-258-210.6-258-210.2-257.7-210.1z"/>
	<polygon id="featherLower" class="st31" points="-362.9,-137.4 -369.1,-128.1 -344,-143.2 -340.6,-150.8 	"/>
	<polygon id="featherUpper" class="st31" points="-366.4,-141 -377.4,-139.9 -352.3,-155 -344.1,-154.3 	"/>
</g>
<g id="Spell_Bow" class="st3">
	<path id="lowerBow_1_" class="st8" d="M-198-230.2c0,0,24.1,31.4,54.9,20.1c30.8-11.3,57.7,46.9,57.7,46.9l9.9-6.2
		c0,0-31.9-70.6-73.8-53.8C-149.3-223.2-164.2-212.2-198-230.2z"/>
	<path id="upperBow_1_" class="st8" d="M-87-35.7c0,0-14.5-36.9,11.1-57.4s-10.3-71.4-10.3-71.4l10.4-7.5c0,0,44,63.8,8,91
		C-67.9-81-85-73.9-87-35.7z"/>
	
		<rect id="grip_1_" x="-85.5" y="-181.1" transform="matrix(0.8576 -0.5143 0.5143 0.8576 72.9072 -63.5758)" class="st31" width="14.2" height="35.3"/>
	<line id="bowString_1_" class="st32" x1="-194.5" y1="-228.6" x2="-86.2" y2="-40.9"/>
	<polygon id="arrowShaft_1_" class="st31" points="-143,-140.9 -144.9,-144.2 -29,-213.9 -27.1,-210.6 	"/>
	<polygon id="featherLower_1_" class="st31" points="-143,-140.9 -149.2,-131.6 -124.1,-146.7 -120.8,-154.3 	"/>
	<polygon id="featherUpper_1_" class="st31" points="-146.5,-144.5 -157.5,-143.4 -132.4,-158.5 -124.3,-157.8 	"/>
	<circle id="fireOrb" class="st33" cx="-24.1" cy="-215.3" r="8.8"/>
	<circle id="orbGlow" class="st34" cx="-18.5" cy="-213.9" r="3.8"/>
</g>
<g id="Evil_Staff" class="st3">
	<circle class="st35" cx="143.2" cy="-146.5" r="18.2"/>
	<circle class="st35" cx="154.8" cy="-144.5" r="5.2"/>
	<path class="st32" d="M144.3-170.1c0,0-5.9,3.7-10.4,3.6c-4.4-0.1-15.4,5.8-16.7,16c-1.3,10.2,3.5,11.2-14.2,23.7
		c-0.9,0.6-1.8,1.3-2.7,2c-1.5,1.3-3.1,2.6-4.6,4.1C80.4-106,66-81.5,65.3-80.7c-0.9,0.9-20.4,27.9-45,32.8c0,0,45.7-1.8,66.5-38.3
		s37.9-40.1,37.9-40.1s13.1,5,22.9,2.4c1.4-0.4,2.6-1,3.8-1.9c1.4-1,3.9-2.5,6.5-2.4c0,0-11-6.2-15-3.5c-4,2.7-14.1-6.7-5.8-8.2
		s8.6-9.3,8.6-9.3s-5.4,5.3-10.6,2.3c-5.2-3.1-3-9.8,4.2-12C146.3-161,144.3-170.1,144.3-170.1z"/>
</g>
<g id="Palte_Helm" class="st3">
	<path id="Helm" class="st36" d="M-408.9,107.4v58.2c0,0-2.6,36.9,55.5,41.1c0,0,47.8-3.7,54.1-33.7l0.7-65.6
		c0,0-8.9-39.6-54.8-47.5C-353.4,59.9-395.4,63.8-408.9,107.4z"/>
	<path id="Visor" class="st37" d="M-313.4,119.7v13c0,0-40.8,38.9-79.7,0v-13C-393.1,119.7-353.2,150-313.4,119.7z"/>
	<g id="Left" class="st38">
		<circle id="holeMiddleLeft" cx="-372.2" cy="171.1" r="3.9"/>
		<circle id="holeBottomLeft" cx="-385" cy="180.6" r="3.9"/>
		<circle id="holeTopLeft" cx="-385" cy="161.5" r="3.9"/>
	</g>
	<g id="Left_1_" class="st38">
		<circle id="holeMiddleLeft_1_" cx="-336" cy="171.1" r="3.9"/>
		<circle id="holeBottomLeft_1_" cx="-323.2" cy="180.6" r="3.9"/>
		<circle id="holeTopLeft_1_" cx="-323.2" cy="161.5" r="3.9"/>
	</g>
	<line id="bottomLineArt" class="st39" x1="-353.4" y1="206.6" x2="-353.4" y2="175.8"/>
	<line id="topLineart" class="st39" x1="-353.4" y1="59.9" x2="-353.4" y2="81.4"/>
</g>
</svg>
