<?xml version="1.0" encoding="utf-8"?>
<!-- Generator: Adobe Illustrator 23.0.1, SVG Export Plug-In . SVG Version: 6.00 Build 0)  -->
<svg version="1.1" xmlns="http://www.w3.org/2000/svg" xmlns:xlink="http://www.w3.org/1999/xlink" x="0px" y="0px"
	 viewBox="0 0 152.5 141.4" style="enable-background:new 0 0 152.5 141.4;" xml:space="preserve">
<style type="text/css">
	.st0{fill:none;}
	.st1{fill:#DF4598;}
	.st2{fill:#FFFFFF;}
	.st3{display:none;}
	.st4{display:inline;fill:none;}
	.st5{display:inline;fill:#DF4598;}
	.st6{display:inline;fill:#FFFFFF;}
	.st7{display:inline;fill:#A3A3A3;stroke:#000000;stroke-width:3;stroke-miterlimit:10;}
	.st8{display:inline;fill:#8C361D;stroke:#000000;stroke-width:3;stroke-miterlimit:10;}
	.st9{display:inline;fill:#FFCD34;stroke:#000000;stroke-width:3;stroke-miterlimit:10;}
	.st10{display:inline;fill:#FFCD34;stroke:#000000;stroke-miterlimit:10;}
	.st11{display:inline;fill:#ED1C24;}
	.st12{display:inline;fill:none;stroke:#000000;stroke-width:2;stroke-miterlimit:10;}
	.st13{display:inline;fill:#A3A3A3;stroke:#000000;stroke-width:2;stroke-miterlimit:10;}
	.st14{fill:#636768;stroke:#000000;stroke-width:3;stroke-miterlimit:10;}
	.st15{fill:#898989;stroke:#000000;stroke-width:3;stroke-miterlimit:10;}
	.st16{fill:url(#Rod_1_);stroke:#000000;stroke-width:3;stroke-miterlimit:10;}
	.st17{fill:#F4D80E;stroke:#000000;stroke-width:3;stroke-miterlimit:10;}
	.st18{fill:#A3A3A3;stroke:#000000;stroke-width:3;stroke-miterlimit:10;}
	.st19{fill:#28BEEF;}
	.st20{fill:#92D7EA;}
	.st21{fill:none;stroke:#92D7EA;stroke-width:2;stroke-miterlimit:10;}
	.st22{fill:#CB2026;stroke:#EB2C24;stroke-width:3;stroke-miterlimit:10;}
	.st23{fill:#EB2C24;stroke:#EB2C24;stroke-width:3;stroke-miterlimit:10;}
	.st24{fill:#E8E62A;}
	.st25{fill:#8C361D;stroke:#000000;stroke-width:3;stroke-miterlimit:10;}
	.st26{fill:#FFCD34;stroke:#000000;stroke-width:3;stroke-miterlimit:10;}
	.st27{fill:#CB2026;stroke:#000000;stroke-width:2;stroke-miterlimit:10;}
	.st28{fill:#F7EC13;}
	.st29{fill:#FFCD34;stroke:#000000;stroke-miterlimit:10;}
	.st30{fill:#ED1C24;}
	.st31{display:inline;stroke:#000000;stroke-width:3;stroke-miterlimit:10;}
	.st32{display:inline;fill:#8C361D;stroke:#000000;stroke-width:2;stroke-miterlimit:10;}
	.st33{display:inline;fill:#ED1C24;stroke:#EF4136;stroke-width:2;stroke-miterlimit:10;}
	.st34{display:inline;fill:#F9ED32;}
	.st35{display:inline;fill:#006838;stroke:#8DC63F;stroke-width:2;stroke-miterlimit:10;}
	.st36{display:inline;fill:#A3A3A3;stroke:#000000;stroke-width:4;stroke-miterlimit:10;}
	.st37{display:inline;stroke:#000000;stroke-miterlimit:10;}
	.st38{display:inline;}
	.st39{display:inline;fill:none;stroke:#000000;stroke-miterlimit:10;}
</style>
<pattern  x="-299.5" y="-345.1" width="154" height="120.1" patternUnits="userSpaceOnUse" id="Unnamed_Pattern" viewBox="84.8 -209.8 154 120.1" style="overflow:visible;">
	<g>
		<rect x="84.8" y="-209.8" class="st0" width="154" height="120.1"/>
		<polygon class="st1" points="169.5,-21.4 148.3,0 0,-149.7 21.2,-171 		"/>
		<polygon class="st2" points="186.2,-38.2 165,-16.8 16.7,-166.5 37.8,-187.8 		"/>
		<polygon class="st2" points="223,-75.3 201.8,-54 53.5,-203.7 74.7,-225 		"/>
		<polygon class="st2" points="258.1,-110.7 236.9,-89.4 88.6,-239.1 109.7,-260.4 		"/>
		<polygon class="st2" points="286.5,-139.4 265.3,-118.1 117,-267.7 138.2,-289.1 		"/>
		<polygon class="st1" points="198.7,-60.8 177.5,-39.4 34.1,-184.1 55.3,-205.5 		"/>
		<polygon class="st1" points="237.2,-89.7 216,-68.3 67.7,-218 88.9,-239.4 		"/>
		<polygon class="st1" points="270.9,-123.7 249.7,-102.3 101.4,-252 122.6,-273.4 		"/>
		<polygon class="st1" points="303.7,-156.8 282.6,-135.5 134.2,-285.1 155.4,-306.5 		"/>
	</g>
</pattern>
<g id="Swatch" class="st3">
	<rect x="223.2" y="-215" class="st4" width="154" height="120.1"/>
	<polygon class="st5" points="308,-26.5 286.8,-5.1 138.5,-154.8 159.7,-176.2 	"/>
	<polygon class="st6" points="324.6,-43.3 303.5,-21.9 155.1,-171.6 176.3,-193 	"/>
	<polygon class="st6" points="361.5,-80.4 340.3,-59.1 192,-208.8 213.1,-230.1 	"/>
	<polygon class="st6" points="396.6,-115.9 375.4,-94.5 227.1,-244.2 248.2,-265.5 	"/>
	<polygon class="st6" points="425,-144.5 403.8,-123.2 255.5,-272.9 276.7,-294.2 	"/>
	<polygon class="st5" points="337.2,-65.9 316,-44.5 172.6,-189.2 193.8,-210.6 	"/>
	<polygon class="st5" points="375.7,-94.8 354.5,-73.4 206.2,-223.1 227.4,-244.5 	"/>
	<polygon class="st5" points="409.4,-128.8 388.2,-107.4 239.9,-257.1 261.1,-278.5 	"/>
	<polygon class="st5" points="442.2,-161.9 421.1,-140.6 272.7,-290.3 293.9,-311.6 	"/>
</g>
<g id="Sword_Icon" class="st3">
	<polygon id="Blade" class="st7" points="-12.4,-275.5 -54.3,-265.2 -143,-166.7 -121.2,-144.8 -22.6,-235 	"/>
	<path id="Handle" class="st8" d="M-157.7-150l19.5,19.5l-36.7,36.7c-2.3,2.3-6,2.3-8.3,0l-11.3-11.3c-2.3-2.3-2.3-6,0-8.3
		L-157.7-150z"/>
	<path id="Pommel" class="st9" d="M-172.8-95.8c0,0-3.6,17.6-17.6,17.6c-11.8,1-20-12.2-20-20c0.8-12.5,18.1-17.1,18.1-17.1
		L-172.8-95.8z"/>
	<path id="Hilt" class="st8" d="M-159.6-199c1.6-2.8,5.8-1.7,5.9,1.5c0.2,9.8,4.3,24.4,21.3,41.4c18.7,18.7,34.9,22,44.7,21.7
		c2.6-0.1,3.6,3.2,1.5,4.6c-13.2,8.3-39.3,18.6-64.8-6.9C-175.1-160.7-167.5-185.2-159.6-199z"/>
	<circle id="Bezzel" class="st10" cx="-141.4" cy="-147.2" r="6.5"/>
	<circle id="Gem" class="st11" cx="-141.4" cy="-147.2" r="3.4"/>
	<polyline id="Sword_Edge" class="st12" points="-22.6,-235 -44.5,-244.1 -54.3,-265.2 	"/>
	<line id="Sword_Edge_2" class="st13" x1="-44.5" y1="-244.1" x2="-132.5" y2="-156.1"/>
</g>
<g id="Shield_Icon">
	<path id="outerRim" class="st14" d="M100.7-268.1l-68.6,41c0,0-17,99.8,68.6,147.4c0,0,80.5-36.5,68.7-147.4L100.7-268.1z"/>
	<path id="innerRim" class="st15" d="M100.7-250.2L43.5-216c0,0-14.2,83.4,57.3,123.1c0,0,67.3-30.5,57.4-123.1L100.7-250.2z"/>
</g>
<g id="Wand_Icon">
	
		<pattern  id="Rod_1_" xlink:href="#Unnamed_Pattern" patternTransform="matrix(0.7071 0.7071 -0.7071 0.7071 -7458.2041 3117.887)">
	</pattern>
	<path id="Rod" class="st16" d="M218.9-99.1l-4.6-4.6c-2.7-2.7-2.7-7,0.1-9.7l83.4-77.9l11.6,11.6l-80.8,80.5
		C225.9-96.5,221.6-96.5,218.9-99.1z"/>
	<polygon id="Star" class="st17" points="349.2,-230.5 334.1,-200.6 357.8,-177 324.7,-182.2 309.6,-152.3 304.3,-185.4 
		271.2,-190.5 301,-205.8 295.7,-238.9 319.4,-215.2 	"/>
</g>
<g id="Dagger_Icon">
	<path id="Blade1" class="st18" d="M-111.4,19.8l-61,61l-54,54l10.7,10.7l61.6-61.6C-154.2,84-110.5,41.7-111.4,19.8z"/>
	
		<rect id="Hilt1" x="-180.9" y="90.6" transform="matrix(0.7071 -0.7071 0.7071 0.7071 -125.1855 -94.5875)" class="st14" width="8.2" height="26.4"/>
	
		<rect id="Handle1" x="-210" y="95" transform="matrix(0.7071 0.7071 -0.7071 0.7071 26.6355 178.706)" class="st14" width="15.2" height="53"/>
	<path id="Blade2" class="st18" d="M-103.7,60.7l-52.3,52.3l-46.3,46.3l9.2,9.2l52.7-52.7C-140.3,115.6-102.9,79.3-103.7,60.7z"/>
	
		<rect id="Hilt2" x="-163.2" y="121.3" transform="matrix(0.7071 -0.7071 0.7071 0.7071 -140.499 -74.0472)" class="st14" width="7" height="22.6"/>
	
		<rect id="Handle2" x="-188.1" y="125" transform="matrix(0.7071 0.7071 -0.7071 0.7071 51.2692 171.6603)" class="st14" width="13" height="45.4"/>
</g>
<g id="Two_Spells_Icon">
	<path id="iceInnerColour" class="st19" d="M2.9,58c0,0-9.6-22.2,14.4-14.4c13.6,4.4,24.8,6.5,32.1,7.6c5.1,0.7,9.4,4.2,11.2,9
		c2,5.4,5.4,12.5,10.6,17.7c9.8,9.8,11.4,32.6,11.4,32.6s4.3,12.2,15.6,19s1.3,10.9,1.3,10.9s-13.4,0.9-23.2-9.2s-26.3-9.8-26.3-9.8
		s-12.5-4.7-17.8-17.8c-3.3-8.2-11.2-13.5-16.6-16.3c-3.6-1.8-6.3-5.1-7.3-9L2.9,58z"/>
	<g id="lineArt">
		<g>
			<g>
				<path class="st19" d="M9,72.6c7.1,1.4,14.4,2,21.2,4.3s13.4,6.9,15.9,13.7c1,2.8,1.3,5.8,2.3,8.5c2.6,6.8,9.5,11,16.4,13.6"/>
				<g>
					<path class="st19" d="M8.4,75c12.3,2.4,30.8,2.9,35.6,17.2c1.9,5.5,2.4,10.4,6.6,14.8c3.7,3.9,8.6,6.3,13.6,8.3
						c3,1.2,4.3-3.6,1.3-4.8c-6.5-2.6-13-6.4-15.2-13.5c-1.7-5.5-2.5-10.2-6.6-14.5c-8.8-9.2-22.2-9.9-34-12.1
						C6.6,69.6,5.2,74.4,8.4,75L8.4,75z"/>
				</g>
			</g>
			<g>
				<path class="st19" d="M52.7,92.4c7.1,5.1,14.4,10,21.8,14.6c2.7,1.7,5.5,3.3,7.9,5.5"/>
				<g>
					<path class="st19" d="M51.4,94.6c4.8,3.5,9.7,6.8,14.7,10c4.8,3.1,10.1,5.9,14.5,9.6c2.4,2.1,6-1.5,3.5-3.5
						c-9.2-7.8-20.4-13.4-30.2-20.4C51.3,88.4,48.8,92.7,51.4,94.6L51.4,94.6z"/>
				</g>
			</g>
			<g>
				<path class="st19" d="M68.1,119c-0.2,1.8,0.4,3.7,1.5,5.1"/>
				<g>
					<path class="st19" d="M65.6,119c-0.2,2.2,0.5,4.5,1.8,6.3c0.8,1.1,2.2,1.6,3.4,0.9c1.1-0.6,1.7-2.3,0.9-3.4
						c-0.9-1.2-1.3-2.3-1.2-3.8c0.1-1.3-1.2-2.5-2.5-2.5C66.7,116.5,65.7,117.7,65.6,119L65.6,119z"/>
				</g>
			</g>
			<g>
				<path class="st19" d="M15.9,53.4c3.1,2.9,6.2,5.8,9.9,8s7.8,3.7,12.1,3.3c3.7-0.3,7.1-1.9,10.3-3.6"/>
				<g>
					<path class="st19" d="M14.1,55.2C19.3,60,24.7,65,31.7,66.7c6.4,1.6,12.1-0.3,17.8-3.4c2.8-1.5,0.3-5.8-2.5-4.3
						c-4.9,2.7-9.9,4.4-15.4,2.4c-5.4-1.9-9.7-5.9-13.8-9.8C15.3,49.5,11.8,53,14.1,55.2L14.1,55.2z"/>
				</g>
			</g>
		</g>
		<g>
			<g>
				<g>
					<path class="st20" d="M8.4,75c12.3,2.4,30.8,2.9,35.6,17.2c1.9,5.5,2.4,10.4,6.6,14.8c3.7,3.9,8.6,6.3,13.6,8.3
						c3,1.2,4.3-3.6,1.3-4.8c-6.5-2.6-13-6.4-15.2-13.5c-1.7-5.5-2.5-10.2-6.6-14.5c-8.8-9.2-22.2-9.9-34-12.1
						C6.6,69.6,5.2,74.4,8.4,75L8.4,75z"/>
				</g>
			</g>
			<g>
				<g>
					<path class="st20" d="M51.4,94.6c4.8,3.5,9.7,6.8,14.7,10c4.8,3.1,10.1,5.9,14.5,9.6c2.4,2.1,6-1.5,3.5-3.5
						c-9.2-7.8-20.4-13.4-30.2-20.4C51.3,88.4,48.8,92.7,51.4,94.6L51.4,94.6z"/>
				</g>
			</g>
			<g>
				<g>
					<path class="st20" d="M65.6,119c-0.2,2.2,0.5,4.5,1.8,6.3c0.8,1.1,2.2,1.6,3.4,0.9c1.1-0.6,1.7-2.3,0.9-3.4
						c-0.9-1.2-1.3-2.3-1.2-3.8c0.1-1.3-1.2-2.5-2.5-2.5C66.7,116.5,65.7,117.7,65.6,119L65.6,119z"/>
				</g>
			</g>
			<g>
				<g>
					<path class="st20" d="M14.1,55.2C19.3,60,24.7,65,31.7,66.7c6.4,1.6,12.1-0.3,17.8-3.4c2.8-1.5,0.3-5.8-2.5-4.3
						c-4.9,2.7-9.9,4.4-15.4,2.4c-5.4-1.9-9.7-5.9-13.8-9.8C15.3,49.5,11.8,53,14.1,55.2L14.1,55.2z"/>
				</g>
			</g>
		</g>
	</g>
	<path id="iceLineArt_1_" class="st21" d="M2.9,58c0,0-9.6-22.2,14.4-14.4c13.6,4.4,24.8,6.5,32.1,7.6c5.1,0.7,9.4,4.2,11.2,9
		c2,5.4,5.4,12.5,10.6,17.7c9.8,9.8,11.4,32.6,11.4,32.6s4.3,12.2,15.6,19s1.3,10.9,1.3,10.9s-13.4,0.9-23.2-9.2s-26.3-9.8-26.3-9.8
		s-12.5-4.7-17.8-17.8c-3.3-8.2-11.2-13.5-16.6-16.3c-3.6-1.8-6.3-5.1-7.3-9L2.9,58z"/>
	<path id="outFlame" class="st22" d="M106.1,133.9c0,0,26.1-3.4,26.1-26.1c0,0,0-11,11.5-22.3s6-25.1,6-25.1s-6,16.2-12,11.4
		c-6-4.8,1.8-25.9,9.3-31.9c7.5-6-0.3-27.7-4.5-34.9c0,0-1.8,31.3-19.2,45.1s-13.5-21.1,5.3-27.4c0,0-55.2,7.3-48.6,85
		C80,107.8,80,131,106.1,133.9z"/>
	<circle id="fireBall" class="st23" cx="105.9" cy="108.1" r="24"/>
	<circle id="innFlame" class="st24" cx="111.3" cy="117.1" r="17.1"/>
</g>
<g id="Spell__x26__Sword_Icon">
	<path id="Handle_1_" class="st25" d="M239.3,91.4l19.5,19.5l-36.7,36.7c-2.3,2.3-6,2.3-8.3,0l-11.3-11.3c-2.3-2.3-2.3-6,0-8.3
		L239.3,91.4z"/>
	<path id="Pommel_1_" class="st26" d="M224.1,145.6c0,0-3.6,17.6-17.6,17.6c-11.8,1-20-12.2-20-20c0.8-12.5,18.1-17.1,18.1-17.1
		L224.1,145.6z"/>
	<path id="mainFlame" class="st27" d="M276.7,105.7c0,0,8.9-9.2,10.3-14.9c1-4.5,11.9-8.9,16.3-10.5c1.4-0.5,2.7-1.3,3.9-2.4
		c3.2-3,9.6-9.6,12.1-17.9c3.4-11.2,27.9-18.9,27.9-18.9s25.7-5.6,30.3-18.8s13-52.9-19-76.6c0,0,12,27.2-0.7,30.1
		c-12.7,2.9-15.1-12.3-15.1-12.3s-6.4,14.6,0,22.5C349.1-6,314.6-3.3,319.3-35c0,0-23.2,21.1-9.9,43.6
		c13.3,22.5-16.5,12.6-16.5,12.6s-23.8-9.9-5.9-50.2c0,0-38.6,58-2.5,79.9c0,0,9.4,16.4-12,11.5c-2-0.5-4.2-0.1-6,1
		c-3,1.9-7.6,3.5-8.5-4.7c-0.9-8.6-16.4,10.1-8.9,20.6C256.6,89.8,276.7,105.7,276.7,105.7z"/>
	<path id="flameAdditive" class="st28" d="M374.2,0.9c1.3,2.1,1.7,4.6,1.5,7c-0.9,7.7-2.1,27.3-31.4,30
		c-13.1,1.2-26.9,12.3-30.4,22.8c0,0-0.8,13.4-22.4,20.9c0,0-9.9,6.3-11.7,16.2c-1.5,7.9-22.2-13.3-22.2-13.3s35.7-8.3,37-16.8
		s11.6-34.4,37-43.6c25.4-9.2,30.1-19.5,30.1-19.5S369.2-7,374.2,0.9z"/>
	<path id="Hilt_1_" class="st25" d="M237.4,42.4c1.6-2.8,5.8-1.7,5.9,1.5c0.2,9.8,4.3,24.4,21.3,41.4c18.7,18.7,34.9,22,44.7,21.7
		c2.6-0.1,3.6,3.2,1.5,4.6c-13.2,8.3-39.3,18.6-64.8-6.9C221.8,80.6,229.5,56.2,237.4,42.4z"/>
	<circle id="Bezzel_1_" class="st29" cx="255.6" cy="94.2" r="6.5"/>
	<circle id="Gem_1_" class="st30" cx="255.6" cy="94.2" r="3.4"/>
</g>
<g id="Bow" class="st3">
	<path id="lowerBow" class="st8" d="M-232.8-283.9c0,0,24.1,31.4,54.9,20.1c30.8-11.3,57.7,46.9,57.7,46.9l9.9-6.2
		c0,0-31.9-70.6-73.8-53.8C-184.2-277-199-265.9-232.8-283.9z"/>
	<path id="upperBow" class="st8" d="M-121.9-89.5c0,0-14.5-36.9,11.1-57.4s-10.3-71.4-10.3-71.4l10.4-7.5c0,0,44,63.8,8,91
		C-102.7-134.8-119.8-127.7-121.9-89.5z"/>
	
		<rect id="grip" x="-120.3" y="-234.9" transform="matrix(0.8576 -0.5143 0.5143 0.8576 95.6003 -89.1406)" class="st31" width="14.2" height="35.3"/>
	<line id="bowString" class="st32" x1="-229.3" y1="-282.3" x2="-121" y2="-94.6"/>
	<polygon id="arrowShaft" class="st31" points="-177.8,-194.7 -179.7,-198 -63.8,-267.7 -61.9,-264.3 	"/>
	<path id="Arrow_Head" class="st13" d="M-72.7-267.4c2.8,0.4,9,2.4,6.1,11c-0.1,0.3,0.3,0.4,0.5,0.2l18.2-18.7l-24.7,7.1
		C-72.9-267.8-73-267.5-72.7-267.4z"/>
	<polygon id="featherLower" class="st31" points="-177.8,-194.7 -184.1,-185.3 -159,-200.4 -155.6,-208 	"/>
	<polygon id="featherUpper" class="st31" points="-181.4,-198.2 -192.3,-197.2 -167.2,-212.3 -159.1,-211.6 	"/>
</g>
<g id="Spell_Bow" class="st3">
	<path id="lowerBow_1_" class="st8" d="M-13-287.4c0,0,24.1,31.4,54.9,20.1c30.8-11.3,57.7,46.9,57.7,46.9l9.9-6.2
		c0,0-31.9-70.6-73.8-53.8C35.7-280.5,20.8-269.4-13-287.4z"/>
	<path id="upperBow_1_" class="st8" d="M98-93c0,0-14.5-36.9,11.1-57.4s-10.3-71.4-10.3-71.4l10.4-7.5c0,0,44,63.8,8,91
		C117.1-138.3,100-131.2,98-93z"/>
	
		<rect id="grip_1_" x="99.6" y="-238.4" transform="matrix(0.8576 -0.5143 0.5143 0.8576 128.7028 23.4258)" class="st31" width="14.2" height="35.3"/>
	<line id="bowString_1_" class="st32" x1="-9.4" y1="-285.8" x2="98.8" y2="-98.1"/>
	<polygon id="arrowShaft_1_" class="st31" points="42,-198.2 40.1,-201.5 156,-271.2 157.9,-267.8 	"/>
	<polygon id="featherLower_1_" class="st31" points="42,-198.2 35.8,-188.8 60.9,-203.9 64.3,-211.5 	"/>
	<polygon id="featherUpper_1_" class="st31" points="38.5,-201.7 27.5,-200.7 52.6,-215.8 60.7,-215.1 	"/>
	<circle id="fireOrb" class="st33" cx="161" cy="-272.5" r="8.8"/>
	<circle id="orbGlow" class="st34" cx="166.6" cy="-271.2" r="3.8"/>
</g>
<g id="Evil_Staff" class="st3">
	<circle class="st35" cx="328.2" cy="-203.7" r="18.2"/>
	<circle class="st35" cx="339.8" cy="-201.8" r="5.2"/>
	<path class="st32" d="M329.3-227.4c0,0-5.9,3.7-10.4,3.6c-4.4-0.1-15.4,5.8-16.7,16c-1.3,10.2,3.5,11.2-14.2,23.7
		c-0.9,0.6-1.8,1.3-2.7,2c-1.5,1.3-3.1,2.6-4.6,4.1c-15.3,14.7-29.7,39.2-30.4,40c-0.9,0.9-20.4,27.9-45,32.8
		c0,0,45.7-1.8,66.5-38.3c20.8-36.5,37.9-40.1,37.9-40.1s13.1,5,22.9,2.4c1.4-0.4,2.6-1,3.8-1.9c1.4-1,3.9-2.5,6.5-2.4
		c0,0-11-6.2-15-3.5c-4,2.7-14.1-6.7-5.8-8.2c8.3-1.5,8.6-9.3,8.6-9.3s-5.4,5.3-10.6,2.3c-5.2-3.1-3-9.8,4.2-12
		C331.3-218.3,329.3-227.4,329.3-227.4z"/>
</g>
<g id="Palte_Helm" class="st3">
	<path id="Helm" class="st36" d="M-223.9,50.1v58.2c0,0-2.6,36.9,55.5,41.1c0,0,47.8-3.7,54.1-33.7l0.7-65.6c0,0-8.9-39.6-54.8-47.5
		C-168.4,2.6-210.3,6.6-223.9,50.1z"/>
	<path id="Visor" class="st37" d="M-128.4,62.4v13c0,0-40.8,38.9-79.7,0v-13C-208.1,62.4-168.2,92.7-128.4,62.4z"/>
	<g id="Left" class="st38">
		<circle id="holeMiddleLeft" cx="-187.2" cy="113.8" r="3.9"/>
		<circle id="holeBottomLeft" cx="-199.9" cy="123.4" r="3.9"/>
		<circle id="holeTopLeft" cx="-199.9" cy="104.2" r="3.9"/>
	</g>
	<g id="Left_1_" class="st38">
		<circle id="holeMiddleLeft_1_" cx="-150.9" cy="113.8" r="3.9"/>
		<circle id="holeBottomLeft_1_" cx="-138.2" cy="123.4" r="3.9"/>
		<circle id="holeTopLeft_1_" cx="-138.2" cy="104.2" r="3.9"/>
	</g>
	<line id="bottomLineArt" class="st39" x1="-168.4" y1="149.4" x2="-168.4" y2="118.5"/>
	<line id="topLineart" class="st39" x1="-168.4" y1="2.6" x2="-168.4" y2="24.1"/>
</g>
</svg>
