<?xml version="1.0" encoding="utf-8"?>
<!-- Generator: Adobe Illustrator 23.0.1, SVG Export Plug-In . SVG Version: 6.00 Build 0)  -->
<svg version="1.1" xmlns="http://www.w3.org/2000/svg" xmlns:xlink="http://www.w3.org/1999/xlink" x="0px" y="0px"
	 viewBox="0 0 189.2 206" style="enable-background:new 0 0 189.2 206;" xml:space="preserve">
<style type="text/css">
	.st0{fill:none;}
	.st1{fill:#DF4598;}
	.st2{fill:#FFFFFF;}
	.st3{display:none;}
	.st4{display:inline;fill:none;}
	.st5{display:inline;fill:#DF4598;}
	.st6{display:inline;fill:#FFFFFF;}
	.st7{display:inline;fill:#A3A3A3;stroke:#000000;stroke-width:3;stroke-miterlimit:10;}
	.st8{display:inline;fill:#8C361D;stroke:#000000;stroke-width:3;stroke-miterlimit:10;}
	.st9{display:inline;fill:#FFCD34;stroke:#000000;stroke-width:3;stroke-miterlimit:10;}
	.st10{display:inline;fill:#FFCD34;stroke:#000000;stroke-miterlimit:10;}
	.st11{display:inline;fill:#ED1C24;}
	.st12{display:inline;fill:none;stroke:#000000;stroke-width:2;stroke-miterlimit:10;}
	.st13{display:inline;fill:#A3A3A3;stroke:#000000;stroke-width:2;stroke-miterlimit:10;}
	.st14{display:inline;fill:#636768;stroke:#000000;stroke-width:3;stroke-miterlimit:10;}
	.st15{display:inline;fill:#898989;stroke:#000000;stroke-width:3;stroke-miterlimit:10;}
	.st16{display:inline;fill:url(#Rod_1_);stroke:#000000;stroke-width:3;stroke-miterlimit:10;}
	.st17{display:inline;fill:#F4D80E;stroke:#000000;stroke-width:3;stroke-miterlimit:10;}
	.st18{display:inline;fill:#28BEEF;}
	.st19{display:inline;}
	.st20{fill:#28BEEF;}
	.st21{fill:#92D7EA;}
	.st22{display:inline;fill:none;stroke:#92D7EA;stroke-width:2;stroke-miterlimit:10;}
	.st23{display:inline;fill:#CB2026;stroke:#EB2C24;stroke-width:3;stroke-miterlimit:10;}
	.st24{display:inline;fill:#EB2C24;stroke:#EB2C24;stroke-width:3;stroke-miterlimit:10;}
	.st25{display:inline;fill:#E8E62A;}
	.st26{display:inline;fill:#CB2026;stroke:#000000;stroke-width:2;stroke-miterlimit:10;}
	.st27{display:inline;fill:#F7EC13;}
	.st28{fill:#8C361D;stroke:#000000;stroke-width:3;stroke-miterlimit:10;}
	.st29{stroke:#000000;stroke-width:3;stroke-miterlimit:10;}
	.st30{fill:#8C361D;stroke:#000000;stroke-width:2;stroke-miterlimit:10;}
	.st31{fill:#A3A3A3;stroke:#000000;stroke-width:2;stroke-miterlimit:10;}
	.st32{fill:#ED1C24;stroke:#EF4136;stroke-width:2;stroke-miterlimit:10;}
	.st33{fill:#F9ED32;}
	.st34{fill:#006838;stroke:#8DC63F;stroke-width:2;stroke-miterlimit:10;}
	.st35{fill:#A3A3A3;stroke:#000000;stroke-width:4;stroke-miterlimit:10;}
	.st36{stroke:#000000;stroke-miterlimit:10;}
	.st37{fill:none;stroke:#000000;stroke-miterlimit:10;}
</style>
<pattern  x="-281.1" y="-53.1" width="154" height="120.1" patternUnits="userSpaceOnUse" id="Unnamed_Pattern" viewBox="84.8 -209.8 154 120.1" style="overflow:visible;">
	<g>
		<rect x="84.8" y="-209.8" class="st0" width="154" height="120.1"/>
		<polygon class="st1" points="169.5,-21.4 148.3,0 0,-149.7 21.2,-171 		"/>
		<polygon class="st2" points="186.2,-38.2 165,-16.8 16.7,-166.5 37.8,-187.8 		"/>
		<polygon class="st2" points="223,-75.3 201.8,-54 53.5,-203.7 74.7,-225 		"/>
		<polygon class="st2" points="258.1,-110.7 236.9,-89.4 88.6,-239.1 109.7,-260.4 		"/>
		<polygon class="st2" points="286.5,-139.4 265.3,-118.1 117,-267.7 138.2,-289.1 		"/>
		<polygon class="st1" points="198.7,-60.8 177.5,-39.4 34.1,-184.1 55.3,-205.5 		"/>
		<polygon class="st1" points="237.2,-89.7 216,-68.3 67.7,-218 88.9,-239.4 		"/>
		<polygon class="st1" points="270.9,-123.7 249.7,-102.3 101.4,-252 122.6,-273.4 		"/>
		<polygon class="st1" points="303.7,-156.8 282.6,-135.5 134.2,-285.1 155.4,-306.5 		"/>
	</g>
</pattern>
<g id="Swatch" class="st3">
	<rect x="241.6" y="77.1" class="st4" width="154" height="120.1"/>
	<polygon class="st5" points="326.4,265.5 305.2,286.9 156.9,137.2 178,115.9 	"/>
	<polygon class="st6" points="343,248.7 321.9,270.1 173.5,120.4 194.7,99.1 	"/>
	<polygon class="st6" points="379.9,211.6 358.7,232.9 210.4,83.2 231.5,61.9 	"/>
	<polygon class="st6" points="415,176.2 393.8,197.5 245.4,47.8 266.6,26.5 	"/>
	<polygon class="st6" points="443.4,147.5 422.2,168.8 273.9,19.2 295,-2.2 	"/>
	<polygon class="st5" points="355.5,226.1 334.4,247.5 191,102.8 212.1,81.4 	"/>
	<polygon class="st5" points="394.1,197.2 372.9,218.6 224.6,68.9 245.7,47.5 	"/>
	<polygon class="st5" points="427.8,163.2 406.6,184.6 258.3,34.9 279.4,13.5 	"/>
	<polygon class="st5" points="460.6,130.1 439.4,151.4 291.1,1.8 312.3,-19.6 	"/>
</g>
<g id="Sword_Icon" class="st3">
	<polygon id="Blade" class="st7" points="6,16.6 -35.9,26.8 -124.6,125.4 -102.8,147.2 -4.2,57 	"/>
	<path id="Handle" class="st8" d="M-139.3,142l19.5,19.5l-36.7,36.7c-2.3,2.3-6,2.3-8.3,0L-176,187c-2.3-2.3-2.3-6,0-8.3L-139.3,142
		z"/>
	<path id="Pommel" class="st9" d="M-154.5,196.3c0,0-3.6,17.6-17.6,17.6c-11.8,1-20-12.2-20-20c0.8-12.5,18.1-17.1,18.1-17.1
		L-154.5,196.3z"/>
	<path id="Hilt" class="st8" d="M-141.2,93c1.6-2.8,5.8-1.7,5.9,1.5c0.2,9.8,4.3,24.4,21.3,41.4c18.7,18.7,34.9,22,44.7,21.7
		c2.6-0.1,3.6,3.2,1.5,4.6c-13.2,8.3-39.3,18.6-64.8-6.9C-156.8,131.3-149.1,106.8-141.2,93z"/>
	<circle id="Bezzel" class="st10" cx="-123" cy="144.8" r="6.5"/>
	<circle id="Gem" class="st11" cx="-123" cy="144.8" r="3.4"/>
	<polyline id="Sword_Edge" class="st12" points="-4.2,57 -26.1,47.9 -35.9,26.8 	"/>
	<line id="Sword_Edge_2" class="st13" x1="-26.1" y1="47.9" x2="-114.1" y2="135.9"/>
</g>
<g id="Shield_Icon" class="st3">
	<path id="outerRim" class="st14" d="M119.1,23.9l-68.6,41c0,0-17,99.8,68.6,147.4c0,0,80.5-36.5,68.7-147.4L119.1,23.9z"/>
	<path id="innerRim" class="st15" d="M119.1,41.8L61.8,76c0,0-14.2,83.4,57.3,123.1c0,0,67.3-30.5,57.4-123.1L119.1,41.8z"/>
</g>
<g id="Wand_Icon" class="st3">
	
		<pattern  id="Rod_1_" xlink:href="#Unnamed_Pattern" patternTransform="matrix(0.7071 0.7071 -0.7071 0.7071 -7624.4033 3064.2761)">
	</pattern>
	<path id="Rod" class="st16" d="M237.3,192.9l-4.6-4.6c-2.7-2.7-2.7-7,0.1-9.7l83.4-77.9l11.6,11.6l-80.8,80.5
		C244.3,195.5,240,195.6,237.3,192.9z"/>
	<polygon id="Star" class="st17" points="367.6,61.5 352.4,91.4 376.2,115 343.1,109.8 328,139.7 322.6,106.7 289.6,101.5 
		319.4,86.2 314.1,53.2 337.8,76.8 	"/>
</g>
<g id="Dagger_Icon" class="st3">
	<path id="Blade1" class="st7" d="M-93.1,311.8l-61,61l-54,54l10.7,10.7l61.6-61.6C-135.8,376-92.1,333.7-93.1,311.8z"/>
	
		<rect id="Hilt1" x="-162.5" y="382.6" transform="matrix(0.7071 -0.7071 0.7071 0.7071 -326.2878 3.9429)" class="st14" width="8.2" height="26.4"/>
	
		<rect id="Handle1" x="-191.6" y="387" transform="matrix(0.7071 0.7071 -0.7071 0.7071 238.5077 251.2352)" class="st14" width="15.2" height="53"/>
	<path id="Blade2" class="st7" d="M-85.3,352.7l-52.3,52.3l-46.3,46.3l9.2,9.2l52.7-52.7C-121.9,407.6-84.5,371.4-85.3,352.7z"/>
	
		<rect id="Hilt2" x="-144.8" y="413.3" transform="matrix(0.7071 -0.7071 0.7071 0.7071 -341.6012 24.4831)" class="st14" width="7" height="22.6"/>
	
		<rect id="Handle2" x="-169.7" y="417" transform="matrix(0.7071 0.7071 -0.7071 0.7071 263.1415 244.1896)" class="st14" width="13" height="45.4"/>
</g>
<g id="Two_Spells_Icon" class="st3">
	<path id="iceInnerColour" class="st18" d="M21.3,350c0,0-9.6-22.2,14.4-14.4c13.6,4.4,24.8,6.5,32.1,7.6c5.1,0.7,9.4,4.2,11.2,9
		c2,5.4,5.4,12.5,10.6,17.7c9.8,9.8,11.4,32.6,11.4,32.6s4.3,12.2,15.6,19s1.3,10.9,1.3,10.9s-13.4,0.9-23.2-9.2
		c-9.8-10-26.3-9.8-26.3-9.8s-12.5-4.7-17.8-17.8c-3.3-8.2-11.2-13.5-16.6-16.3c-3.6-1.8-6.3-5.1-7.3-9L21.3,350z"/>
	<g id="lineArt" class="st19">
		<g>
			<g>
				<path class="st20" d="M27.4,364.6c7.1,1.4,14.4,2,21.2,4.3c6.8,2.4,13.4,6.9,15.9,13.7c1,2.8,1.3,5.8,2.3,8.5
					c2.6,6.8,9.5,11,16.4,13.6"/>
				<g>
					<path class="st20" d="M26.8,367c12.3,2.4,30.8,2.9,35.6,17.2c1.9,5.5,2.4,10.4,6.6,14.8c3.7,3.9,8.6,6.3,13.6,8.3
						c3,1.2,4.3-3.6,1.3-4.8c-6.5-2.6-13-6.4-15.2-13.5c-1.7-5.5-2.5-10.2-6.6-14.5c-8.8-9.2-22.2-9.9-34-12.1
						C24.9,361.6,23.6,366.4,26.8,367L26.8,367z"/>
				</g>
			</g>
			<g>
				<path class="st20" d="M71.1,384.4c7.1,5.1,14.4,10,21.8,14.6c2.7,1.7,5.5,3.3,7.9,5.5"/>
				<g>
					<path class="st20" d="M69.8,386.6c4.8,3.5,9.7,6.8,14.7,10c4.8,3.1,10.1,5.9,14.5,9.6c2.4,2.1,6-1.5,3.5-3.5
						c-9.2-7.8-20.4-13.4-30.2-20.4C69.7,380.4,67.2,384.7,69.8,386.6L69.8,386.6z"/>
				</g>
			</g>
			<g>
				<path class="st20" d="M86.5,411c-0.2,1.8,0.4,3.7,1.5,5.1"/>
				<g>
					<path class="st20" d="M84,411c-0.2,2.2,0.5,4.5,1.8,6.3c0.8,1.1,2.2,1.6,3.4,0.9c1.1-0.6,1.7-2.3,0.9-3.4
						c-0.9-1.2-1.3-2.3-1.2-3.8c0.1-1.3-1.2-2.5-2.5-2.5C85.1,408.5,84.1,409.7,84,411L84,411z"/>
				</g>
			</g>
			<g>
				<path class="st20" d="M34.3,345.5c3.1,2.9,6.2,5.8,9.9,8c3.6,2.2,7.8,3.7,12.1,3.3c3.7-0.3,7.1-1.9,10.3-3.6"/>
				<g>
					<path class="st20" d="M32.5,347.2c5.1,4.8,10.6,9.8,17.5,11.5c6.4,1.6,12.1-0.3,17.8-3.4c2.8-1.5,0.3-5.8-2.5-4.3
						c-4.9,2.7-9.9,4.4-15.4,2.4c-5.4-1.9-9.7-5.9-13.8-9.8C33.7,341.5,30.2,345,32.5,347.2L32.5,347.2z"/>
				</g>
			</g>
		</g>
		<g>
			<g>
				<g>
					<path class="st21" d="M26.8,367c12.3,2.4,30.8,2.9,35.6,17.2c1.9,5.5,2.4,10.4,6.6,14.8c3.7,3.9,8.6,6.3,13.6,8.3
						c3,1.2,4.3-3.6,1.3-4.8c-6.5-2.6-13-6.4-15.2-13.5c-1.7-5.5-2.5-10.2-6.6-14.5c-8.8-9.2-22.2-9.9-34-12.1
						C24.9,361.6,23.6,366.4,26.8,367L26.8,367z"/>
				</g>
			</g>
			<g>
				<g>
					<path class="st21" d="M69.8,386.6c4.8,3.5,9.7,6.8,14.7,10c4.8,3.1,10.1,5.9,14.5,9.6c2.4,2.1,6-1.5,3.5-3.5
						c-9.2-7.8-20.4-13.4-30.2-20.4C69.7,380.4,67.2,384.7,69.8,386.6L69.8,386.6z"/>
				</g>
			</g>
			<g>
				<g>
					<path class="st21" d="M84,411c-0.2,2.2,0.5,4.5,1.8,6.3c0.8,1.1,2.2,1.6,3.4,0.9c1.1-0.6,1.7-2.3,0.9-3.4
						c-0.9-1.2-1.3-2.3-1.2-3.8c0.1-1.3-1.2-2.5-2.5-2.5C85.1,408.5,84.1,409.7,84,411L84,411z"/>
				</g>
			</g>
			<g>
				<g>
					<path class="st21" d="M32.5,347.2c5.1,4.8,10.6,9.8,17.5,11.5c6.4,1.6,12.1-0.3,17.8-3.4c2.8-1.5,0.3-5.8-2.5-4.3
						c-4.9,2.7-9.9,4.4-15.4,2.4c-5.4-1.9-9.7-5.9-13.8-9.8C33.7,341.5,30.2,345,32.5,347.2L32.5,347.2z"/>
				</g>
			</g>
		</g>
	</g>
	<path id="iceLineArt_1_" class="st22" d="M21.3,350c0,0-9.6-22.2,14.4-14.4c13.6,4.4,24.8,6.5,32.1,7.6c5.1,0.7,9.4,4.2,11.2,9
		c2,5.4,5.4,12.5,10.6,17.7c9.8,9.8,11.4,32.6,11.4,32.6s4.3,12.2,15.6,19s1.3,10.9,1.3,10.9s-13.4,0.9-23.2-9.2
		c-9.8-10-26.3-9.8-26.3-9.8s-12.5-4.7-17.8-17.8c-3.3-8.2-11.2-13.5-16.6-16.3c-3.6-1.8-6.3-5.1-7.3-9L21.3,350z"/>
	<path id="outFlame" class="st23" d="M124.5,425.9c0,0,26.1-3.4,26.1-26.1c0,0,0-11,11.5-22.3s6-25.1,6-25.1s-6,16.2-12,11.4
		s1.8-25.9,9.3-31.9c7.5-6-0.3-27.7-4.5-34.9c0,0-1.8,31.3-19.2,45.1c-17.4,13.8-13.5-21.1,5.3-27.4c0,0-55.2,7.3-48.6,85
		C98.4,399.8,98.4,423.1,124.5,425.9z"/>
	<circle id="fireBall" class="st24" cx="124.3" cy="400.1" r="24"/>
	<circle id="innFlame" class="st25" cx="129.7" cy="409.1" r="17.1"/>
</g>
<g id="Spell__x26__Sword_Icon" class="st3">
	<path id="Handle_1_" class="st8" d="M257.7,383.4l19.5,19.5l-36.7,36.7c-2.3,2.3-6,2.3-8.3,0l-11.3-11.3c-2.3-2.3-2.3-6,0-8.3
		L257.7,383.4z"/>
	<path id="Pommel_1_" class="st9" d="M242.5,437.6c0,0-3.6,17.6-17.6,17.6c-11.8,1-20-12.2-20-20c0.8-12.5,18.1-17.1,18.1-17.1
		L242.5,437.6z"/>
	<path id="mainFlame" class="st26" d="M295.1,397.7c0,0,8.9-9.2,10.3-14.9c1-4.5,11.9-8.9,16.3-10.5c1.4-0.5,2.7-1.3,3.9-2.4
		c3.2-3,9.6-9.6,12.1-17.9c3.4-11.2,27.9-18.9,27.9-18.9s25.7-5.6,30.3-18.8s13-52.9-19-76.6c0,0,12,27.2-0.7,30.1
		c-12.7,2.9-15.1-12.3-15.1-12.3s-6.4,14.6,0,22.5c6.4,7.9-28.1,10.5-23.4-21.2c0,0-23.2,21.1-9.9,43.6
		c13.3,22.5-16.5,12.6-16.5,12.6s-23.8-9.9-5.9-50.2c0,0-38.6,58-2.5,79.9c0,0,9.4,16.4-12,11.5c-2-0.5-4.2-0.1-6,1
		c-3,1.9-7.6,3.5-8.5-4.7c-0.9-8.6-16.4,10.1-8.9,20.6C274.9,381.8,295.1,397.7,295.1,397.7z"/>
	<path id="flameAdditive" class="st27" d="M392.6,292.9c1.3,2.1,1.7,4.6,1.5,7c-0.9,7.7-2.1,27.3-31.4,30
		c-13.1,1.2-26.9,12.3-30.4,22.8c0,0-0.8,13.4-22.4,20.9c0,0-9.9,6.3-11.7,16.2c-1.5,7.9-22.2-13.3-22.2-13.3s35.7-8.3,37-16.8
		s11.6-34.4,37-43.6c25.4-9.2,30.1-19.5,30.1-19.5S387.6,285,392.6,292.9z"/>
	<path id="Hilt_1_" class="st8" d="M255.7,334.4c1.6-2.8,5.8-1.7,5.9,1.5c0.2,9.8,4.3,24.4,21.3,41.4c18.7,18.7,34.9,22,44.7,21.7
		c2.6-0.1,3.6,3.2,1.5,4.6c-13.2,8.3-39.3,18.6-64.8-6.9C240.2,372.7,247.8,348.2,255.7,334.4z"/>
	<circle id="Bezzel_1_" class="st10" cx="274" cy="386.2" r="6.5"/>
	<circle id="Gem_1_" class="st11" cx="274" cy="386.2" r="3.4"/>
</g>
<g id="Bow">
	<path id="lowerBow" class="st28" d="M-214.5,8.1c0,0,24.1,31.4,54.9,20.1s57.7,46.9,57.7,46.9l9.9-6.2c0,0-31.9-70.6-73.8-53.8
		C-165.8,15-180.6,26.1-214.5,8.1z"/>
	<path id="upperBow" class="st28" d="M-103.5,202.6c0,0-14.5-36.9,11.1-57.4s-10.3-71.4-10.3-71.4l10.4-7.5c0,0,44,63.8,8,91
		C-84.3,157.3-101.4,164.3-103.5,202.6z"/>
	
		<rect id="grip" x="-101.9" y="57.1" transform="matrix(0.8576 -0.5143 0.5143 0.8576 -51.9598 -38.1091)" class="st29" width="14.2" height="35.3"/>
	<line id="bowString" class="st30" x1="-210.9" y1="9.7" x2="-102.6" y2="197.4"/>
	<polygon id="arrowShaft" class="st29" points="-159.4,97.4 -161.3,94 -45.4,24.4 -43.6,27.7 	"/>
	<path id="Arrow_Head" class="st31" d="M-54.3,24.6c2.8,0.4,9,2.4,6.1,11c-0.1,0.3,0.3,0.4,0.5,0.2L-29.6,17l-24.7,7.1
		C-54.6,24.2-54.6,24.6-54.3,24.6z"/>
	<polygon id="featherLower" class="st29" points="-159.4,97.4 -165.7,106.7 -140.6,91.6 -137.2,84 	"/>
	<polygon id="featherUpper" class="st29" points="-163,93.8 -174,94.8 -148.8,79.7 -140.7,80.4 	"/>
</g>
<g id="Spell_Bow">
	<path id="lowerBow_1_" class="st28" d="M5.4,4.6c0,0,24.1,31.4,54.9,20.1S118,71.6,118,71.6l9.9-6.2c0,0-31.9-70.6-73.8-53.8
		C54.1,11.5,39.2,22.6,5.4,4.6z"/>
	<path id="upperBow_1_" class="st28" d="M116.4,199.1c0,0-14.5-36.9,11.1-57.4s-10.3-71.4-10.3-71.4l10.4-7.5c0,0,44,63.8,8,91
		C135.5,153.8,118.4,160.8,116.4,199.1z"/>
	
		<rect id="grip_1_" x="117.9" y="53.6" transform="matrix(0.8576 -0.5143 0.5143 0.8576 -18.8573 74.4573)" class="st29" width="14.2" height="35.3"/>
	<line id="bowString_1_" class="st30" x1="8.9" y1="6.2" x2="117.2" y2="193.9"/>
	<polygon id="arrowShaft_1_" class="st29" points="60.4,93.9 58.5,90.5 174.4,20.9 176.3,24.2 	"/>
	<polygon id="featherLower_1_" class="st29" points="60.4,93.9 54.2,103.2 79.3,88.1 82.7,80.5 	"/>
	<polygon id="featherUpper_1_" class="st29" points="56.9,90.3 45.9,91.3 71,76.2 79.1,76.9 	"/>
	<circle id="fireOrb" class="st32" cx="179.3" cy="19.5" r="8.8"/>
	<circle id="orbGlow" class="st33" cx="184.9" cy="20.9" r="3.8"/>
</g>
<g id="Evil_Staff">
	<circle class="st34" cx="346.6" cy="88.3" r="18.2"/>
	<circle class="st34" cx="358.2" cy="90.2" r="5.2"/>
	<path class="st30" d="M347.7,64.7c0,0-5.9,3.7-10.4,3.6c-4.4-0.1-15.4,5.8-16.7,16s3.5,11.2-14.2,23.7c-0.9,0.6-1.8,1.3-2.7,2
		c-1.5,1.3-3.1,2.6-4.6,4.1c-15.3,14.7-29.7,39.2-30.4,40c-0.9,0.9-20.4,27.9-45,32.8c0,0,45.7-1.8,66.5-38.3s37.9-40.1,37.9-40.1
		s13.1,5,22.9,2.4c1.4-0.4,2.6-1,3.8-1.9c1.4-1,3.9-2.5,6.5-2.4c0,0-11-6.2-15-3.5c-4,2.7-14.1-6.7-5.8-8.2c8.3-1.5,8.6-9.3,8.6-9.3
		s-5.4,5.3-10.6,2.3s-3-9.8,4.2-12C349.7,73.7,347.7,64.7,347.7,64.7z"/>
</g>
<g id="Palte_Helm">
	<path id="Helm" class="st35" d="M-205.5,342.1v58.2c0,0-2.6,36.9,55.5,41.1c0,0,47.8-3.7,54.1-33.7l0.7-65.6
		c0,0-8.9-39.6-54.8-47.5C-150,294.6-191.9,298.6-205.5,342.1z"/>
	<path id="Visor" class="st36" d="M-110,354.5v13c0,0-40.8,38.9-79.7,0v-13C-189.7,354.5-149.8,384.7-110,354.5z"/>
	<g id="Left">
		<circle id="holeMiddleLeft" cx="-168.8" cy="405.8" r="3.9"/>
		<circle id="holeBottomLeft" cx="-181.5" cy="415.4" r="3.9"/>
		<circle id="holeTopLeft" cx="-181.5" cy="396.3" r="3.9"/>
	</g>
	<g id="Left_1_">
		<circle id="holeMiddleLeft_1_" cx="-132.5" cy="405.8" r="3.9"/>
		<circle id="holeBottomLeft_1_" cx="-119.8" cy="415.4" r="3.9"/>
		<circle id="holeTopLeft_1_" cx="-119.8" cy="396.3" r="3.9"/>
	</g>
	<line id="bottomLineArt" class="st37" x1="-150" y1="441.4" x2="-150" y2="410.5"/>
	<line id="topLineart" class="st37" x1="-150" y1="294.6" x2="-150" y2="316.1"/>
</g>
</svg>
