<?xml version="1.0" encoding="utf-8"?>
<!-- Generator: Adobe Illustrator 23.0.1, SVG Export Plug-In . SVG Version: 6.00 Build 0)  -->
<svg version="1.1" id="spells" xmlns="http://www.w3.org/2000/svg" xmlns:xlink="http://www.w3.org/1999/xlink" x="0px" y="0px"
	 viewBox="0 0 152.5 141.4" style="enable-background:new 0 0 152.5 141.4;" xml:space="preserve">
<style type="text/css">
	.st0{fill:#28BEEF;}
	.st1{fill:#92D7EA;}
	.st2{fill:none;stroke:#92D7EA;stroke-width:2;stroke-miterlimit:10;}
	.st3{fill:#CB2026;stroke:#EB2C24;stroke-width:3;stroke-miterlimit:10;}
	.st4{fill:#EB2C24;stroke:#EB2C24;stroke-width:3;stroke-miterlimit:10;}
	.st5{fill:#E8E62A;}
</style>
<path id="iceInnerColour" class="st0" d="M2.9,58c0,0-9.6-22.2,14.4-14.4c13.6,4.4,24.8,6.5,32.1,7.6c5.1,0.7,9.4,4.2,11.2,9
	c2,5.4,5.4,12.5,10.6,17.7c9.8,9.8,11.4,32.6,11.4,32.6s4.3,12.2,15.6,19s1.3,10.9,1.3,10.9s-13.4,0.9-23.2-9.2s-26.3-9.8-26.3-9.8
	s-12.5-4.7-17.8-17.8c-3.3-8.2-11.2-13.5-16.6-16.3c-3.6-1.8-6.3-5.1-7.3-9L2.9,58z"/>
<g id="lineArt">
	<g>
		<g>
			<path class="st0" d="M9,72.6c7.1,1.4,14.4,2,21.2,4.3s13.4,6.9,15.9,13.7c1,2.8,1.3,5.8,2.3,8.5c2.6,6.8,9.5,11,16.4,13.6"/>
			<g>
				<path class="st0" d="M8.4,75c12.3,2.4,30.8,2.9,35.6,17.2c1.9,5.5,2.4,10.4,6.6,14.8c3.7,3.9,8.6,6.3,13.6,8.3
					c3,1.2,4.3-3.6,1.3-4.8c-6.5-2.6-13-6.4-15.2-13.5c-1.7-5.5-2.5-10.2-6.6-14.5c-8.8-9.2-22.2-9.9-34-12.1
					C6.6,69.6,5.2,74.4,8.4,75L8.4,75z"/>
			</g>
		</g>
		<g>
			<path class="st0" d="M52.7,92.4c7.1,5.1,14.4,10,21.8,14.6c2.7,1.7,5.5,3.3,7.9,5.5"/>
			<g>
				<path class="st0" d="M51.4,94.6c4.8,3.5,9.7,6.8,14.7,10c4.8,3.1,10.1,5.9,14.5,9.6c2.4,2.1,6-1.5,3.5-3.5
					c-9.2-7.8-20.4-13.4-30.2-20.4C51.3,88.4,48.8,92.7,51.4,94.6L51.4,94.6z"/>
			</g>
		</g>
		<g>
			<path class="st0" d="M68.1,119c-0.2,1.8,0.4,3.7,1.5,5.1"/>
			<g>
				<path class="st0" d="M65.6,119c-0.2,2.2,0.5,4.5,1.8,6.3c0.8,1.1,2.2,1.6,3.4,0.9c1.1-0.6,1.7-2.3,0.9-3.4
					c-0.9-1.2-1.3-2.3-1.2-3.8c0.1-1.3-1.2-2.5-2.5-2.5C66.7,116.5,65.7,117.7,65.6,119L65.6,119z"/>
			</g>
		</g>
		<g>
			<path class="st0" d="M15.9,53.4c3.1,2.9,6.2,5.8,9.9,8s7.8,3.7,12.1,3.3c3.7-0.3,7.1-1.9,10.3-3.6"/>
			<g>
				<path class="st0" d="M14.1,55.2C19.3,60,24.7,65,31.7,66.7c6.4,1.6,12.1-0.3,17.8-3.4c2.8-1.5,0.3-5.8-2.5-4.3
					c-4.9,2.7-9.9,4.4-15.4,2.4c-5.4-1.9-9.7-5.9-13.8-9.8C15.3,49.5,11.8,53,14.1,55.2L14.1,55.2z"/>
			</g>
		</g>
	</g>
	<g>
		<g>
			<g>
				<path class="st1" d="M8.4,75c12.3,2.4,30.8,2.9,35.6,17.2c1.9,5.5,2.4,10.4,6.6,14.8c3.7,3.9,8.6,6.3,13.6,8.3
					c3,1.2,4.3-3.6,1.3-4.8c-6.5-2.6-13-6.4-15.2-13.5c-1.7-5.5-2.5-10.2-6.6-14.5c-8.8-9.2-22.2-9.9-34-12.1
					C6.6,69.6,5.2,74.4,8.4,75L8.4,75z"/>
			</g>
		</g>
		<g>
			<g>
				<path class="st1" d="M51.4,94.6c4.8,3.5,9.7,6.8,14.7,10c4.8,3.1,10.1,5.9,14.5,9.6c2.4,2.1,6-1.5,3.5-3.5
					c-9.2-7.8-20.4-13.4-30.2-20.4C51.3,88.4,48.8,92.7,51.4,94.6L51.4,94.6z"/>
			</g>
		</g>
		<g>
			<g>
				<path class="st1" d="M65.6,119c-0.2,2.2,0.5,4.5,1.8,6.3c0.8,1.1,2.2,1.6,3.4,0.9c1.1-0.6,1.7-2.3,0.9-3.4
					c-0.9-1.2-1.3-2.3-1.2-3.8c0.1-1.3-1.2-2.5-2.5-2.5C66.7,116.5,65.7,117.7,65.6,119L65.6,119z"/>
			</g>
		</g>
		<g>
			<g>
				<path class="st1" d="M14.1,55.2C19.3,60,24.7,65,31.7,66.7c6.4,1.6,12.1-0.3,17.8-3.4c2.8-1.5,0.3-5.8-2.5-4.3
					c-4.9,2.7-9.9,4.4-15.4,2.4c-5.4-1.9-9.7-5.9-13.8-9.8C15.3,49.5,11.8,53,14.1,55.2L14.1,55.2z"/>
			</g>
		</g>
	</g>
</g>
<path id="iceLineArt_1_" class="st2" d="M2.9,58c0,0-9.6-22.2,14.4-14.4c13.6,4.4,24.8,6.5,32.1,7.6c5.1,0.7,9.4,4.2,11.2,9
	c2,5.4,5.4,12.5,10.6,17.7c9.8,9.8,11.4,32.6,11.4,32.6s4.3,12.2,15.6,19s1.3,10.9,1.3,10.9s-13.4,0.9-23.2-9.2s-26.3-9.8-26.3-9.8
	s-12.5-4.7-17.8-17.8c-3.3-8.2-11.2-13.5-16.6-16.3c-3.6-1.8-6.3-5.1-7.3-9L2.9,58z"/>
<path id="outFlame" class="st3" d="M106.1,133.9c0,0,26.1-3.4,26.1-26.1c0,0,0-11,11.5-22.3s6-25.1,6-25.1s-6,16.2-12,11.4
	c-6-4.8,1.8-25.9,9.3-31.9c7.5-6-0.3-27.7-4.5-34.9c0,0-1.8,31.3-19.2,45.1s-13.5-21.1,5.3-27.4c0,0-55.2,7.3-48.6,85
	C80,107.8,80,131,106.1,133.9z"/>
<circle id="fireBall" class="st4" cx="105.9" cy="108.1" r="24"/>
<circle id="innFlame" class="st5" cx="111.3" cy="117.1" r="17.1"/>
</svg>
