<?xml version="1.0" encoding="utf-8"?>
<!-- Generator: Adobe Illustrator 23.0.1, SVG Export Plug-In . SVG Version: 6.00 Build 0)  -->
<svg version="1.1" id="spellsword" xmlns="http://www.w3.org/2000/svg" xmlns:xlink="http://www.w3.org/1999/xlink" x="0px" y="0px"
	 viewBox="0 0 198 222" style="enable-background:new 0 0 198 222;" xml:space="preserve">
<style type="text/css">
	.st0{fill:#8C361D;stroke:#000000;stroke-width:3;stroke-miterlimit:10;}
	.st1{fill:#FFCD34;stroke:#000000;stroke-width:3;stroke-miterlimit:10;}
	.st2{fill:#CB2026;stroke:#000000;stroke-width:2;stroke-miterlimit:10;}
	.st3{fill:#F7EC13;}
	.st4{fill:#FFCD34;stroke:#000000;stroke-miterlimit:10;}
	.st5{fill:#ED1C24;}
</style>
<path id="Handle_1_" class="st0" d="M54.2,148.6l19.5,19.5l-36.7,36.7c-2.3,2.3-6,2.3-8.3,0l-11.3-11.3c-2.3-2.3-2.3-6,0-8.3
	L54.2,148.6z"/>
<path id="Pommel_1_" class="st1" d="M39.1,202.9c0,0-3.6,17.6-17.6,17.6c-11.8,1-20-12.2-20-20c0.8-12.5,18.1-17.1,18.1-17.1
	L39.1,202.9z"/>
<path id="mainFlame" class="st2" d="M91.7,163c0,0,8.9-9.2,10.3-14.9c1-4.5,11.9-8.9,16.3-10.5c1.4-0.5,2.7-1.3,3.9-2.4
	c3.2-3,9.6-9.6,12.1-17.9c3.4-11.2,27.9-18.9,27.9-18.9s25.7-5.6,30.3-18.8c4.6-13.2,13-52.9-19-76.6c0,0,12,27.2-0.7,30.1
	c-12.7,2.9-15.1-12.3-15.1-12.3s-6.4,14.6,0,22.5s-28.1,10.5-23.4-21.2c0,0-23.2,21.1-9.9,43.6c13.3,22.5-16.5,12.6-16.5,12.6
	s-23.8-9.9-5.9-50.2c0,0-38.6,58-2.5,79.9c0,0,9.4,16.4-12,11.5c-2-0.5-4.2-0.1-6,1c-3,1.9-7.6,3.5-8.5-4.7
	c-0.9-8.6-16.4,10.1-8.9,20.6C71.5,147.1,91.7,163,91.7,163z"/>
<path id="flameAdditive" class="st3" d="M189.2,58.2c1.3,2.1,1.7,4.6,1.5,7c-0.9,7.7-2.1,27.3-31.4,30
	c-13.1,1.2-26.9,12.3-30.4,22.8c0,0-0.8,13.4-22.4,20.9c0,0-9.9,6.3-11.7,16.2c-1.5,7.9-22.2-13.3-22.2-13.3s35.7-8.3,37-16.8
	s11.6-34.4,37-43.6s30.1-19.5,30.1-19.5S184.2,50.2,189.2,58.2z"/>
<path id="Hilt_1_" class="st0" d="M52.3,99.6c1.6-2.8,5.8-1.7,5.9,1.5c0.2,9.8,4.3,24.4,21.3,41.4c18.7,18.7,34.9,22,44.7,21.7
	c2.6-0.1,3.6,3.2,1.5,4.6c-13.2,8.3-39.3,18.6-64.8-6.9C36.8,137.9,44.4,113.4,52.3,99.6z"/>
<circle id="Bezzel_1_" class="st4" cx="70.5" cy="151.5" r="6.5"/>
<circle id="Gem_1_" class="st5" cx="70.5" cy="151.5" r="3.4"/>
</svg>
