<?xml version="1.0" encoding="utf-8"?>
<!-- Generator: Adobe Illustrator 23.0.1, SVG Export Plug-In . SVG Version: 6.00 Build 0)  -->
<svg version="1.1" id="staff" xmlns="http://www.w3.org/2000/svg" xmlns:xlink="http://www.w3.org/1999/xlink" x="0px" y="0px"
	 viewBox="0 0 142.3 124.8" style="enable-background:new 0 0 142.3 124.8;" xml:space="preserve">
<style type="text/css">
	.st0{fill:#006838;stroke:#8DC63F;stroke-width:2;stroke-miterlimit:10;}
	.st1{fill:#8C361D;stroke:#000000;stroke-width:2;stroke-miterlimit:10;}
</style>
<circle class="st0" cx="123.1" cy="25.2" r="18.2"/>
<circle class="st0" cx="134.7" cy="27.2" r="5.2"/>
<path class="st1" d="M124.2,1.6c0,0-5.9,3.7-10.4,3.6c-4.4-0.1-15.4,5.8-16.7,16c-1.3,10.2,3.5,11.2-14.2,23.7
	c-0.9,0.6-1.8,1.3-2.7,2c-1.5,1.3-3.1,2.6-4.6,4.1C60.3,65.7,45.9,90.2,45.2,91c-0.9,0.9-20.4,27.9-45,32.8c0,0,45.7-1.8,66.5-38.3
	s37.9-40.1,37.9-40.1s13.1,5,22.9,2.4c1.4-0.4,2.6-1,3.8-1.9c1.4-1,3.9-2.5,6.5-2.4c0,0-11-6.2-15-3.5c-4,2.7-14.1-6.7-5.8-8.2
	c8.3-1.5,8.6-9.3,8.6-9.3s-5.4,5.3-10.6,2.3s-3-9.8,4.2-12S124.2,1.6,124.2,1.6z"/>
</svg>
