<?xml version="1.0" encoding="utf-8"?>
<!-- Generator: Adobe Illustrator 23.0.1, SVG Export Plug-In . SVG Version: 6.00 Build 0)  -->
<svg version="1.1" id="sword" xmlns="http://www.w3.org/2000/svg" xmlns:xlink="http://www.w3.org/1999/xlink" x="0px" y="0px"
	 viewBox="0 0 201.6 200.8" style="enable-background:new 0 0 201.6 200.8;" xml:space="preserve">
<style type="text/css">
	.st0{fill:#A3A3A3;stroke:#000000;stroke-width:3;stroke-miterlimit:10;}
	.st1{fill:#8C361D;stroke:#000000;stroke-width:3;stroke-miterlimit:10;}
	.st2{fill:#FFCD34;stroke:#000000;stroke-width:3;stroke-miterlimit:10;}
	.st3{fill:#FFCD34;stroke:#000000;stroke-miterlimit:10;}
	.st4{fill:#ED1C24;}
	.st5{fill:none;stroke:#000000;stroke-width:2;stroke-miterlimit:10;}
	.st6{fill:#A3A3A3;stroke:#000000;stroke-width:2;stroke-miterlimit:10;}
</style>
<polygon id="Blade" class="st0" points="199.6,2 157.7,12.3 68.9,110.9 90.7,132.7 189.3,42.5 "/>
<path id="Handle" class="st1" d="M54.2,127.5l19.5,19.5l-36.7,36.7c-2.3,2.3-6,2.3-8.3,0l-11.3-11.3c-2.3-2.3-2.3-6,0-8.3
	L54.2,127.5z"/>
<path id="Pommel" class="st2" d="M39.1,181.7c0,0-3.6,17.6-17.6,17.6c-11.8,1-20-12.2-20-20c0.8-12.5,18.1-17.1,18.1-17.1
	L39.1,181.7z"/>
<path id="Hilt" class="st1" d="M52.3,78.5c1.6-2.8,5.8-1.7,5.9,1.5c0.2,9.8,4.3,24.4,21.3,41.4c18.7,18.7,34.9,22,44.7,21.7
	c2.6-0.1,3.6,3.2,1.5,4.6c-13.2,8.3-39.3,18.6-64.8-6.9C36.8,116.8,44.4,92.3,52.3,78.5z"/>
<circle id="Bezzel" class="st3" cx="70.5" cy="130.3" r="6.5"/>
<circle id="Gem" class="st4" cx="70.5" cy="130.3" r="3.4"/>
<polyline id="Sword_Edge" class="st5" points="189.3,42.5 167.5,33.4 157.7,12.3 "/>
<line id="Sword_Edge_2" class="st6" x1="167.5" y1="33.4" x2="79.5" y2="121.4"/>
</svg>
