<?xml version="1.0" encoding="utf-8"?>
<!-- Generator: Adobe Illustrator 23.0.1, SVG Export Plug-In . SVG Version: 6.00 Build 0)  -->
<svg version="1.1" xmlns="http://www.w3.org/2000/svg" xmlns:xlink="http://www.w3.org/1999/xlink" x="0px" y="0px"
	 viewBox="0 0 201.6 200.8" style="enable-background:new 0 0 201.6 200.8;" xml:space="preserve">
<style type="text/css">
	.st0{fill:none;}
	.st1{fill:#DF4598;}
	.st2{fill:#FFFFFF;}
	.st3{display:none;}
	.st4{display:inline;fill:none;}
	.st5{display:inline;fill:#DF4598;}
	.st6{display:inline;fill:#FFFFFF;}
	.st7{fill:#A3A3A3;stroke:#000000;stroke-width:3;stroke-miterlimit:10;}
	.st8{fill:#8C361D;stroke:#000000;stroke-width:3;stroke-miterlimit:10;}
	.st9{fill:#FFCD34;stroke:#000000;stroke-width:3;stroke-miterlimit:10;}
	.st10{fill:#FFCD34;stroke:#000000;stroke-miterlimit:10;}
	.st11{fill:#ED1C24;}
	.st12{fill:none;stroke:#000000;stroke-width:2;stroke-miterlimit:10;}
	.st13{fill:#A3A3A3;stroke:#000000;stroke-width:2;stroke-miterlimit:10;}
	.st14{fill:#636768;stroke:#000000;stroke-width:3;stroke-miterlimit:10;}
	.st15{fill:#898989;stroke:#000000;stroke-width:3;stroke-miterlimit:10;}
	.st16{fill:url(#Rod_1_);stroke:#000000;stroke-width:3;stroke-miterlimit:10;}
	.st17{fill:#F4D80E;stroke:#000000;stroke-width:3;stroke-miterlimit:10;}
	.st18{fill:#28BEEF;}
	.st19{fill:#92D7EA;}
	.st20{fill:none;stroke:#92D7EA;stroke-width:2;stroke-miterlimit:10;}
	.st21{fill:#CB2026;stroke:#EB2C24;stroke-width:3;stroke-miterlimit:10;}
	.st22{fill:#EB2C24;stroke:#EB2C24;stroke-width:3;stroke-miterlimit:10;}
	.st23{fill:#E8E62A;}
	.st24{fill:#CB2026;stroke:#000000;stroke-width:2;stroke-miterlimit:10;}
	.st25{fill:#F7EC13;}
	.st26{display:inline;fill:#8C361D;stroke:#000000;stroke-width:3;stroke-miterlimit:10;}
	.st27{display:inline;stroke:#000000;stroke-width:3;stroke-miterlimit:10;}
	.st28{display:inline;fill:#8C361D;stroke:#000000;stroke-width:2;stroke-miterlimit:10;}
	.st29{display:inline;fill:#A3A3A3;stroke:#000000;stroke-width:2;stroke-miterlimit:10;}
	.st30{display:inline;fill:#ED1C24;stroke:#EF4136;stroke-width:2;stroke-miterlimit:10;}
	.st31{display:inline;fill:#F9ED32;}
	.st32{display:inline;fill:#006838;stroke:#8DC63F;stroke-width:2;stroke-miterlimit:10;}
	.st33{display:inline;fill:#A3A3A3;stroke:#000000;stroke-width:4;stroke-miterlimit:10;}
	.st34{display:inline;stroke:#000000;stroke-miterlimit:10;}
	.st35{display:inline;}
	.st36{display:inline;fill:none;stroke:#000000;stroke-miterlimit:10;}
</style>
<pattern  x="-87.6" y="-67.6" width="154" height="120.1" patternUnits="userSpaceOnUse" id="Unnamed_Pattern" viewBox="84.8 -209.8 154 120.1" style="overflow:visible;">
	<g>
		<rect x="84.8" y="-209.8" class="st0" width="154" height="120.1"/>
		<polygon class="st1" points="169.5,-21.4 148.3,0 0,-149.7 21.2,-171 		"/>
		<polygon class="st2" points="186.2,-38.2 165,-16.8 16.7,-166.5 37.8,-187.8 		"/>
		<polygon class="st2" points="223,-75.3 201.8,-54 53.5,-203.7 74.7,-225 		"/>
		<polygon class="st2" points="258.1,-110.7 236.9,-89.4 88.6,-239.1 109.7,-260.4 		"/>
		<polygon class="st2" points="286.5,-139.4 265.3,-118.1 117,-267.7 138.2,-289.1 		"/>
		<polygon class="st1" points="198.7,-60.8 177.5,-39.4 34.1,-184.1 55.3,-205.5 		"/>
		<polygon class="st1" points="237.2,-89.7 216,-68.3 67.7,-218 88.9,-239.4 		"/>
		<polygon class="st1" points="270.9,-123.7 249.7,-102.3 101.4,-252 122.6,-273.4 		"/>
		<polygon class="st1" points="303.7,-156.8 282.6,-135.5 134.2,-285.1 155.4,-306.5 		"/>
	</g>
</pattern>
<g id="Swatch" class="st3">
	<rect x="435.2" y="62.5" class="st4" width="154" height="120.1"/>
	<polygon class="st5" points="519.9,251 498.8,272.4 350.4,122.7 371.6,101.3 	"/>
	<polygon class="st6" points="536.6,234.2 515.4,255.6 367.1,105.9 388.2,84.5 	"/>
	<polygon class="st6" points="573.4,197.1 552.3,218.4 403.9,68.7 425.1,47.4 	"/>
	<polygon class="st6" points="608.5,161.6 587.3,183 439,33.3 460.2,12 	"/>
	<polygon class="st6" points="636.9,133 615.8,154.3 467.4,4.6 488.6,-16.7 	"/>
	<polygon class="st5" points="549.1,211.6 527.9,233 384.5,88.3 405.7,66.9 	"/>
	<polygon class="st5" points="587.6,182.7 566.5,204.1 418.1,54.4 439.3,33 	"/>
	<polygon class="st5" points="621.3,148.7 600.2,170.1 451.8,20.4 473,-1 	"/>
	<polygon class="st5" points="654.2,115.6 633,136.9 484.7,-12.8 505.8,-34.1 	"/>
</g>
<g id="Sword_Icon">
	<polygon id="Blade" class="st7" points="199.6,2 157.7,12.3 68.9,110.9 90.7,132.7 189.3,42.5 	"/>
	<path id="Handle" class="st8" d="M54.2,127.5l19.5,19.5l-36.7,36.7c-2.3,2.3-6,2.3-8.3,0l-11.3-11.3c-2.3-2.3-2.3-6,0-8.3
		L54.2,127.5z"/>
	<path id="Pommel" class="st9" d="M39.1,181.7c0,0-3.6,17.6-17.6,17.6c-11.8,1-20-12.2-20-20c0.8-12.5,18.1-17.1,18.1-17.1
		L39.1,181.7z"/>
	<path id="Hilt" class="st8" d="M52.3,78.5c1.6-2.8,5.8-1.7,5.9,1.5c0.2,9.8,4.3,24.4,21.3,41.4c18.7,18.7,34.9,22,44.7,21.7
		c2.6-0.1,3.6,3.2,1.5,4.6c-13.2,8.3-39.3,18.6-64.8-6.9C36.8,116.8,44.4,92.3,52.3,78.5z"/>
	<circle id="Bezzel" class="st10" cx="70.5" cy="130.3" r="6.5"/>
	<circle id="Gem" class="st11" cx="70.5" cy="130.3" r="3.4"/>
	<polyline id="Sword_Edge" class="st12" points="189.3,42.5 167.5,33.4 157.7,12.3 	"/>
	<line id="Sword_Edge_2" class="st13" x1="167.5" y1="33.4" x2="79.5" y2="121.4"/>
</g>
<g id="Shield_Icon">
	<path id="outerRim" class="st14" d="M312.7,9.4l-68.6,41c0,0-17,99.8,68.6,147.4c0,0,80.5-36.5,68.7-147.4L312.7,9.4z"/>
	<path id="innerRim" class="st15" d="M312.7,27.3l-57.3,34.2c0,0-14.2,83.4,57.3,123.1c0,0,67.3-30.5,57.4-123.1L312.7,27.3z"/>
</g>
<g id="Wand_Icon">
	
		<pattern  id="Rod_1_" xlink:href="#Unnamed_Pattern" patternTransform="matrix(0.7071 0.7071 -0.7071 0.7071 -7674.5049 3203.874)">
	</pattern>
	<path id="Rod" class="st16" d="M430.8,178.4l-4.6-4.6c-2.7-2.7-2.7-7,0.1-9.7l83.4-77.9l11.6,11.6l-80.8,80.5
		C437.9,181,433.5,181.1,430.8,178.4z"/>
	<polygon id="Star" class="st17" points="561.1,47 546,76.9 569.7,100.5 536.7,95.3 521.5,125.2 516.2,92.1 483.1,87 512.9,71.7 
		507.6,38.6 531.3,62.3 	"/>
</g>
<g id="Dagger_Icon">
	<path id="Blade1" class="st7" d="M100.5,297.3l-61,61l-54,54l10.7,10.7l61.6-61.6C57.8,361.5,101.4,319.2,100.5,297.3z"/>
	
		<rect id="Hilt1" x="31.1" y="368.1" transform="matrix(0.7071 -0.7071 0.7071 0.7071 -259.3328 136.5597)" class="st14" width="8.2" height="26.4"/>
	
		<rect id="Handle1" x="2" y="372.5" transform="matrix(0.7071 0.7071 -0.7071 0.7071 284.9377 110.1167)" class="st14" width="15.2" height="53"/>
	<path id="Blade2" class="st7" d="M108.3,338.2L56,390.4L9.7,436.7l9.2,9.2l52.7-52.7C71.6,393.1,109,356.8,108.3,338.2z"/>
	
		<rect id="Hilt2" x="48.8" y="398.8" transform="matrix(0.7071 -0.7071 0.7071 0.7071 -274.6463 157.1)" class="st14" width="7" height="22.6"/>
	
		<rect id="Handle2" x="23.9" y="402.5" transform="matrix(0.7071 0.7071 -0.7071 0.7071 309.5715 103.071)" class="st14" width="13" height="45.4"/>
</g>
<g id="Two_Spells_Icon">
	<path id="iceInnerColour" class="st18" d="M214.9,335.5c0,0-9.6-22.2,14.4-14.4c13.6,4.4,24.8,6.5,32.1,7.6c5.1,0.7,9.4,4.2,11.2,9
		c2,5.4,5.4,12.5,10.6,17.7c9.8,9.8,11.4,32.6,11.4,32.6s4.3,12.2,15.6,19c11.3,6.8,1.3,10.9,1.3,10.9s-13.4,0.9-23.2-9.2
		c-9.8-10-26.3-9.8-26.3-9.8s-12.5-4.7-17.8-17.8c-3.3-8.2-11.2-13.5-16.6-16.3c-3.6-1.8-6.3-5.1-7.3-9L214.9,335.5z"/>
	<g id="lineArt">
		<g>
			<g>
				<path class="st18" d="M221,350.1c7.1,1.4,14.4,2,21.2,4.3c6.8,2.4,13.4,6.9,15.9,13.7c1,2.8,1.3,5.8,2.3,8.5
					c2.6,6.8,9.5,11,16.4,13.6"/>
				<g>
					<path class="st18" d="M220.3,352.5c12.3,2.4,30.8,2.9,35.6,17.2c1.9,5.5,2.4,10.4,6.6,14.8c3.7,3.9,8.6,6.3,13.6,8.3
						c3,1.2,4.3-3.6,1.3-4.8c-6.5-2.6-13-6.4-15.2-13.5c-1.7-5.5-2.5-10.2-6.6-14.5c-8.8-9.2-22.2-9.9-34-12.1
						C218.5,347.1,217.2,351.9,220.3,352.5L220.3,352.5z"/>
				</g>
			</g>
			<g>
				<path class="st18" d="M264.6,369.9c7.1,5.1,14.4,10,21.8,14.6c2.7,1.7,5.5,3.3,7.9,5.5"/>
				<g>
					<path class="st18" d="M263.4,372.1c4.8,3.5,9.7,6.8,14.7,10c4.8,3.1,10.1,5.9,14.5,9.6c2.4,2.1,6-1.5,3.5-3.5
						c-9.2-7.8-20.4-13.4-30.2-20.4C263.3,365.9,260.8,370.2,263.4,372.1L263.4,372.1z"/>
				</g>
			</g>
			<g>
				<path class="st18" d="M280.1,396.5c-0.2,1.8,0.4,3.7,1.5,5.1"/>
				<g>
					<path class="st18" d="M277.6,396.5c-0.2,2.2,0.5,4.5,1.8,6.3c0.8,1.1,2.2,1.6,3.4,0.9c1.1-0.6,1.7-2.3,0.9-3.4
						c-0.9-1.2-1.3-2.3-1.2-3.8c0.1-1.3-1.2-2.5-2.5-2.5C278.7,394,277.7,395.2,277.6,396.5L277.6,396.5z"/>
				</g>
			</g>
			<g>
				<path class="st18" d="M227.9,330.9c3.1,2.9,6.2,5.8,9.9,8s7.8,3.7,12.1,3.3c3.7-0.3,7.1-1.9,10.3-3.6"/>
				<g>
					<path class="st18" d="M226.1,332.7c5.1,4.8,10.6,9.8,17.5,11.5c6.4,1.6,12.1-0.3,17.8-3.4c2.8-1.5,0.3-5.8-2.5-4.3
						c-4.9,2.7-9.9,4.4-15.4,2.4c-5.4-1.9-9.7-5.9-13.8-9.8C227.3,327,223.7,330.5,226.1,332.7L226.1,332.7z"/>
				</g>
			</g>
		</g>
		<g>
			<g>
				<g>
					<path class="st19" d="M220.3,352.5c12.3,2.4,30.8,2.9,35.6,17.2c1.9,5.5,2.4,10.4,6.6,14.8c3.7,3.9,8.6,6.3,13.6,8.3
						c3,1.2,4.3-3.6,1.3-4.8c-6.5-2.6-13-6.4-15.2-13.5c-1.7-5.5-2.5-10.2-6.6-14.5c-8.8-9.2-22.2-9.9-34-12.1
						C218.5,347.1,217.2,351.9,220.3,352.5L220.3,352.5z"/>
				</g>
			</g>
			<g>
				<g>
					<path class="st19" d="M263.4,372.1c4.8,3.5,9.7,6.8,14.7,10c4.8,3.1,10.1,5.9,14.5,9.6c2.4,2.1,6-1.5,3.5-3.5
						c-9.2-7.8-20.4-13.4-30.2-20.4C263.3,365.9,260.8,370.2,263.4,372.1L263.4,372.1z"/>
				</g>
			</g>
			<g>
				<g>
					<path class="st19" d="M277.6,396.5c-0.2,2.2,0.5,4.5,1.8,6.3c0.8,1.1,2.2,1.6,3.4,0.9c1.1-0.6,1.7-2.3,0.9-3.4
						c-0.9-1.2-1.3-2.3-1.2-3.8c0.1-1.3-1.2-2.5-2.5-2.5C278.7,394,277.7,395.2,277.6,396.5L277.6,396.5z"/>
				</g>
			</g>
			<g>
				<g>
					<path class="st19" d="M226.1,332.7c5.1,4.8,10.6,9.8,17.5,11.5c6.4,1.6,12.1-0.3,17.8-3.4c2.8-1.5,0.3-5.8-2.5-4.3
						c-4.9,2.7-9.9,4.4-15.4,2.4c-5.4-1.9-9.7-5.9-13.8-9.8C227.3,327,223.7,330.5,226.1,332.7L226.1,332.7z"/>
				</g>
			</g>
		</g>
	</g>
	<path id="iceLineArt_1_" class="st20" d="M214.9,335.5c0,0-9.6-22.2,14.4-14.4c13.6,4.4,24.8,6.5,32.1,7.6c5.1,0.7,9.4,4.2,11.2,9
		c2,5.4,5.4,12.5,10.6,17.7c9.8,9.8,11.4,32.6,11.4,32.6s4.3,12.2,15.6,19c11.3,6.8,1.3,10.9,1.3,10.9s-13.4,0.9-23.2-9.2
		c-9.8-10-26.3-9.8-26.3-9.8s-12.5-4.7-17.8-17.8c-3.3-8.2-11.2-13.5-16.6-16.3c-3.6-1.8-6.3-5.1-7.3-9L214.9,335.5z"/>
	<path id="outFlame" class="st21" d="M318.1,411.4c0,0,26.1-3.4,26.1-26.1c0,0,0-11,11.5-22.3c11.4-11.3,6-25.1,6-25.1
		s-6,16.2-12,11.4c-6-4.8,1.8-25.9,9.3-31.9c7.5-6-0.3-27.7-4.5-34.9c0,0-1.8,31.3-19.2,45.1c-17.4,13.8-13.5-21.1,5.3-27.4
		c0,0-55.2,7.3-48.6,85C291.9,385.3,291.9,408.6,318.1,411.4z"/>
	<circle id="fireBall" class="st22" cx="317.8" cy="385.6" r="24"/>
	<circle id="innFlame" class="st23" cx="323.2" cy="394.6" r="17.1"/>
</g>
<g id="Spell__x26__Sword_Icon">
	<path id="Handle_1_" class="st8" d="M451.2,368.9l19.5,19.5L434,425.2c-2.3,2.3-6,2.3-8.3,0l-11.3-11.3c-2.3-2.3-2.3-6,0-8.3
		L451.2,368.9z"/>
	<path id="Pommel_1_" class="st9" d="M436.1,423.1c0,0-3.6,17.6-17.6,17.6c-11.8,1-20-12.2-20-20c0.8-12.5,18.1-17.1,18.1-17.1
		L436.1,423.1z"/>
	<path id="mainFlame" class="st24" d="M488.6,383.2c0,0,8.9-9.2,10.3-14.9c1-4.5,11.9-8.9,16.3-10.5c1.4-0.5,2.7-1.3,3.9-2.4
		c3.2-3,9.6-9.6,12.1-17.9c3.4-11.2,27.9-18.9,27.9-18.9s25.7-5.6,30.3-18.8s13-52.9-19-76.6c0,0,12,27.2-0.7,30.1
		c-12.7,2.9-15.1-12.3-15.1-12.3s-6.4,14.6,0,22.5c6.4,7.9-28.1,10.5-23.4-21.2c0,0-23.2,21.1-9.9,43.6
		c13.3,22.5-16.5,12.6-16.5,12.6s-23.8-9.9-5.9-50.2c0,0-38.6,58-2.5,79.9c0,0,9.4,16.4-12,11.5c-2-0.5-4.2-0.1-6,1
		c-3,1.9-7.6,3.5-8.5-4.7c-0.9-8.6-16.4,10.1-8.9,20.6C468.5,367.3,488.6,383.2,488.6,383.2z"/>
	<path id="flameAdditive" class="st25" d="M586.2,278.4c1.3,2.1,1.7,4.6,1.5,7c-0.9,7.7-2.1,27.3-31.4,30
		c-13.1,1.2-26.9,12.3-30.4,22.8c0,0-0.8,13.4-22.4,20.9c0,0-9.9,6.3-11.7,16.2c-1.5,7.9-22.2-13.3-22.2-13.3s35.7-8.3,37-16.8
		s11.6-34.4,37-43.6c25.4-9.2,30.1-19.5,30.1-19.5S581.2,270.5,586.2,278.4z"/>
	<path id="Hilt_1_" class="st8" d="M449.3,319.9c1.6-2.8,5.8-1.7,5.9,1.5c0.2,9.8,4.3,24.4,21.3,41.4c18.7,18.7,34.9,22,44.7,21.7
		c2.6-0.1,3.6,3.2,1.5,4.6c-13.2,8.3-39.3,18.6-64.8-6.9C433.8,358.1,441.4,333.7,449.3,319.9z"/>
	<circle id="Bezzel_1_" class="st10" cx="467.5" cy="371.7" r="6.5"/>
	<circle id="Gem_1_" class="st11" cx="467.5" cy="371.7" r="3.4"/>
</g>
<g id="Bow" class="st3">
	<path id="lowerBow" class="st26" d="M-20.9-6.4c0,0,24.1,31.4,54.9,20.1s57.7,46.9,57.7,46.9l9.9-6.2c0,0-31.9-70.6-73.8-53.8
		C27.8,0.5,12.9,11.6-20.9-6.4z"/>
	<path id="upperBow" class="st26" d="M90.1,188.1c0,0-14.5-36.9,11.1-57.4S90.8,59.3,90.8,59.3l10.4-7.5c0,0,44,63.8,8,91
		C109.2,142.7,92.1,149.8,90.1,188.1z"/>
	
		<rect id="grip" x="91.7" y="42.6" transform="matrix(0.8576 -0.5143 0.5143 0.8576 -16.9376 59.3681)" class="st27" width="14.2" height="35.3"/>
	<line id="bowString" class="st28" x1="-17.4" y1="-4.8" x2="90.9" y2="182.9"/>
	<polygon id="arrowShaft" class="st27" points="34.1,82.8 32.2,79.5 148.1,9.8 150,13.2 	"/>
	<path id="Arrow_Head" class="st29" d="M139.2,10.1c2.8,0.4,9,2.4,6.1,11c-0.1,0.3,0.3,0.4,0.5,0.2L164,2.5l-24.7,7.1
		C139,9.7,138.9,10.1,139.2,10.1z"/>
	<polygon id="featherLower" class="st27" points="34.1,82.8 27.9,92.2 53,77.1 56.4,69.5 	"/>
	<polygon id="featherUpper" class="st27" points="30.6,79.3 19.6,80.3 44.7,65.2 52.8,65.9 	"/>
</g>
<g id="Spell_Bow" class="st3">
	<path id="lowerBow_1_" class="st26" d="M199-9.9c0,0,24.1,31.4,54.9,20.1s57.7,46.9,57.7,46.9l9.9-6.2c0,0-31.9-70.6-73.8-53.8
		C247.6-3,232.8,8.1,199-9.9z"/>
	<path id="upperBow_1_" class="st26" d="M309.9,184.6c0,0-14.5-36.9,11.1-57.4s-10.3-71.4-10.3-71.4l10.4-7.5c0,0,44,63.8,8,91
		C329.1,139.2,312,146.3,309.9,184.6z"/>
	
		<rect id="grip_1_" x="311.5" y="39.1" transform="matrix(0.8576 -0.5143 0.5143 0.8576 16.1649 171.9345)" class="st27" width="14.2" height="35.3"/>
	<line id="bowString_1_" class="st28" x1="202.5" y1="-8.3" x2="310.8" y2="179.4"/>
	<polygon id="arrowShaft_1_" class="st27" points="254,79.3 252.1,76 368,6.3 369.9,9.7 	"/>
	<polygon id="featherLower_1_" class="st27" points="254,79.3 247.7,88.7 272.8,73.6 276.2,66 	"/>
	<polygon id="featherUpper_1_" class="st27" points="250.4,75.8 239.5,76.8 264.6,61.7 272.7,62.4 	"/>
	<circle id="fireOrb" class="st30" cx="372.9" cy="5" r="8.8"/>
	<circle id="orbGlow" class="st31" cx="378.5" cy="6.3" r="3.8"/>
</g>
<g id="Evil_Staff" class="st3">
	<circle class="st32" cx="540.2" cy="73.8" r="18.2"/>
	<circle class="st32" cx="551.7" cy="75.7" r="5.2"/>
	<path class="st28" d="M541.3,50.1c0,0-5.9,3.7-10.4,3.6c-4.4-0.1-15.4,5.8-16.7,16S517.7,81,500,93.4c-0.9,0.6-1.8,1.3-2.7,2
		c-1.5,1.3-3.1,2.6-4.6,4.1c-15.3,14.7-29.7,39.2-30.4,40c-0.9,0.9-20.4,27.9-45,32.8c0,0,45.7-1.8,66.5-38.3S521.6,94,521.6,94
		s13.1,5,22.9,2.4c1.4-0.4,2.6-1,3.8-1.9c1.4-1,3.9-2.5,6.5-2.4c0,0-11-6.2-15-3.5c-4,2.7-14.1-6.7-5.8-8.2s8.6-9.3,8.6-9.3
		s-5.4,5.3-10.6,2.3s-3-9.8,4.2-12C543.3,59.2,541.3,50.1,541.3,50.1z"/>
</g>
<g id="Palte_Helm" class="st3">
	<path id="Helm" class="st33" d="M-12,327.6v58.2c0,0-2.6,36.9,55.5,41.1c0,0,47.8-3.7,54.1-33.7l0.7-65.6c0,0-8.9-39.6-54.8-47.5
		C43.6,280.1,1.6,284.1-12,327.6z"/>
	<path id="Visor" class="st34" d="M83.6,340v13c0,0-40.8,38.9-79.7,0v-13C3.9,340,43.7,370.2,83.6,340z"/>
	<g id="Left" class="st35">
		<circle id="holeMiddleLeft" cx="24.8" cy="391.3" r="3.9"/>
		<circle id="holeBottomLeft" cx="12" cy="400.9" r="3.9"/>
		<circle id="holeTopLeft" cx="12" cy="381.7" r="3.9"/>
	</g>
	<g id="Left_1_" class="st35">
		<circle id="holeMiddleLeft_1_" cx="61" cy="391.3" r="3.9"/>
		<circle id="holeBottomLeft_1_" cx="73.8" cy="400.9" r="3.9"/>
		<circle id="holeTopLeft_1_" cx="73.8" cy="381.7" r="3.9"/>
	</g>
	<line id="bottomLineArt" class="st36" x1="43.6" y1="426.9" x2="43.6" y2="396"/>
	<line id="topLineart" class="st36" x1="43.6" y1="280.1" x2="43.6" y2="301.6"/>
</g>
</svg>
